<?xml version="1.0" encoding="UTF-8"?>
<svg width="164px" height="36px" viewBox="0 0 164 36" version="1.1" xmlns="http://www.w3.org/2000/svg" xmlns:xlink="http://www.w3.org/1999/xlink">
    <!-- Generator: Sketch 55.2 (78181) - https://sketchapp.com -->
    <title>logo</title>
    <desc>Created with Sketch.</desc>
    <g id="Page-1" stroke="none" stroke-width="1" fill="none" fill-rule="evenodd">
        <g id="logo" transform="translate(0.814000, 0.693000)" fill-rule="nonzero">
            <path d="M0,26.307 L0,25.937 L0.74,25.641 C1.2333358,25.4683325 1.56016587,25.2340015 1.7205,24.938 C1.88083413,24.6419985 1.961,24.259669 1.961,23.791 L1.961,4.44 C1.961,3.9466642 1.88083413,3.55200148 1.7205,3.256 C1.56016587,2.95999852 1.2333358,2.72566753 0.74,2.553 L0,2.257 L0,1.887 L9.398,1.887 L9.398,2.257 L8.769,2.516 C8.30033099,2.68866753 7.97966753,2.91683192 7.807,3.2005 C7.63433247,3.48416809 7.548,3.8726642 7.548,4.366 L7.548,13.357 L16.391,13.357 L16.391,4.366 C16.391,3.8726642 16.3108341,3.48416809 16.1505,3.2005 C15.9901659,2.91683192 15.6633358,2.68866753 15.17,2.516 L14.504,2.257 L14.504,1.887 L23.939,1.887 L23.939,2.257 L23.199,2.553 C22.730331,2.72566753 22.4096675,2.95999852 22.237,3.256 C22.0643325,3.55200148 21.978,3.9466642 21.978,4.44 L21.978,23.791 C21.978,24.259669 22.0643325,24.6419985 22.237,24.938 C22.4096675,25.2340015 22.730331,25.4683325 23.199,25.641 L23.939,25.937 L23.939,26.307 L14.504,26.307 L14.504,25.937 L15.17,25.715 C15.6633358,25.5176657 15.9901659,25.2771681 16.1505,24.9935 C16.3108341,24.7098319 16.391,24.3213358 16.391,23.828 L16.391,14.097 L7.548,14.097 L7.548,23.828 C7.548,24.7406712 7.95499593,25.3696649 8.769,25.715 L9.398,25.937 L9.398,26.307 L0,26.307 Z M30.843,26.862 C29.8809952,26.862 28.9991707,26.677 28.1975,26.307 C27.3958293,25.9369982 26.7668356,25.3388375 26.3105,24.5125 C25.8541644,23.6861625 25.6383332,22.5946735 25.663,21.238 L25.774,11.729 C25.774,11.1616638 25.6753343,10.7546679 25.478,10.508 C25.2806657,10.2613321 24.9723354,10.0886672 24.553,9.99 L24.109,9.842 L24.109,9.472 L30.732,8.177 L31.102,8.547 L30.917,13.801 L30.917,22.718 C30.917,23.5073373 31.1451644,24.0869981 31.6015,24.457 C32.0578356,24.8270019 32.6313299,25.012 33.322,25.012 C34.0126701,25.012 34.6293306,24.9133343 35.172,24.716 C35.7146694,24.5186657 36.2573306,24.2226686 36.8,23.828 L36.948,11.766 C36.948,11.1986638 36.8616675,10.7978345 36.689,10.5635 C36.5163325,10.3291655 36.195669,10.1626672 35.727,10.064 L35.357,9.953 L35.357,9.583 L41.832,8.177 L42.202,8.547 L42.091,13.801 L42.091,23.828 C42.091,24.3706694 42.1649993,24.7899985 42.313,25.086 C42.4610007,25.3820015 42.7816642,25.6286657 43.275,25.826 L43.645,25.937 L43.645,26.307 L37.17,26.677 L36.837,24.494 C36.0229959,25.1600033 35.1411714,25.7211644 34.1915,26.1775 C33.2418286,26.6338356 32.1256731,26.862 30.843,26.862 Z M53.028,19.906 C51.3259915,19.906 49.8830059,19.6223362 48.699,19.055 L48.699,20.313 C48.699,21.0776705 49.0813295,21.5339993 49.846,21.682 L56.802,22.977 C57.9613391,23.1990011 59.009662,23.4888315 59.947,23.8465 C60.884338,24.2041685 61.6366638,24.7098301 62.204,25.3635 C62.7713362,26.0171699 63.055,26.9113277 63.055,28.046 C63.055,29.2546727 62.6603373,30.3708282 61.871,31.3945 C61.0816627,32.4181718 59.9161744,33.2444969 58.3745,33.8735 C56.8328256,34.5025031 54.9150115,34.817 52.621,34.817 C50.6476568,34.817 49.0813391,34.613502 47.922,34.2065 C46.7626609,33.799498 45.9425024,33.2753365 45.4615,32.634 C44.9804976,31.9926635 44.74,31.3143369 44.74,30.599 C44.74,29.7109956 45.0421636,28.8168378 45.6465,27.9165 C46.2508364,27.0161622 46.9969956,26.2946694 47.885,25.752 C47.1203295,25.4559985 46.5653351,25.073669 46.22,24.605 C45.8746649,24.136331 45.702,23.6306694 45.702,23.088 C45.702,22.5946642 45.8314987,22.1321688 46.0905,21.7005 C46.3495013,21.2688312 46.6639981,20.8310022 47.034,20.387 L48.255,18.833 C46.4543243,17.7969948 45.554,16.1690111 45.554,13.949 C45.554,12.1729911 46.1891603,10.7300056 47.4595,9.62 C48.7298397,8.50999445 50.598321,7.955 53.065,7.955 C54.3230063,7.955 55.4268286,8.10299852 56.3765,8.399 C57.3261714,8.69500148 58.1093303,9.11433062 58.726,9.657 C59.5153373,9.53366605 60.2614965,9.33016809 60.9645,9.0465 C61.6675035,8.76283192 62.3026638,8.3743358 62.87,7.881 L63.388,8.251 L63.388,10.138 L59.207,10.138 C60.0950044,11.1246716 60.539,12.3949922 60.539,13.949 C60.539,15.6756753 59.9038397,17.1001611 58.6335,18.2225 C57.3631603,19.3448389 55.494679,19.906 53.028,19.906 Z M52.991,19.166 C53.9776716,19.166 54.6991644,18.7590041 55.1555,17.945 C55.6118356,17.1309959 55.84,15.7743428 55.84,13.875 C55.84,11.9756572 55.6118356,10.6375039 55.1555,9.8605 C54.6991644,9.08349612 54.002338,8.695 53.065,8.695 C52.1523288,8.695 51.461669,9.09582933 50.993,9.8975 C50.524331,10.6991707 50.29,12.0496572 50.29,13.949 C50.29,15.8483428 50.5058312,17.1926627 50.9375,17.982 C51.3691688,18.7713373 52.053662,19.166 52.991,19.166 Z M47.478,29.415 C47.478,30.8703406 47.9281622,31.9679963 48.8285,32.708 C49.7288378,33.4480037 51.1533236,33.818 53.102,33.818 C55.1493436,33.818 56.6909948,33.4850033 57.727,32.819 C58.7630052,32.1529967 59.281,31.2156727 59.281,30.007 C59.281,29.3163299 59.0281692,28.7613354 58.5225,28.342 C58.0168308,27.9226646 57.1596727,27.6020011 55.951,27.38 L49.254,26.122 L48.662,25.974 C48.3166649,26.4673358 48.0330011,27.0284969 47.811,27.6575 C47.5889989,28.2865031 47.478,28.8723306 47.478,29.415 Z M73.178,26.862 C71.303324,26.862 69.6753402,26.4735039 68.294,25.6965 C66.9126598,24.9194961 65.8458371,23.8156738 65.0935,22.385 C64.3411629,20.9543262 63.965,19.2770096 63.965,17.353 C63.965,15.4289904 64.3658293,13.764007 65.1675,12.358 C65.9691707,10.951993 67.0668264,9.86667049 68.4605,9.102 C69.8541736,8.33732951 71.4266579,7.955 73.178,7.955 C74.9293421,7.955 76.4956598,8.33116291 77.877,9.0835 C79.2583402,9.8358371 80.3498293,10.914993 81.1515,12.321 C81.9531707,13.727007 82.354,15.4043236 82.354,17.353 C82.354,19.3016764 81.9778371,20.9851596 81.2255,22.4035 C80.4731629,23.8218404 79.4125068,24.9194961 78.0435,25.6965 C76.6744932,26.4735039 75.052676,26.862 73.178,26.862 Z M73.178,26.122 C74.0413377,26.122 74.7319974,25.8753358 75.25,25.382 C75.7680026,24.8886642 76.1441655,24.0130063 76.3785,22.755 C76.6128345,21.4969937 76.73,19.7210115 76.73,17.427 C76.73,15.1083217 76.6128345,13.3200063 76.3785,12.062 C76.1441655,10.8039937 75.7680026,9.9283358 75.25,9.435 C74.7319974,8.9416642 74.0413377,8.695 73.178,8.695 C72.3146624,8.695 71.617836,8.9416642 71.0875,9.435 C70.557164,9.9283358 70.1748345,10.8039937 69.9405,12.062 C69.7061655,13.3200063 69.589,15.1083217 69.589,17.427 C69.589,19.7210115 69.7061655,21.4969937 69.9405,22.755 C70.1748345,24.0130063 70.557164,24.8886642 71.0875,25.382 C71.617836,25.8753358 72.3146624,26.122 73.178,26.122 Z" id="Hugo" fill="#141414"></path>
            <path d="M91.663,26.973 C90.3063265,26.973 88.925007,26.8065017 87.519,26.4735 C86.112993,26.1404983 84.941338,25.7026694 84.004,25.16 L84.189,20.128 L84.559,20.128 L85.706,22.533 C86.0513351,23.2236701 86.4213314,23.834164 86.816,24.3645 C87.2106686,24.894836 87.7533299,25.3079985 88.444,25.604 C88.9373358,25.8506679 89.4121644,26.0171662 89.8685,26.1035 C90.3248356,26.1898338 90.8366638,26.233 91.404,26.233 C92.9086742,26.233 94.098829,25.8260041 94.9745,25.012 C95.850171,24.1979959 96.288,23.1496731 96.288,21.867 C96.288,20.6583273 95.992003,19.7148367 95.4,19.0365 C94.807997,18.3581633 93.8583399,17.6983365 92.551,17.057 L91.034,16.391 C88.9126561,15.453662 87.2538393,14.3745061 86.0575,13.1535 C84.8611607,11.9324939 84.263,10.3106768 84.263,8.288 C84.263,6.83265939 84.6391629,5.57467197 85.3915,4.514 C86.1438371,3.45332803 87.1921599,2.63933617 88.5365,2.072 C89.8808401,1.50466383 91.4533243,1.221 93.254,1.221 C94.5613399,1.221 95.8008275,1.39366494 96.9725,1.739 C98.1441725,2.08433506 99.1616624,2.55299704 100.025,3.145 L99.803,7.585 L99.433,7.585 L97.916,4.81 C97.4966646,3.94666235 97.0773354,3.33616846 96.658,2.9785 C96.2386646,2.62083155 95.7576694,2.36800074 95.215,2.22 C94.8943317,2.12133284 94.5983347,2.05350019 94.327,2.0165 C94.0556653,1.97949981 93.7103354,1.961 93.291,1.961 C92.0329937,1.961 90.9723376,2.3248297 90.109,3.0525 C89.2456624,3.78017031 88.814,4.7606605 88.814,5.994 C88.814,7.25200629 89.1469967,8.25716291 89.813,9.0095 C90.4790033,9.7618371 91.4533269,10.433997 92.736,11.026 L94.438,11.766 C96.8060118,12.8020052 98.5079948,13.9058275 99.544,15.0775 C100.580005,16.2491725 101.098,17.7599908 101.098,19.61 C101.098,21.7806775 100.277842,23.5504932 98.6375,24.9195 C96.9971585,26.2885068 94.6723484,26.973 91.663,26.973 Z M111.998,7.955 C113.601341,7.955 114.970328,8.28183007 116.105,8.9355 C117.239672,9.58916994 118.109164,10.4771611 118.7135,11.5995 C119.317836,12.7218389 119.62,13.9983262 119.62,15.429 C119.62,15.7003347 119.607667,15.9778319 119.583,16.2615 C119.558333,16.5451681 119.509,16.7979989 119.435,17.02 L108.409,17.02 C108.433667,19.6840133 108.908495,21.6018275 109.8335,22.7735 C110.758505,23.9451725 112.133658,24.531 113.959,24.531 C115.19234,24.531 116.19133,24.3336686 116.956,23.939 C117.72067,23.5443314 118.435997,22.9646705 119.102,22.2 L119.472,22.533 C118.70733,23.8896735 117.68984,24.9503295 116.4195,25.715 C115.14916,26.4796705 113.626009,26.862 111.85,26.862 C110.098658,26.862 108.544673,26.4858371 107.188,25.7335 C105.831327,24.9811629 104.77067,23.902007 104.006,22.496 C103.24133,21.089993 102.859,19.4126764 102.859,17.464 C102.859,15.4413232 103.302996,13.7208404 104.191,12.3025 C105.079004,10.8841596 106.219826,9.8050037 107.6135,9.065 C109.007174,8.3249963 110.468659,7.955 111.998,7.955 Z M111.887,8.695 C111.171663,8.695 110.561169,8.91083118 110.0555,9.3425 C109.549831,9.77416883 109.155168,10.5388278 108.8715,11.6365 C108.587832,12.7341722 108.433667,14.28199 108.409,16.28 L114.736,16.28 C114.982668,13.5913199 114.884002,11.6550059 114.44,10.471 C113.995998,9.28699408 113.145006,8.695 111.887,8.695 Z M121.27,26.307 L121.27,25.937 L121.825,25.789 C122.318336,25.6409993 122.657499,25.4190015 122.8425,25.123 C123.027501,24.8269985 123.12,24.444669 123.12,23.976 L123.12,12.395 C123.12,11.8523306 123.027501,11.4515013 122.8425,11.1925 C122.657499,10.9334987 122.318336,10.7546672 121.825,10.656 L121.27,10.508 L121.27,10.138 L127.634,7.992 L128.004,8.362 L128.337,11.544 L128.337,11.84 C128.682335,11.1493299 129.132497,10.5141696 129.6875,9.9345 C130.242503,9.35483044 130.859163,8.88000185 131.5375,8.51 C132.215837,8.13999815 132.887997,7.955 133.554,7.955 C134.491338,7.955 135.206664,8.21399741 135.7,8.732 C136.193336,9.25000259 136.44,9.90366272 136.44,10.693 C136.44,11.5316709 136.199502,12.1791644 135.7185,12.6355 C135.237498,13.0918356 134.664003,13.32 133.998,13.32 C132.961995,13.32 132.049337,12.8020052 131.26,11.766 L131.186,11.692 C130.939332,11.3466649 130.655668,11.1555002 130.335,11.1185 C130.014332,11.0814998 129.718335,11.2356649 129.447,11.581 C129.200332,11.8030011 128.996834,12.0681651 128.8365,12.3765 C128.676166,12.6848349 128.522001,13.0363314 128.374,13.431 L128.374,23.754 C128.374,24.7406716 128.805662,25.3573321 129.669,25.604 L130.853,25.937 L130.853,26.307 L121.27,26.307 Z M141.827,6.031 C140.988329,6.031 140.27917,5.76583599 139.6995,5.2355 C139.11983,4.70516402 138.83,4.03300407 138.83,3.219 C138.83,2.38032914 139.11983,1.70200259 139.6995,1.184 C140.27917,0.66599741 140.988329,0.407 141.827,0.407 C142.665671,0.407 143.368664,0.66599741 143.936,1.184 C144.503336,1.70200259 144.787,2.38032914 144.787,3.219 C144.787,4.03300407 144.503336,4.70516402 143.936,5.2355 C143.368664,5.76583599 142.665671,6.031 141.827,6.031 Z M137.461,26.307 L137.461,25.937 L137.979,25.789 C138.472336,25.6409993 138.811499,25.4190015 138.9965,25.123 C139.181501,24.8269985 139.274,24.4323358 139.274,23.939 L139.274,12.358 C139.274,11.8399974 139.181501,11.4515013 138.9965,11.1925 C138.811499,10.9334987 138.472336,10.7546672 137.979,10.656 L137.461,10.545 L137.461,10.175 L144.232,7.992 L144.602,8.362 L144.491,13.616 L144.491,23.976 C144.491,24.4693358 144.583499,24.8639985 144.7685,25.16 C144.953501,25.4560015 145.280331,25.6779993 145.749,25.826 L146.119,25.937 L146.119,26.307 L137.461,26.307 Z M147.621,26.307 L147.621,25.937 L148.102,25.826 C148.570669,25.7026661 148.940665,25.4868349 149.212,25.1785 C149.483335,24.8701651 149.619,24.4693358 149.619,23.976 C149.619,23.0633288 149.625167,22.1568378 149.6375,21.2565 C149.649833,20.3561622 149.656,19.4496712 149.656,18.537 L149.656,9.25 L147.584,9.25 L147.584,8.843 L148.398,8.695 C148.891336,8.64566642 149.248999,8.47300148 149.471,8.177 C149.693001,7.88099852 149.853333,7.47400259 149.952,6.956 C150.198668,5.99399519 150.562498,5.14917031 151.0435,4.4215 C151.524502,3.6938297 152.07333,3.02166975 152.69,2.405 C153.627338,1.51699556 154.620161,0.894168455 155.6685,0.5365 C156.716839,0.178831545 157.746662,0 158.758,0 C159.744672,0 160.644996,0.203497965 161.459,0.6105 C162.273004,1.01750204 162.68,1.68966198 162.68,2.627 C162.68,3.29300333 162.482669,3.81716476 162.088,4.1995 C161.693331,4.58183525 161.138337,4.773 160.423,4.773 C159.830997,4.773 159.288336,4.61266827 158.795,4.292 C158.301664,3.97133173 157.820669,3.40400407 157.352,2.59 L156.834,1.961 C156.562665,1.61566494 156.291335,1.44916661 156.02,1.4615 C155.748665,1.4738334 155.551334,1.67733136 155.428,2.072 C155.255332,2.93533765 155.125834,3.94666087 155.0395,5.106 C154.953166,6.26533913 154.91,7.39999445 154.91,8.51 L159.054,8.51 L159.054,9.25 L154.91,9.25 L154.91,23.902 C154.91,24.839338 155.403328,25.4436653 156.39,25.715 L157.315,25.937 L157.315,26.307 L147.621,26.307 Z" id="Serif" fill="#F88379"></path>
        </g>
    </g>
</svg>