<svg xmlns="http://www.w3.org/2000/svg" width="164" height="36">
    <g fill="none" fill-rule="nonzero">
        <path fill="#141414" d="M.814 27v-.37l.74-.296c.493-.173.82-.407.98-.703.16-.296.241-.678.241-1.147V5.133c0-.493-.08-.888-.24-1.184-.16-.296-.488-.53-.981-.703l-.74-.296v-.37h9.398v.37l-.629.259c-.469.173-.79.4-.962.685-.173.283-.259.672-.259 1.165v8.991h8.843V5.059c0-.493-.08-.882-.24-1.165-.16-.284-.488-.512-.981-.685l-.666-.259v-.37h9.435v.37l-.74.296c-.469.173-.79.407-.962.703-.173.296-.259.69-.259 1.184v19.351c0 .469.086.851.259 1.147.173.296.493.53.962.703l.74.296V27h-9.435v-.37l.666-.222c.493-.197.82-.438.98-.721.16-.284.241-.673.241-1.166V14.79H8.362v9.731c0 .913.407 1.542 1.221 1.887l.629.222V27H.814zm30.843.555c-.962 0-1.844-.185-2.645-.555-.802-.37-1.431-.968-1.887-1.794-.457-.827-.673-1.918-.648-3.275l.111-9.509c0-.567-.099-.974-.296-1.221-.197-.247-.506-.42-.925-.518l-.444-.148v-.37l6.623-1.295.37.37-.185 5.254v8.917c0 .79.228 1.369.684 1.739.457.37 1.03.555 1.721.555.69 0 1.307-.099 1.85-.296a6.64 6.64 0 001.628-.888l.148-12.062c0-.567-.086-.968-.259-1.202-.173-.235-.493-.401-.962-.5l-.37-.111v-.37l6.475-1.406.37.37-.111 5.254v10.027c0 .543.074.962.222 1.258.148.296.469.543.962.74l.37.111V27l-6.475.37-.333-2.183a13.172 13.172 0 01-2.646 1.683c-.95.457-2.065.685-3.348.685zm22.185-6.956c-1.702 0-3.145-.284-4.329-.851v1.258c0 .765.382 1.221 1.147 1.369l6.956 1.295c1.16.222 2.208.512 3.145.87.937.357 1.69.863 2.257 1.517.567.653.851 1.547.851 2.682 0 1.209-.395 2.325-1.184 3.349-.79 1.023-1.955 1.85-3.497 2.479-1.541.629-3.459.943-5.753.943-1.973 0-3.54-.203-4.699-.61-1.16-.408-1.98-.932-2.46-1.573-.482-.641-.722-1.32-.722-2.035 0-.888.302-1.782.907-2.682a7.198 7.198 0 012.238-2.165c-.765-.296-1.32-.678-1.665-1.147s-.518-.974-.518-1.517c0-.493.13-.956.389-1.387.259-.432.573-.87.943-1.314l1.221-1.554c-1.8-1.036-2.701-2.664-2.701-4.884 0-1.776.635-3.219 1.905-4.329 1.27-1.11 3.14-1.665 5.606-1.665 1.258 0 2.362.148 3.312.444.95.296 1.732.715 2.349 1.258.79-.123 1.535-.327 2.239-.61a6.708 6.708 0 001.905-1.166l.518.37v1.887h-4.181c.888.987 1.332 2.257 1.332 3.811 0 1.727-.635 3.151-1.906 4.274-1.27 1.122-3.138 1.683-5.605 1.683zm-.037-.74c.987 0 1.708-.407 2.165-1.221.456-.814.684-2.17.684-4.07 0-1.9-.228-3.237-.684-4.014-.457-.778-1.154-1.166-2.091-1.166-.913 0-1.603.4-2.072 1.203-.469.801-.703 2.152-.703 4.051 0 1.9.216 3.244.648 4.033.431.79 1.116 1.184 2.053 1.184zm-5.513 10.249c0 1.455.45 2.553 1.35 3.293.9.74 2.325 1.11 4.274 1.11 2.047 0 3.589-.333 4.625-.999 1.036-.666 1.554-1.603 1.554-2.812 0-.69-.253-1.246-.758-1.665-.506-.42-1.363-.74-2.572-.962l-6.697-1.258-.592-.148a6.953 6.953 0 00-.851 1.683c-.222.63-.333 1.215-.333 1.758zm25.7-2.553c-1.875 0-3.503-.388-4.884-1.165-1.381-.778-2.448-1.881-3.2-3.312-.753-1.43-1.129-3.108-1.129-5.032s.4-3.589 1.203-4.995a8.358 8.358 0 013.292-3.256c1.394-.765 2.967-1.147 4.718-1.147s3.318.376 4.699 1.129c1.381.752 2.473 1.831 3.274 3.237.802 1.406 1.203 3.083 1.203 5.032 0 1.949-.376 3.632-1.129 5.05-.752 1.419-1.812 2.516-3.182 3.294-1.369.777-2.99 1.165-4.865 1.165zm0-.74c.863 0 1.554-.247 2.072-.74s.894-1.369 1.129-2.627c.234-1.258.351-3.034.351-5.328 0-2.319-.117-4.107-.352-5.365-.234-1.258-.61-2.134-1.128-2.627-.518-.493-1.209-.74-2.072-.74s-1.56.247-2.09.74c-.53.493-.913 1.369-1.148 2.627-.234 1.258-.351 3.046-.351 5.365 0 2.294.117 4.07.351 5.328.235 1.258.617 2.134 1.147 2.627.53.493 1.228.74 2.091.74z"/>
        <path fill="#2e86f8" d="M92.477 27.666c-1.357 0-2.738-.166-4.144-.5-1.406-.333-2.578-.77-3.515-1.313l.185-5.032h.37l1.147 2.405c.345.69.715 1.301 1.11 1.832.395.53.937.943 1.628 1.239.493.247.968.413 1.424.5.457.086.969.129 1.536.129 1.505 0 2.695-.407 3.57-1.221.876-.814 1.314-1.862 1.314-3.145 0-1.209-.296-2.152-.888-2.83-.592-.679-1.542-1.339-2.849-1.98l-1.517-.666c-2.121-.937-3.78-2.016-4.977-3.237-1.196-1.222-1.794-2.843-1.794-4.866 0-1.455.376-2.713 1.128-3.774.753-1.06 1.801-1.875 3.145-2.442 1.345-.567 2.917-.851 4.718-.851 1.307 0 2.547.173 3.718.518 1.172.345 2.19.814 3.053 1.406l-.222 4.44h-.37L98.73 5.503c-.42-.863-.839-1.474-1.258-1.831-.42-.358-.9-.611-1.443-.759a5.63 5.63 0 00-.888-.203 7.917 7.917 0 00-1.036-.056c-1.258 0-2.319.364-3.182 1.092-.863.727-1.295 1.708-1.295 2.941 0 1.258.333 2.263.999 3.016.666.752 1.64 1.424 2.923 2.016l1.702.74c2.368 1.036 4.07 2.14 5.106 3.312 1.036 1.171 1.554 2.682 1.554 4.532 0 2.17-.82 3.94-2.46 5.31-1.64 1.369-3.966 2.053-6.975 2.053zm20.335-19.018c1.603 0 2.972.327 4.107.98a6.688 6.688 0 012.608 2.665c.605 1.122.907 2.398.907 3.829 0 .271-.012.549-.037.833a3.308 3.308 0 01-.148.758h-11.026c.025 2.664.5 4.582 1.424 5.753.926 1.172 2.3 1.758 4.126 1.758 1.233 0 2.232-.197 2.997-.592.765-.395 1.48-.974 2.146-1.739l.37.333c-.765 1.357-1.782 2.417-3.053 3.182-1.27.765-2.793 1.147-4.569 1.147-1.751 0-3.305-.376-4.662-1.128-1.357-.753-2.417-1.832-3.182-3.238-.765-1.406-1.147-3.083-1.147-5.032 0-2.023.444-3.743 1.332-5.161.888-1.419 2.029-2.498 3.422-3.238 1.394-.74 2.856-1.11 4.385-1.11zm-.111.74c-.715 0-1.326.216-1.832.648-.505.431-.9 1.196-1.184 2.294-.283 1.097-.437 2.645-.462 4.643h6.327c.247-2.689.148-4.625-.296-5.809-.444-1.184-1.295-1.776-2.553-1.776zM122.084 27v-.37l.555-.148c.493-.148.832-.37 1.017-.666.186-.296.278-.678.278-1.147V13.088c0-.543-.092-.943-.278-1.202-.185-.26-.524-.438-1.017-.537l-.555-.148v-.37l6.364-2.146.37.37.333 3.182v.296a7.773 7.773 0 011.35-1.905 7.573 7.573 0 011.85-1.425c.679-.37 1.351-.555 2.017-.555.937 0 1.653.259 2.146.777.493.518.74 1.172.74 1.961 0 .839-.24 1.486-.721 1.943a2.413 2.413 0 01-1.721.684c-1.036 0-1.949-.518-2.738-1.554l-.074-.074c-.247-.345-.53-.536-.851-.573-.32-.038-.617.117-.888.462-.247.222-.45.487-.61.796a9.6 9.6 0 00-.463 1.054v10.323c0 .987.432 1.603 1.295 1.85l1.184.333V27h-9.583zm20.557-20.276c-.839 0-1.548-.265-2.127-.795-.58-.53-.87-1.203-.87-2.017 0-.839.29-1.517.87-2.035.58-.518 1.288-.777 2.127-.777.839 0 1.542.259 2.109.777s.851 1.196.851 2.035c0 .814-.284 1.486-.851 2.017-.567.53-1.27.795-2.109.795zM138.275 27v-.37l.518-.148c.493-.148.832-.37 1.017-.666.186-.296.278-.69.278-1.184V13.051c0-.518-.092-.906-.278-1.165-.185-.26-.524-.438-1.017-.537l-.518-.111v-.37l6.771-2.183.37.37-.111 5.254v10.36c0 .493.092.888.277 1.184.186.296.512.518.981.666l.37.111V27h-8.658zm10.16 0v-.37l.481-.111c.469-.123.839-.34 1.11-.647.271-.309.407-.71.407-1.203 0-.913.006-1.82.018-2.72.013-.9.019-1.806.019-2.719V9.943h-2.072v-.407l.814-.148c.493-.05.851-.222 1.073-.518.222-.296.382-.703.481-1.221.247-.962.61-1.807 1.091-2.534a12.92 12.92 0 011.647-2.017c.937-.888 1.93-1.51 2.978-1.868a9.53 9.53 0 013.09-.537c.987 0 1.887.203 2.701.61.814.408 1.221 1.08 1.221 2.017 0 .666-.197 1.19-.592 1.573-.395.382-.95.573-1.665.573-.592 0-1.135-.16-1.628-.481-.493-.32-.974-.888-1.443-1.702l-.518-.629c-.271-.345-.543-.512-.814-.5-.271.013-.469.216-.592.611a25.21 25.21 0 00-.388 3.034 45.841 45.841 0 00-.13 3.404h4.144v.74h-4.144v14.652c0 .937.493 1.542 1.48 1.813l.925.222V27h-9.694z"/>
    </g>
</svg>
