<?xml version="1.0" encoding="UTF-8"?><svg version="1.1" xmlns="http://www.w3.org/2000/svg" xmlns:xlink="http://www.w3.org/1999/xlink" x="0px" y="0px" viewBox="0 0 1600 1200" style="enable-background:new 0 0 1600 1200;" xml:space="preserve" width="1600px" height="1200px">

<g id="background_grey">
	<g>
		<g>
			<path d="M187.4,884.1c68-33.7,146.2-20.3,217.7-7.6c38.1,6.8,76.1,13.1,114.7,16.3c41.3,3.5,82.8,4.2,124.2,2.2
				c80.1-4,158.8-19.8,237.8-32.9c79-13,159.6-23.2,239.6-13.7c77.9,9.3,153.9,42.2,233.3,35.6c8.9-0.7,17.7-2,26.5-3.8
				c1.9-0.4,1.1-3.3-0.8-2.9c-79.9,16.2-158.4-15.8-236.3-28.7c-78-12.9-157.3-5.8-234.9,6.1c-80.6,12.3-160.5,29.7-241.9,35.8
				c-82.1,6.1-163.8,0.3-244.8-14c-69.3-12.3-144.1-28.5-212.9-5c-8.1,2.8-16,6.1-23.7,9.9C184.2,882.4,185.7,885,187.4,884.1
				L187.4,884.1z" style="fill:#E8E8E8;"/>
		</g>
	</g>
	<g>
		<g>
			<path d="M1128.1,1015.8c-3.7-7.8-24.9-58.2-5.6-57c1.1,0.1,1.6-1,1.4-1.9c-2.5-15.6-2.2-31.6,1-47.2
				c1.5-7.2,3.6-14.2,6.3-21c2.4-6.1,8.1-23.4,17.3-15.3c5.6,5,5,15.8,5.6,22.6c0.6,8,0.9,16,0.9,24.1c-0.1,16.2-1.5,32.4-4.2,48.4
				c-1.5,8.5-3.3,17-5.5,25.3c-1.2,4.5-2.5,8.9-3.8,13.3c-1.3,4-2.3,10.1-6.9,11.6c-1.8,0.6-1,3.5,0.8,2.9c6.4-2.2,7.8-9.8,9.5-15.5
				c2.9-9.4,5.3-19,7.3-28.7c3.8-19.2,5.8-38.8,5.8-58.4c0-10.2-0.5-20.4-1.5-30.5c-0.7-6.4-1.2-14.2-7-18.3
				c-13.9-9.8-21.3,17.1-24,25.8c-6.3,19.9-7.7,40.9-4.4,61.5c0.5-0.6,1-1.3,1.4-1.9c-12-0.7-11.7,13.6-10.2,21.6
				c2.6,13.8,7.1,27.2,13.2,39.9C1126.4,1019.1,1128.9,1017.5,1128.1,1015.8L1128.1,1015.8z" style="fill:#E8E8E8;"/>
		</g>
	</g>
	<g>
		<g>
			<path d="M1158.3,933.5c-0.3-6.8,0.4-13.6,2.3-20.1c0.9-3.2,2.1-6.3,3.5-9.4c0.7-1.4,1.4-2.8,2.2-4.1
				c0.5-0.7,1.1-1.3,1.6-2c3-3,5.5-2.5,7.4,1.6c-0.3,1.9,2.3,2.7,2.9,0.8c2-6.6,5.9-14.8,13.9-15.2c8.5-0.4,10.8,8.2,11.1,15
				c0.7,13.1-1.6,26.5-5,39.1c-7,25.7-19.9,49.4-32.7,72.7c-0.9,1.7,1.7,3.2,2.6,1.5c15.9-29,32.3-59.1,36.9-92.2
				c1-7.4,1.7-15,1.1-22.5c-0.4-5.2-1.8-11-6.2-14.3c-4.2-3.1-9.9-2.8-14.3-0.4c-5.7,3.2-8.6,9.4-10.4,15.4c1,0.3,1.9,0.5,2.9,0.8
				c0.5-3.4-1.4-6.3-4.9-7.1c-3.8-0.9-7.1,1.6-9.2,4.6c-7.1,9.9-9.3,23.9-8.8,35.7C1155.3,935.4,1158.3,935.4,1158.3,933.5
				L1158.3,933.5z" style="fill:#E8E8E8;"/>
		</g>
	</g>
	<g>
		<g>
			<path d="M1087.7,1064.3c43-23.5,94-22,141.1-15.2c51.3,7.4,102.9,21,155,14.5c28.9-3.6,58.2-13.5,87.4-6.6
				c1.9,0.4,2.7-2.4,0.8-2.9c-25.3-6-50.7,0.3-75.7,4.6c-27.1,4.6-54.3,4.2-81.6,0.9c-51.2-6.1-101.7-20.3-153.7-17.6
				c-26,1.3-51.8,7.1-74.8,19.6C1084.5,1062.6,1086,1065.2,1087.7,1064.3L1087.7,1064.3z" style="fill:#E8E8E8;"/>
		</g>
	</g>
	<g>
		<g>
			<path d="M1219.4,995.4c38.3,3.5,75.5-7.7,112.5-16.1c19.5-4.4,39.3-8.2,59.3-8.4c20.9-0.3,41.4,3.9,61.9,7.4
				c21.8,3.8,43.8,6.6,65.8,2.5c1.9-0.4,1.1-3.2-0.8-2.9c-40.9,7.6-80.9-9.4-121.6-10.1c-38.1-0.6-74.8,11.6-111.7,19.3
				c-21.5,4.5-43.3,7.3-65.3,5.3C1217.5,992.3,1217.5,995.3,1219.4,995.4L1219.4,995.4z" style="fill:#E8E8E8;"/>
		</g>
	</g>
	<g>
		<g>
			<path d="M330.4,862.5c-3.5-3.8-6.6-8.1-8.9-12.8c-1.1-2.3-2.1-4.6-2.8-7.1c-0.6-1.9-1.2-3.9-0.8-5.8
				c0.4-2.2,2.8-7.1,6.3-3.9c1.1,1,2.9,0,2.5-1.5c-5.5-19.8-6.8-39.9-8.2-60.3c-1.4-20.3-2.9-41.1,1.1-61.2c1-4.8,1.7-11.8,7.1-13.5
				c6.7-2.2,11.4,4.9,13.3,10.2c3.4,9.2,5.5,19.2,7.7,28.8c4.7,20.4,7.9,41.1,9.8,61.9c2,22.9,2.3,45.9,1,68.8c-0.1,1.9,2.9,1.9,3,0
				c2.7-46.6-1.5-93.6-12.7-138.9c-1.4-5.6-2.8-11.1-4.4-16.6c-1.3-4.4-2.7-8.9-5.6-12.4c-3.9-4.6-11.3-7.1-16.4-2.9
				c-3,2.5-4,6.7-4.8,10.3c-1.2,5.3-2.1,10.6-2.6,16c-1.2,11.5-1,23.1-0.4,34.7c1.4,25.5,2.5,51.4,9.3,76.1c0.8-0.5,1.7-1,2.5-1.5
				c-5.5-5.1-11.8,1.4-11.5,7.4c0.4,9.7,7.2,19.6,13.5,26.4C329.6,866.1,331.7,864,330.4,862.5L330.4,862.5z" style="fill:#E8E8E8;"/>
		</g>
	</g>
	<g>
		<g>
			<path d="M359.7,776.1c-4.1-9.5-1.8-19.7,0.7-29.3c2.2-8.7,4.4-17.2,4.4-26.2c0.1-10.2-0.6-20.1,2-30.1
				c1.2-4.6,2.9-9,5-13.3c0.9-1.8,2-4.7,3.5-6c4.5-4,6.8,3.4,7.8,6.2c6.8,18.7,8,38.9,8.3,58.6c0.4,20.7-0.2,41.4-1.7,62
				c-1.7,23.7-4.7,47.3-8.8,70.8c-0.3,1.9,2.6,2.7,2.9,0.8c8.3-47,12.1-95,10.3-142.6c-0.4-11-1.3-22.1-3.5-32.9
				c-1-5.3-2.4-10.6-4.1-15.7c-1.2-3.5-2.4-8.3-5.6-10.6c-7-5.1-11.7,7.4-13.6,11.9c-3.9,9.1-5.8,18.8-5.8,28.7
				c0,6.6,0.5,13.2-0.2,19.8c-0.7,6.4-2.6,12.5-4.1,18.7c-2.6,10.3-4.5,20.7-0.2,30.8C357.9,779.3,360.5,777.8,359.7,776.1
				L359.7,776.1z" style="fill:#E8E8E8;"/>
		</g>
	</g>
	<g>
		<g>
			<path d="M224.1,642.8c57-42.5,115.2-85.3,181.3-112.9c32.6-13.6,67.1-23.1,102.4-25.9c39-3.1,78.2,2.1,116,11.9
				c77.2,20.2,147.3,59.2,220.3,90.2c70.7,30.1,144.8,49.8,220.4,62.7c75.7,12.9,152.3,19.6,228.8,25.5c9.5,0.7,19,1.5,28.5,2.2
				c1.9,0.1,1.9-2.9,0-3c-78.3-5.9-156.7-11.9-234.3-24c-76.7-11.9-152.8-29.8-224.9-58.9c-73.2-29.5-142.4-68.8-218.1-91.9
				c-36.8-11.2-75-18.6-113.6-18.6c-35.5,0-70.6,6.8-104,18.4c-67.1,23.4-126.5,64.3-183.3,106.1c-7,5.2-14,10.4-21,15.6
				C221,641.4,222.5,644,224.1,642.8L224.1,642.8z" style="fill:#E8E8E8;"/>
		</g>
	</g>
	<g>
		<g>
			<path d="M1086.9,667c61.3,1.3,120.5-16.5,179.3-31.5c30.2-7.7,60.6-14.8,91.6-18.1c30.9-3.4,62.1-2.6,92.7,3.2
				c34.6,6.5,67.9,19.1,98.2,36.9c1.7,1,3.2-1.6,1.5-2.6c-52.9-31-114.5-45.8-175.7-41.9c-62.4,3.9-121.9,24.4-182.5,38.2
				c-34.5,7.9-69.7,13.6-105.2,12.9C1085,664,1085,667,1086.9,667L1086.9,667z" style="fill:#E8E8E8;"/>
		</g>
	</g>
	<g>
		<g>
			<path d="M1405.1,874.8c42.8-6.5,86.5-6.7,129.4-0.4c1.9,0.3,2.7-2.6,0.8-2.9c-43.5-6.3-87.5-6.1-131,0.4
				C1402.4,872.2,1403.2,875,1405.1,874.8L1405.1,874.8z" style="fill:#E8E8E8;"/>
		</g>
	</g>
	<g>
		<g>
			<path d="M88.3,783.1c32.3-39.2,67.3-76.2,104.7-110.5c1.4-1.3-0.7-3.4-2.1-2.1c-37.5,34.3-72.5,71.2-104.7,110.5
				C85,782.5,87.1,784.6,88.3,783.1L88.3,783.1z" style="fill:#E8E8E8;"/>
		</g>
	</g>
	<g>
		<g>
			<path d="M1250.3,238.1c-13.5,4.7-24.1-6.6-30.7-16.9c-6.5-10-11.2-20.9-11.2-33.1c0.1-22.9,15.4-43,36.6-51
				c19.6-7.3,43.5-3.4,58.7,11.4c15.7,15.3,19.7,39.1,9.8,58.5c-2.8,5.5-6.4,10.7-10,15.7c-2.1,2.9-4.1,6.1-7,8.4
				c-3.4,2.6-7.2,3.1-11.3,3.6c-14,1.7-28.1,3.2-42.2,4.8c-1.9,0.2-1.9,3.2,0,3c15.2-1.7,30.7-2.8,45.8-5.2
				c12.3-2,18.9-14.4,24.7-24.3c11.8-20.1,10.9-44.6-4.3-62.8c-15.1-18.1-41.7-24-63.7-16.5c-22.1,7.6-38.6,27.5-40.1,51.1
				c-0.9,14.9,5,28.6,13.3,40.6c7.2,10.4,18.7,20.2,32.2,15.5C1252.9,240.4,1252.1,237.5,1250.3,238.1L1250.3,238.1z" style="fill:#E8E8E8;"/>
		</g>
	</g>
	<g>
		<g>
			<path d="M336.8,275.7c-4.2-10.3,6.8-18.7,16.1-19.4c9.9-0.7,19.4,3.5,29,5.3c18.1,3.5,36.7,2.1,54.2-3.7
				c16.8-5.6,33.2-14.8,51.3-15.2c18.6-0.3,35.2,10.7,54,8.4c9.1-1.1,17.9-4,27.1-4.7c8.5-0.7,21.3,0.9,24.3,10.6
				c3,9.7-10.6,17.8-17.8,21.3c-8,3.9-16.9,6-25.7,6.1c-9.4,0-17.8-2.8-26.6-5.7c-8.1-2.7-16.1-4.3-24.6-4.1
				c-16.2,0.3-31.8,5.5-47.3,9.8c-9.6,2.7-19.4,5.2-29.4,6c-10.3,0.8-19.7-1-29.6-3.4c-9.8-2.4-18.4-1.5-28.3-0.1
				c-5.9,0.8-12.1,1.3-17.6-1.6c-4.9-2.6-8.9-7.2-7.7-13.1c0.4-1.9-2.5-2.7-2.9-0.8c-1.5,6.9,2.5,12.7,8.5,16.1
				c8.1,4.6,17.1,2.7,25.9,1.4c6.1-0.9,11.8-1.1,17.9,0.1c5.4,1.1,10.7,2.9,16.2,3.8c8.6,1.4,17.3,0.9,25.9-0.4
				c19.6-3.2,38.1-11.1,57.7-13.9c10.5-1.5,20.9-1.1,31.1,2c9.5,2.9,18.5,6.6,28.5,6.9c16.1,0.6,37.2-5.8,46.6-19.8
				c4.2-6.3,2.9-13.6-2.8-18.4c-6.3-5.5-15.1-6.4-23.1-5.6c-10.3,1-20.2,4.5-30.5,5c-11.5,0.6-22.1-3.8-33.1-6.6
				c-20.5-5.2-38.5,1.5-57.5,8.9c-11.6,4.5-23.2,8.2-35.7,9.3c-13.6,1.2-26.6-0.8-39.8-4.2c-9.4-2.4-20.2-4.9-29,0.6
				c-6.7,4.2-11.3,12.1-8.2,19.9C334.6,278.2,337.5,277.5,336.8,275.7L336.8,275.7z" style="fill:#E8E8E8;"/>
		</g>
	</g>
	<g>
		<g>
			<path d="M1172.9,440.8c14.4-14,35.3-13.8,54.1-12c22,2.1,43.3,4.9,65.5,2.5c11.4-1.3,22.5-3.7,33.6-6.6
				c11.6-3,23.5-6.2,35.7-5.8c12.3,0.4,23.8,5.3,35.9,7c11,1.5,22.1,0.2,33-1.9c9.8-1.8,19.5-4.8,29.6-4.3c8.9,0.4,19.8,4.9,19,15.7
				c-0.8,10.1-12.2,17.1-21.3,18.6c-11.6,1.8-23.4-2.4-34.9-3.3c-21.6-1.7-37.9,12.8-58.4,16.5c-21.6,3.9-41.9-8-62.4-12.4
				c-25.2-5.3-49.1,5.7-73.7,9.7c-12.3,2-26.6,4.7-39,2.2c-6.1-1.3-11.9-4.3-14.9-10c-2.7-5.3-2.8-11.7,1.7-16
				c1.4-1.3-0.7-3.5-2.1-2.1c-5.8,5.5-5.5,14.2-1.5,20.8c4.8,7.9,14,10.6,22.7,11.1c25.6,1.5,50.6-7.2,75.2-12.4
				c13.7-2.9,26.3-1.9,39.7,1.9c11.2,3.2,22,7.6,33.5,9.7c10.9,2,21.4,1.4,31.8-2.4c10.9-3.9,21.1-10,32.5-12.6
				c21.6-4.9,45.9,11,65.3-4.2c6.5-5.1,11-13.3,7.9-21.5c-2.7-7.1-9.6-10.6-16.7-11.6c-9.2-1.4-18.1,0.6-27.1,2.5
				c-14.3,3-28.9,5.4-43.5,2.6c-12.6-2.4-24.5-6.9-37.6-6.3c-12.4,0.6-24.4,4.2-36.4,7.2c-15.2,3.8-30.7,6-46.4,6.3
				c-13.6,0.2-27-1.5-40.5-3c-21.3-2.4-45.6-3.9-62.2,12.2C1169.4,440,1171.5,442.1,1172.9,440.8L1172.9,440.8z" style="fill:#E8E8E8;"/>
		</g>
	</g>
	<g>
		<g>
			<path d="M521.6,1120.7c-4.5-4.1-8.4-8.7-11.6-13.9c-1.5-2.4-2.9-5-4-7.6c-0.6-1.5-1.6-3.7-1.4-5.4
				c0.3-2.9,3.1-7.3,6.5-4.6c1.3,1.1,3.2-0.2,2.4-1.8c-3.8-7.4-6.1-15.9-5.7-24.3c0.1-1.6,0.3-3.1,0.9-4.6c0.5-1.3,1.2-2.5,2.1-3.6
				c1.8-1.8,3.4-1.8,4.8,0.2c3.7,2.7,5.2,7.9,6.9,12c6.1,14.6,10.6,29.8,13.7,45.3c1-0.3,1.9-0.5,2.9-0.8
				c-2.7-7.5-4.8-15.2-6.1-23.1c-0.9-5.6-2.5-24.2,9-18c7.4,4,8.8,15.9,8.8,23.4c0.1,8.3-1.5,16.4-3.1,24.5
				c-0.4,1.9,2.5,2.7,2.9,0.8c2-10.3,4.1-21,2.8-31.6c-1-7.7-4.4-20-13.7-21.2c-7.4-0.9-10.4,6.6-10.6,12.7
				c-0.4,11.1,3.4,23.1,7.1,33.4c0.7,1.8,3.3,1.1,2.9-0.8c-2.3-11.6-5.5-23.1-9.5-34.2c-1.8-5-3.7-9.9-5.9-14.8
				c-1.6-3.7-3.2-9-7.1-11.1c-6.2-3.4-10.6,3.5-11.6,8.7c-1.8,9.5,1.5,20.4,5.7,28.8c0.8-0.6,1.6-1.2,2.4-1.8
				c-6.1-5.1-12.3,2.2-11.4,8.6c1.5,10.2,10.5,20.3,17.7,27.1C520.9,1124.1,523,1122,521.6,1120.7L521.6,1120.7z" style="fill:#E8E8E8;"/>
		</g>
	</g>
	<g>
		<g>
			<path d="M401.2,368c22.2-4.5,44.8-9,67.6-7c21.9,1.9,42.6,9.7,63.8,15.1c41.4,10.4,84.3,14.1,126.9,14
				c24.4-0.1,48.7-1.3,73-3.3c1.9-0.2,1.9-3.2,0-3c-43.4,3.4-87.2,4.8-130.7,0.8c-22.1-2-44.1-5.5-65.7-10.7
				c-20.6-5-40.6-12.5-61.7-15.2c-24.9-3.2-49.7,1.6-74,6.5C398.5,365.5,399.3,368.4,401.2,368L401.2,368z" style="fill:#E8E8E8;"/>
		</g>
	</g>
	<g>
		<g>
			<path d="M635.2,368.2c73.4-3.8,144.7-28.8,218.7-24.2c1.9,0.1,1.9-2.9,0-3c-73.9-4.6-145.3,20.5-218.7,24.2
				C633.2,365.3,633.2,368.3,635.2,368.2L635.2,368.2z" style="fill:#E8E8E8;"/>
		</g>
	</g>
	<g>
		<g>
			<path d="M1239.1,867.4c-2.9-7.3-4.4-15-4.3-22.9c0-4,0.5-8,1.4-11.9c0.8-3.6,4.8-12.9,9.4-7c0.8,1,2.7,0.2,2.6-1.1
				c-1-8.6-0.8-17.2,0.8-25.7c0.7-3.7,1.7-7.4,3-11c0.8-2.2,1.6-4.6,2.7-6.7c1.6-3,3.4-3.8,6.4-5.3c5.4-2.5,5.5-9,6.8-14.2
				c1.8-7.1,3.9-14.3,8-20.4c2.4-3.6,6.9-9.4,11.8-8.1c3.9,1,5.3,5.2,6,8.8c1.6,7.9,0.5,16.7,0.1,24.7c-0.9,17.7-3.2,35.4-6.8,52.7
				c-4,19-9.7,37.6-16.8,55.7c-0.7,1.8,2.2,2.6,2.9,0.8c14.8-37.4,23.1-77.3,24.1-117.6c0.2-7.8,1.2-33.8-14.2-27.8
				c-6.5,2.6-10.9,10.5-13.5,16.6c-1.5,3.5-2.6,7.1-3.6,10.7c-1.5,5.5-1.5,12.3-6.8,15.5c-3.1,1.9-5.1,2.7-6.9,6.3
				c-2.1,4.1-3.6,8.8-4.8,13.3c-2.7,10.3-3.4,21-2.1,31.6c0.9-0.4,1.7-0.7,2.6-1.1c-2-2.5-5.3-3.1-8.2-1.8
				c-3.9,1.8-5.3,6.3-6.2,10.1c-2.8,12.1-1.6,24.8,2.9,36.4C1236.9,870,1239.8,869.2,1239.1,867.4L1239.1,867.4z" style="fill:#E8E8E8;"/>
		</g>
	</g>
	<g>
		<g>
			<path d="M1210.7,862.2c-4.3-6.7-8.5-13.7-10.7-21.5c-1-3.6-1.6-7.3-1.4-11c0.3-4.1,2-7.3,3.4-11.1
				c2.2-6.1-1.3-11.9-2.7-17.8c-0.7-2.8-4.8-27.7,4-24.3c1.1,0.4,2.1-0.8,1.8-1.8c-2.9-12.9-5.9-26.6-1.8-39.5
				c1.8-5.7,9.1-20.5,16.6-13.7c4.6,4.2,7.2,12,9.3,17.6c9.2,25.3,13.2,53.4,15,80.2c0.1,1.9,3.1,1.9,3,0c-1.2-17.5-3.6-34.9-7.3-52
				c-3.2-15-6.7-31.7-15.4-44.7c-2.7-4-6.6-7.4-11.7-5.3c-5.4,2.2-9.1,8.8-11.2,13.8c-5.9,14.3-2.6,29.9,0.6,44.5
				c0.6-0.6,1.2-1.2,1.8-1.8c-5.3-2.1-8.5,3.9-9.3,8.4c-1.6,10,2.1,19.3,4.4,28.8c1.4,5.8-2.1,9.9-3.1,15.3
				c-0.8,3.8-0.6,7.6,0.1,11.4c1.7,9.5,6.9,18.2,12,26.3C1209.1,865.3,1211.7,863.8,1210.7,862.2L1210.7,862.2z" style="fill:#E8E8E8;"/>
		</g>
	</g>
	<g>
		<g>
			<path d="M1291,811.9c2.7-9.3,5.5-18.6,11.2-26.5c5.5-7.6,11.9-14.8,18-21.9c3.2-3.6,6.4-7.2,9.9-10.5
				c1.8-1.7,3.6-3.5,5.9-4.7c4.5-2.4,7.5,0.7,8.7,4.8c2.7,9.4,0.5,19.6-1.9,28.9c-9.2,35.2-25.2,68.5-46.6,98
				c-1.1,1.6,1.5,3.1,2.6,1.5c19.7-27.1,34.7-57.4,44.3-89.5c2.3-7.7,4.6-15.6,5.4-23.6c0.7-6.5,0.9-15.5-3-21.1
				c-8.2-11.6-25.2,11.5-29.7,16.8c-5.8,6.8-12,13.6-17.1,21c-5.3,7.8-8,16.9-10.6,25.9C1287.5,812.9,1290.4,813.7,1291,811.9
				L1291,811.9z" style="fill:#E8E8E8;"/>
		</g>
	</g>
	<g>
		<g>
			<path d="M1285.2,734.3c-3.8,46.6-13.8,92.4-29.7,136.3c-0.7,1.8,2.2,2.6,2.9,0.8c16-44.2,26-90.3,29.8-137.1
				C1288.3,732.4,1285.3,732.4,1285.2,734.3L1285.2,734.3z" style="fill:#E8E8E8;"/>
		</g>
	</g>
	<g>
		<g>
			<path d="M1258,774.6c5.4,20.3,8.2,41,8.4,62c0,1.9,3,1.9,3,0c-0.2-21.2-3-42.3-8.5-62.8
				C1260.4,771.9,1257.5,772.7,1258,774.6L1258,774.6z" style="fill:#E8E8E8;"/>
		</g>
	</g>
	<g>
		<g>
			<path d="M1271.6,751.9c3.5,13.8,5.2,27.9,5.3,42.1c0,1.9,3,1.9,3,0c-0.1-14.5-1.9-28.9-5.4-42.9
				C1274,749.2,1271.1,750,1271.6,751.9L1271.6,751.9z" style="fill:#E8E8E8;"/>
		</g>
	</g>
	<g>
		<g>
			<path d="M1263.1,859.8c7.7-6,14.6-12.9,20.6-20.5c1.2-1.5-0.9-3.6-2.1-2.1c-6.1,7.7-12.9,14.5-20.6,20.5
				C1259.5,858.9,1261.6,861,1263.1,859.8L1263.1,859.8z" style="fill:#E8E8E8;"/>
		</g>
	</g>
	<g>
		<g>
			<path d="M1211,719.9c8.7,36.3,15.5,73,20.2,110c0.2,1.9,3.2,1.9,3,0c-4.8-37.3-11.6-74.3-20.3-110.8
				C1213.5,717.2,1210.6,718,1211,719.9L1211,719.9z" style="fill:#E8E8E8;"/>
		</g>
	</g>
	<g>
		<g>
			<path d="M1199.1,754.3c8.8,5.3,16.3,12.1,22.3,20.5c1.1,1.6,3.7,0.1,2.6-1.5c-6.3-8.8-14.1-16-23.3-21.5
				C1198.9,750.7,1197.4,753.3,1199.1,754.3L1199.1,754.3z" style="fill:#E8E8E8;"/>
		</g>
	</g>
	<g>
		<g>
			<path d="M1237.4,775.2c-3.6,9-6.5,18.2-8.7,27.7c-0.4,1.9,2.4,2.7,2.9,0.8c2.2-9.4,5.1-18.7,8.7-27.7
				C1241,774.2,1238.1,773.4,1237.4,775.2L1237.4,775.2z" style="fill:#E8E8E8;"/>
		</g>
	</g>
	<g>
		<g>
			<path d="M1198.9,820.6c11,3.1,21.7,6.7,32.3,10.9c1.8,0.7,2.6-2.2,0.8-2.9c-10.6-4.2-21.4-7.8-32.3-10.9
				C1197.8,817.2,1197,820.1,1198.9,820.6L1198.9,820.6z" style="fill:#E8E8E8;"/>
		</g>
	</g>
	<g>
		<g>
			<path d="M1339.8,749.2c-13.3,46.3-50.1,81.8-61.9,128.7c-0.5,1.9,2.4,2.7,2.9,0.8c11.8-46.9,48.6-82.4,61.9-128.7
				C1343.3,748.1,1340.4,747.3,1339.8,749.2L1339.8,749.2z" style="fill:#E8E8E8;"/>
		</g>
	</g>
	<g>
		<g>
			<path d="M1313,768.7c-2.5,16.2-5.1,32.4-7.6,48.6c-0.3,1.9,2.6,2.7,2.9,0.8c2.5-16.2,5.1-32.4,7.6-48.6
				C1316.2,767.6,1313.3,766.8,1313,768.7L1313,768.7z" style="fill:#E8E8E8;"/>
		</g>
	</g>
	<g>
		<g>
			<path d="M1316,804.3c8.9-6.4,18.2-12.2,27.9-17.5c1.7-0.9,0.2-3.5-1.5-2.6c-9.7,5.2-19,11-27.9,17.5
				C1312.9,802.9,1314.4,805.5,1316,804.3L1316,804.3z" style="fill:#E8E8E8;"/>
		</g>
	</g>
	<g>
		<g>
			<path d="M1287.3,862.3c9.1-10.7,22.1-16.1,34.9-21.2c1.8-0.7,1-3.6-0.8-2.9c-13.2,5.3-26.7,10.9-36.2,22
				C1283.9,861.7,1286,863.8,1287.3,862.3L1287.3,862.3z" style="fill:#E8E8E8;"/>
		</g>
	</g>
	<g>
		<g>
			<path d="M1142,871.8c3.7,23.4,0.6,46.9-2.9,70.2c-3.4,22.9-6.8,45.9-10.2,68.8c-0.3,1.9,2.6,2.7,2.9,0.8
				c3.6-24.2,7.3-48.4,10.8-72.6c3.3-22.5,5.9-45.3,2.3-67.9C1144.5,869.1,1141.7,869.9,1142,871.8L1142,871.8z" style="fill:#E8E8E8;"/>
		</g>
	</g>
	<g>
		<g>
			<path d="M1122.5,914.5c3.4,14,8,27.6,13.8,40.8c0.8,1.8,3.4,0.2,2.6-1.5c-5.6-13-10.1-26.3-13.5-40.1
				C1124.9,911.9,1122,912.7,1122.5,914.5L1122.5,914.5z" style="fill:#E8E8E8;"/>
		</g>
	</g>
	<g>
		<g>
			<path d="M1152.6,886.1c-1.4,9.1-4.7,17.4-9.9,24.9c-1.1,1.6,1.5,3.1,2.6,1.5c5.3-7.7,8.8-16.4,10.2-25.7
				C1155.7,885,1152.8,884.2,1152.6,886.1L1152.6,886.1z" style="fill:#E8E8E8;"/>
		</g>
	</g>
	<g>
		<g>
			<path d="M1193.9,887.6c-12.3,42.7-28,84.3-46.8,124.6c-0.8,1.7,1.8,3.3,2.6,1.5c18.9-40.5,34.7-82.4,47.1-125.3
				C1197.3,886.6,1194.4,885.8,1193.9,887.6L1193.9,887.6z" style="fill:#E8E8E8;"/>
		</g>
	</g>
	<g>
		<g>
			<path d="M1186,885.8c-0.4,9.7-0.7,19.3-1.1,29c-0.1,1.9,2.9,1.9,3,0c0.4-9.7,0.7-19.3,1.1-29
				C1189.1,883.9,1186.1,883.9,1186,885.8L1186,885.8z" style="fill:#E8E8E8;"/>
		</g>
	</g>
	<g>
		<g>
			<path d="M1163.8,898.8c-5.4,22.6,0,46.2,3.2,68.8c0.3,1.9,3.2,1.1,2.9-0.8c-3.1-22-8.4-45.1-3.2-67.2
				C1167.2,897.7,1164.3,896.9,1163.8,898.8L1163.8,898.8z" style="fill:#E8E8E8;"/>
		</g>
	</g>
	<g>
		<g>
			<path d="M1159.4,990.9c9.7-2.4,18.7-6.5,26.8-12.3c1.6-1.1,0.1-3.7-1.5-2.6c-7.9,5.6-16.6,9.6-26.1,12
				C1156.7,988.4,1157.5,991.3,1159.4,990.9L1159.4,990.9z" style="fill:#E8E8E8;"/>
		</g>
	</g>
	<g>
		<g>
			<path d="M325.9,697.7c10.1,54.6,16.4,109.9,18.7,165.3c0.1,1.9,3.1,1.9,3,0c-2.3-55.8-8.6-111.3-18.8-166.1
				C328.4,695,325.5,695.8,325.9,697.7L325.9,697.7z" style="fill:#E8E8E8;"/>
		</g>
	</g>
	<g>
		<g>
			<path d="M315,761.1c10.6,13.3,19.1,28,25.3,43.8c0.7,1.8,3.6,1,2.9-0.8c-6.4-16.3-15.1-31.4-26-45.1
				C316,757.5,313.8,759.6,315,761.1L315,761.1z" style="fill:#E8E8E8;"/>
		</g>
	</g>
	<g>
		<g>
			<path d="M345,724.4c-3.6,14.9-6.3,30-8.2,45.2c-0.2,1.9,2.8,1.9,3,0c1.8-14.9,4.5-29.7,8.1-44.4
				C348.3,723.3,345.4,722.5,345,724.4L345,724.4z" style="fill:#E8E8E8;"/>
		</g>
	</g>
	<g>
		<g>
			<path d="M376.4,670.7c1.8,65.3-1.4,130.6-9.6,195.4c-0.2,1.9,2.8,1.9,3,0c8.2-64.8,11.4-130.1,9.6-195.4
				C379.3,668.8,376.3,668.8,376.4,670.7L376.4,670.7z" style="fill:#E8E8E8;"/>
		</g>
	</g>
	<g>
		<g>
			<path d="M359.6,739.4c7.2,17.1,12.2,35,14.9,53.4c0.3,1.9,3.2,1.1,2.9-0.8c-2.7-18.4-7.7-36.3-14.9-53.4
				C361.7,736.9,358.8,737.6,359.6,739.4L359.6,739.4z" style="fill:#E8E8E8;"/>
		</g>
	</g>
	<g>
		<g>
			<path d="M371.1,852.5c4.3-8.4,10-15.7,17-22c1.4-1.3-0.7-3.4-2.1-2.1c-7.2,6.4-13.1,14-17.5,22.6
				C367.6,852.7,370.2,854.2,371.1,852.5L371.1,852.5z" style="fill:#E8E8E8;"/>
		</g>
	</g>
	<g>
		<g>
			<path d="M366.8,681.8c2.6,8.3,5.5,16.4,8.7,24.5c0.7,1.8,3.6,1,2.9-0.8c-3.3-8-6.2-16.2-8.7-24.5
				C369.1,679.1,366.2,679.9,366.8,681.8L366.8,681.8z" style="fill:#E8E8E8;"/>
		</g>
	</g>
	<g>
		<g>
			<path d="M152,1075.8c65.6-6.4,132-4.4,197,6.2c18.3,3,36.6,6.7,54.7,11c1.9,0.4,2.7-2.4,0.8-2.9
				c-64.1-15.3-130-22.3-195.9-20.8c-18.9,0.5-37.8,1.6-56.6,3.5C150.1,1072.9,150,1075.9,152,1075.8L152,1075.8z" style="fill:#E8E8E8;"/>
		</g>
	</g>
	<g>
		<g>
			<path d="M740,1104.5c0.1-4.3,10.8-5.1,13.4-4.8c4.4,0.4,8.6,2.7,11,6.4c7.9,12.2-8.1,17.1-17.3,14.1
				c-1.8-0.6-2.6,2.3-0.8,2.9c6.4,2.2,14.9,1.9,20.1-3.2c4.4-4.3,3.5-11.2,0.2-15.9c-3.7-5.2-9.8-7.8-16.1-7.4
				c-4.4,0.3-13.4,2.3-13.5,7.9C737,1106.4,740,1106.4,740,1104.5L740,1104.5z" style="fill:#E8E8E8;"/>
		</g>
	</g>
	<g>
		<g>
			<path d="M739.5,1102.9c6.4-9,19.8-13.1,29.8-16.3c11.1-3.5,22.6-5.6,34.3-6.2c1.9-0.1,1.9-3.1,0-3
				c-13.1,0.7-26.1,3.1-38.5,7.4c-10,3.5-21.8,7.6-28.2,16.6C735.8,1103,738.4,1104.5,739.5,1102.9L739.5,1102.9z" style="fill:#E8E8E8;"/>
		</g>
	</g>
	<g>
		<g>
			<path d="M805.1,1080.8c7.7,0.9,13.9,6.9,15.4,14.4c0.4,1.9,3.3,1.1,2.9-0.8c-1.8-9-9.3-15.5-18.3-16.6
				C803.1,1077.6,803.2,1080.6,805.1,1080.8L805.1,1080.8z" style="fill:#E8E8E8;"/>
		</g>
	</g>
	<g>
		<g>
			<path d="M808.8,1077.7c11.2-7,22.1,2,24.4,13.3c0.4,1.9,3.3,1.1,2.9-0.8c-2.8-13.3-16-23.1-28.8-15.1
				C805.7,1076.2,807.2,1078.8,808.8,1077.7L808.8,1077.7z" style="fill:#E8E8E8;"/>
		</g>
	</g>
	<g>
		<g>
			<path d="M821.2,1097.3c6.2,2,12.8-1.5,15-7.5c0.7-1.8-2.2-2.6-2.9-0.8c-1.6,4.5-6.8,6.9-11.3,5.4
				C820.1,1093.8,819.3,1096.7,821.2,1097.3L821.2,1097.3z" style="fill:#E8E8E8;"/>
		</g>
	</g>
	<g>
		<g>
			<path d="M739.1,1101.4c-5.2,3-4.9,10.1-2.9,15c2.2,5.6,7.6,9.3,13.7,7.8c1.9-0.5,1.1-3.3-0.8-2.9
				c-4.7,1.1-8.5-1.9-10.1-6.1c-1.3-3.4-2.2-9,1.7-11.2C742.3,1103,740.8,1100.4,739.1,1101.4L739.1,1101.4z" style="fill:#E8E8E8;"/>
		</g>
	</g>
	<g>
		<g>
			<path d="M740.5,1112.8c-3-8.1,11.6-13,16.7-8.4c3.2,2.9,2.4,7.5-1,9.9c-1.5,1.1-3.4,1.9-5.3,1.5
				c-6.7-1.3-1.2-9,2.1-4.6c1.2,1.5,3.8,0,2.6-1.5c-3.9-5.1-12.5-2.5-10.9,4.4c1.7,7.6,12.5,4.9,15.8,0.2c4.6-6.6-0.4-14.6-8-14.7
				c-7.2-0.1-18.1,5.1-14.8,13.9C738.3,1115.4,741.2,1114.6,740.5,1112.8L740.5,1112.8z" style="fill:#E8E8E8;"/>
		</g>
	</g>
	<g>
		<g>
			<path d="M764.4,1120.6c21-4.5,41-12.2,59.6-22.9c1.7-1,0.2-3.6-1.5-2.6c-18.4,10.6-38.2,18.1-58.9,22.6
				C761.7,1118.1,762.5,1121,764.4,1120.6L764.4,1120.6z" style="fill:#E8E8E8;"/>
		</g>
	</g>
	<g>
		<g>
			<path d="M820.8,1073c17-14.3,34-31.3,55.8-37.8c1.8-0.6,1.1-3.4-0.8-2.9c-22.3,6.7-39.7,24-57.1,38.6
				C817.2,1072.1,819.4,1074.2,820.8,1073L820.8,1073z" style="fill:#E8E8E8;"/>
		</g>
	</g>
	<g>
		<g>
			<path d="M876.4,1036.3c11.2,3.8,19.3,13.8,20.5,25.6c0.2,1.9,3.2,1.9,3,0c-1.3-13.2-10.1-24.3-22.7-28.5
				C875.4,1032.8,874.6,1035.7,876.4,1036.3L876.4,1036.3z" style="fill:#E8E8E8;"/>
		</g>
	</g>
	<g>
		<g>
			<path d="M835.9,1092.7c20.5-9.1,40.9-18.6,61.1-28.5c1.7-0.8,0.2-3.4-1.5-2.6c-20.2,9.9-40.6,19.3-61.1,28.5
				C832.6,1090.9,834.2,1093.5,835.9,1092.7L835.9,1092.7z" style="fill:#E8E8E8;"/>
		</g>
	</g>
	<g>
		<g>
			<path d="M807.9,1079.1c0.7-0.5,1.4-0.9,2-1.4c0.7-0.5,1-1.3,0.5-2.1c-0.4-0.7-1.4-1-2.1-0.5c-0.7,0.5-1.4,0.9-2,1.4
				c-0.7,0.5-1,1.3-0.5,2.1C806.2,1079.2,807.2,1079.6,807.9,1079.1L807.9,1079.1z" style="fill:#E8E8E8;"/>
		</g>
	</g>
	<g>
		<g>
			<path d="M511.2,1054.3c1.9,22.4,6.9,44.3,15,65.2c0.7,1.8,3.6,1,2.9-0.8c-8-20.7-13.1-42.3-14.9-64.4
				C514.1,1052.4,511.1,1052.4,511.2,1054.3L511.2,1054.3z" style="fill:#E8E8E8;"/>
		</g>
	</g>
	<g>
		<g>
			<path d="M506,1099.2c6.2,3.2,11.7,7.4,16.6,12.5c1.3,1.4,3.4-0.7,2.1-2.1c-5-5.3-10.7-9.6-17.2-12.9
				C505.8,1095.7,504.3,1098.3,506,1099.2L506,1099.2z" style="fill:#E8E8E8;"/>
		</g>
	</g>
	<g>
		<g>
			<path d="M527.9,1084.2c-4.3,6.2-6.2,13.4-5.5,20.9c0.2,1.9,3.2,1.9,3,0c-0.6-7,1.1-13.5,5.1-19.4
				C531.5,1084.2,528.9,1082.7,527.9,1084.2L527.9,1084.2z" style="fill:#E8E8E8;"/>
		</g>
	</g>
	<g>
		<g>
			<path d="M536.8,1075.9c2.9,12.4,3.8,25,2.5,37.7c-0.2,1.9,2.8,1.9,3,0c1.2-12.9,0.3-25.8-2.7-38.5
				C539.3,1073.3,536.4,1074.1,536.8,1075.9L536.8,1075.9z" style="fill:#E8E8E8;"/>
		</g>
	</g>
	<g>
		<g>
			<path d="M532.4,1080.3c2.4,4.6,4.8,9.3,7.2,13.9c0.9,1.7,3.5,0.2,2.6-1.5c-2.4-4.6-4.8-9.3-7.2-13.9
				C534.1,1077.1,531.5,1078.6,532.4,1080.3L532.4,1080.3z" style="fill:#E8E8E8;"/>
		</g>
	</g>
</g>
<g id="backround">
	<circle cx="591.6" cy="436.8" r="16.9" style="fill:#EC615B;"/>
	<circle cx="1136.2" cy="801.6" r="12.2" style="fill:#EC615B;"/>
	<circle cx="1154" cy="785.2" r="5" style="fill:#EC615B;"/>
	<circle cx="345.3" cy="478" r="8.6" style="fill:#EC615B;"/>
	<circle cx="377.7" cy="495.8" r="9.4" style="fill:#5222D0;"/>
	<circle cx="674" cy="709.1" r="5.2" style="fill:#5222D0;"/>
	<circle cx="1079.5" cy="214.8" r="9" style="fill:#5222D0;"/>
	<circle cx="1119.5" cy="248" r="6.8" style="fill:#5222D0;"/>
	<circle cx="1112.5" cy="756.6" r="7" style="fill:#5222D0;"/>
	<circle cx="644" cy="219.3" r="4.5" style="fill:#5222D0;"/>
	<g>
		<g>
			<path d="M533.1,599.4c-1.2-1.6,0-4.4,1.5-5.3c1.9-1.2,4.5-0.6,6.5-0.1c2.1,0.5,4,1.5,6,2c2.6,0.7,5.5,1,8.1,0
				c2.8-1.1,4.2-3.3,4.8-6.1c0.6-2.4,0.4-5.4,2.4-7.3c1.9-1.9,4.9-2.1,7.4-2.1c6.4,0.1,12.7,3.7,16.2-3.7c1.8-4,2.1-8.4,6.5-10.7
				c5.3-2.8,11.7-0.4,16.9,1.4c1.8,0.6,2.6-2.2,0.8-2.9c-7.9-2.8-19.3-5.4-24.2,3.9c-0.8,1.6-1.3,3.4-1.9,5
				c-0.6,1.5-1.3,4.1-2.9,4.8c-1.8,0.8-5.1-0.1-7-0.4c-3.7-0.5-7.6-0.9-11.2,0.7c-3.6,1.7-4.8,4.6-5.5,8.4
				c-1.8,10.1-9.8,5.4-16.4,3.8c-3.6-0.9-7.5-0.6-10,2.4c-1.9,2.3-2.4,5.2-0.6,7.6C531.6,602.5,534.2,601,533.1,599.4L533.1,599.4z" style="fill:#5222D0;"/>
		</g>
	</g>
	<g>
		<g>
			<path d="M556.3,615.6c1-5.8,5.5-9,11.3-8.7c3.2,0.1,6.7,1.2,9.9,0.2c2.2-0.7,3.9-2.2,4.8-4.3
				c2.1-4.6,2.1-8.5,6.6-11.9c3.8-2.9,8.3-3.8,12.9-2.7c2.9,0.7,6,2,9,0.9c3.2-1.2,4.7-4.9,7.6-6.8c3.7-2.4,8.2-3.2,12.4-3.9
				c1.9-0.3,1.1-3.2-0.8-2.9c-3.9,0.7-7.8,1.5-11.3,3.2c-1.6,0.8-3,1.7-4.3,2.9c-2.6,2.4-3.7,4.8-8,4.6c-3.7-0.1-6.6-1.9-10.5-1.4
				c-3.5,0.5-6.8,2-9.5,4.2c-2.5,2.1-4.5,4.8-5.5,8c-1.1,3.3-1.8,7.3-6.3,7.4c-2.1,0.1-4.2-0.4-6.3-0.5c-7.3-0.6-13.6,3.4-14.9,10.8
				C553.1,616.7,555.9,617.5,556.3,615.6L556.3,615.6z" style="fill:#5222D0;"/>
		</g>
	</g>
	<g>
		<g>
			<path d="M1083.4,587c6.5,1.2,9.9,9.7,17.3,6.9c4.3-1.6,6.9-5.6,11.9-5.7c5.5-0.1,8,4.5,12.7,6
				c7.8,2.5,14-6.1,21.5-4.7c6.8,1.3,11,9.5,18.6,7.3c1.9-0.5,1.1-3.4-0.8-2.9c-6.7,1.9-11.9-7.4-18.8-7.6c-3.1-0.1-6.1,1.2-8.8,2.4
				c-5.7,2.6-9.3,4.2-14.8,0.1c-5.5-4.2-11.8-4.8-17.7-0.9c-1.8,1.2-3.2,2.5-5.3,3.1c-3.1,0.9-5.1-0.7-7.4-2.6
				c-2.4-1.9-4.6-3.8-7.7-4.4C1082.3,583.7,1081.5,586.6,1083.4,587L1083.4,587z" style="fill:#5222D0;"/>
		</g>
	</g>
	<g>
		<g>
			<path d="M1104,577.1c5.1,4.1,11-1.6,16.4,1.8c5.1,3.2,8,4.2,13.8,2.2c3.2-1.1,6.4-2.7,9.9-2.2c2.8,0.5,5,2.6,7.9,2.9
				c2.7,0.3,5-1.2,7.4-2.3c4.8-2.1,9.5-1.9,14,1c1.6,1.1,3.1-1.5,1.5-2.6c-4.7-3-10.1-3.8-15.4-1.8c-1.6,0.6-3.5,2.1-5.2,2.4
				c-2.5,0.4-4.5-0.7-6.7-1.7c-2-0.9-3.9-1.2-6.1-1c-2.8,0.3-5.4,1.5-8.1,2.3c-4.3,1.4-7.1,1.2-10.9-1.5c-2.1-1.5-4-2.3-6.6-2.2
				c-3,0.1-7.1,2.6-9.8,0.5C1104.6,573.8,1102.5,575.9,1104,577.1L1104,577.1z" style="fill:#5222D0;"/>
		</g>
	</g>
	<g>
		<g>
			<path d="M774.1,666.8c0.4-5.3,6.5-5.1,9.7-3.3c1.6,0.9,2.9,2.2,4.2,3.5c2.3,2.2,4.5,4.7,7.4,6.1
				c5.4,2.4,8.7-0.5,13.2-3.1c14.2-8,24.7,18,39,8.9c0.8-0.5,0.1-1.8-0.8-1.3c-9.5,6.1-18.4-5.7-26.3-9.2c-2.6-1.2-5.4-1.9-8.2-1.4
				c-4.1,0.7-6.8,4.3-10.7,5.3c-9.2,2.5-12.7-10.5-21-11.4c-4-0.5-7.8,1.9-8.1,6C772.5,667.8,774,667.8,774.1,666.8L774.1,666.8z" style="fill:#E8E8E8;"/>
		</g>
	</g>
	<g>
		<g>
			<path d="M1027.9,724.1c1.8-7.1,7.9-10.8,15-10.2c3.6,0.3,6.5,0.2,8.9-2.9c2.8-3.7,2.9-8.7,6.3-12.2
				c4-4,10.1-5.2,15.5-6.2c0.9-0.2,0.5-1.6-0.4-1.4c-5,0.9-10.4,2-14.5,5.1c-3.9,3-4.9,7.1-6.8,11.4c-2.5,5.5-6.3,4.5-11.4,4.6
				c-2,0-3.9,0.5-5.7,1.3c-4.3,2-7.2,5.7-8.4,10.2C1026.2,724.7,1027.6,725.1,1027.9,724.1L1027.9,724.1z" style="fill:#E8E8E8;"/>
		</g>
	</g>
	<g>
		<g>
			<path d="M1062.1,718.5c0-5.1,3.1-10,8-11.6c3.5-1.2,7.2,0.2,10.7-1c5.6-2,8.4-9,14.7-9.3c1-0.1,1-1.6,0-1.5
				c-3.1,0.2-5.4,1.6-7.7,3.6c-1.8,1.6-3.4,3.5-5.5,4.7c-3.3,2.1-6.3,1.2-9.8,1.5c-7,0.6-12,6.8-12,13.6
				C1060.6,719.5,1062.1,719.5,1062.1,718.5L1062.1,718.5z" style="fill:#E8E8E8;"/>
		</g>
	</g>
	<g>
		<g>
			<path d="M694,284.9c1.6,4.8,5.1,11.1,11.1,8.1c3.6-1.8,5.3-5.7,9.6-6.5c4.8-0.9,9.8,1.5,12.1,5.8
				c0.6,1.2,2.3,0.8,2.7-0.4c3-8.7,14-9.4,18.4-1.5c0.9,1.7,3.5,0.2,2.6-1.5c-5.7-10.4-20-8.9-23.8,2.2c0.9-0.1,1.8-0.2,2.7-0.4
				c-2.6-4.9-7.8-7.7-13.3-7.4c-2.5,0.1-4.9,0.8-6.9,2.3c-1.3,0.9-2.3,2.6-3.7,3.4c-1.4,0.8-5.8,0.2-7-1c-0.9-0.9-1.3-2.8-1.6-3.9
				C696.3,282.3,693.4,283.1,694,284.9L694,284.9z" style="fill:#EC615B;"/>
		</g>
	</g>
	<g>
		<g>
			<path d="M737.8,271.7c1.9,1.5,3.7,1.5,6,0.8c3.1-0.9,5.1-2.8,7.8,0.7c0.9,1.2,1.2,2.8,2.4,3.9
				c2.2,2.2,5.4,2.5,8.4,2.2c3.5-0.3,13.5-2.7,13,3.8c-0.1,1.9,2.9,1.9,3,0c0.7-9.2-11.4-6.9-16.7-6.7c-3.9,0.1-5.7-1.5-7.5-4.7
				c-0.8-1.4-1.6-2.6-3.1-3.3c-3.4-1.5-8.6,3.1-11.2,1.1C738.4,268.4,736.2,270.5,737.8,271.7L737.8,271.7z" style="fill:#EC615B;"/>
		</g>
	</g>
	<g>
		<g>
			<path d="M424.4,816.1c-1.1-3.5-0.9-7.1,1-10.2c2-3.2,5.1-4.2,8-6.1c3.7-2.5,5.1-5.9,5.7-10.2
				c0.3-2.3,0.3-4.6,0.9-6.9c1.1-4,3.6-5.8,7.3-7.4c3.4-1.4,6.5-2.6,8.7-5.7c1.1-1.6-1.5-3.1-2.6-1.5c-3.2,4.4-9.5,4.3-13.3,8
				c-3.8,3.8-3.2,9.2-4.1,14c-1.3,7.3-7.9,7.7-12,12.6c-3.3,4-4.1,9.4-2.5,14.2C422.1,818.7,425,817.9,424.4,816.1L424.4,816.1z" style="fill:#EC615B;"/>
		</g>
	</g>
	<g>
		<g>
			<path d="M425.8,782.9c7.4-4.4,1.2-15.2,8.7-19.4c4-2.3,7.6-3.3,10.8-6.9c3.1-3.5,5.1-7.7,7.1-11.9
				c0.8-1.7-1.8-3.3-2.6-1.5c-2,4.2-4,8.4-7.2,11.8c-3.4,3.7-8,4.1-11.7,7.1c-5.5,4.5-1.1,14.8-6.7,18.2
				C422.6,781.3,424.1,783.8,425.8,782.9L425.8,782.9z" style="fill:#EC615B;"/>
		</g>
	</g>
	<g>
		<g>
			<path d="M832.3,657.2c-6.1,0.7-11-4.7-10-10.8c1-5.8,6.5-10.3,12.3-10.7c4.7-0.3,10,1.6,12.2,6.1
				c2.4,4.9,0.2,11.6-4.9,13.5c-1.8,0.7-1,3.6,0.8,2.9c6.1-2.4,9.3-9,7.7-15.4c-1.9-7.4-10-11-17.2-10c-7,1-13.4,6.8-14.1,14
				c-0.7,7.4,5.6,14.1,13.1,13.3C834.2,660,834.2,657,832.3,657.2L832.3,657.2z" style="fill:#EC615B;"/>
		</g>
	</g>
</g>
<g id="mat">
	<path d="M377.3,987.4c6.3-6.8,15.9-16.3,28.8-26c11.1-8.4,20.1-13.5,31.5-19.9c16.3-9.1,36.6-20.2,60.3-32.9
		c36.4-3.4,67-5.8,89.8-7.5c42.4-3.2,110.5-8.3,188.5-10.3c16.1-0.4,31.5-0.7,31.5-0.7c43.6-0.8,54.6-0.1,100.1-0.7
		c33.4-0.4,33.2-0.8,51.4-0.7c27.4,0.2,49.9,1.2,65.1,2.1c9.1,0.7,27.6,2.1,45.9,4.1c3.6,0.4,8.9,1,15.8,2.7
		c8.3,2.1,14.9,4.8,19.2,6.9c-5.4,8.2-10.9,16.4-16.4,24.7c-18.1,26.8-36.5,52.3-54.8,76.8c-2.9,1.8-8.2,4.6-15.1,6.9
		c-14.7,4.8-27.2,3.7-31.5,3.4c-18-1.3-61.7-0.5-125.4,1.4c-28.3-0.7-56.7-1.4-85-2.1c-8.2,12.6-16.4,25.1-24.7,37.7
		c-54.8-3-109.6-5.9-164.5-8.9c11-12.1,21.9-24.2,32.9-36.3C539.5,1001.1,458.4,994.2,377.3,987.4z" style="fill:#FFFFFF;"/>
	<g>
		<g>
			<path d="M434.8,969.8c49.4,3.3,98.7,7.1,148,11.5c1.9,0.2,1.9-2.8,0-3c-49.3-4.4-98.6-8.2-148-11.5
				C432.9,966.7,432.9,969.7,434.8,969.8L434.8,969.8z" style="fill:#161616;"/>
		</g>
	</g>
	<g>
		<g>
			<path d="M815.2,994.7c51.6-0.4,103.3,0.7,154.9,3.3c1.9,0.1,1.9-2.9,0-3c-51.6-2.6-103.2-3.7-154.9-3.3
				C813.3,991.7,813.3,994.7,815.2,994.7L815.2,994.7z" style="fill:#161616;"/>
		</g>
	</g>
	<g>
		<g>
			<path d="M524.2,939.5c25,4.4,50.4,3.8,75.7,3.6c26.8-0.2,53.6,0.4,80.4,1.3c52.9,1.9,105.8,5.4,158.7,7.6
				c30.4,1.3,60.9,2.1,91.3,2.1c1.9,0,1.9-3,0-3c-106,0.3-211.6-10.9-317.5-11c-29.3,0-58.8,1.7-87.8-3.4
				C523.2,936.3,522.3,939.2,524.2,939.5L524.2,939.5z" style="fill:#161616;"/>
		</g>
	</g>
	<g>
		<g>
			<path d="M765.2,918.1c75.2,0.1,150.4,2.3,225.5,6.6c1.9,0.1,1.9-2.9,0-3c-75.1-4.3-150.3-6.5-225.5-6.6
				C763.3,915.1,763.3,918.1,765.2,918.1L765.2,918.1z" style="fill:#161616;"/>
		</g>
	</g>
	<g>
		<g>
			<path d="M1104.2,903.6c-22.2,33.9-45.4,67-69.7,99.3c-1.2,1.5,1.4,3,2.6,1.5c24.3-32.3,47.6-65.5,69.7-99.3
				C1107.9,903.5,1105.3,902,1104.2,903.6L1104.2,903.6z" style="fill:#161616;"/>
		</g>
	</g>
	<g>
		<g>
			<path d="M403,966.5c30.8-21.3,62-42.7,96.8-57c1.8-0.7,1-3.6-0.8-2.9c-35.1,14.4-66.5,35.9-97.6,57.3
				C399.9,965,401.4,967.6,403,966.5L403,966.5z" style="fill:#161616;"/>
		</g>
	</g>
	<g>
		<g>
			<path d="M496.9,909.9c79.4-7.3,158.9-12.6,238.5-15.7c79.6-3.1,159.3-4.3,239-3.1c22.3,0.3,44.6,0.9,66.8,2.9
				c21.4,1.9,43.8,4.1,63.8,12.4c1.8,0.7,2.6-2.2,0.8-2.9c-17-7.1-35.7-9.4-53.9-11.4c-19.9-2.2-39.9-3.2-59.9-3.7
				c-39.9-1-79.9-0.9-119.8-0.5c-80,0.7-160,3.6-239.9,8.6c-45.2,2.8-90.4,6.3-135.5,10.5C494.9,907.1,494.9,910.1,496.9,909.9
				L496.9,909.9z" style="fill:#161616;"/>
		</g>
	</g>
	<g>
		<g>
			<path d="M779,1017.2c74.5,2.5,149,2.6,223.4-0.2c12.8-0.5,27.1-2,35-13.4c1.1-1.6-1.5-3.1-2.6-1.5
				c-7.9,11.3-23.2,11.6-35.6,12c-17.1,0.5-34.2,1.2-51.4,1.5c-36,0.7-72,0.7-108,0.1c-20.3-0.3-40.6-0.9-60.9-1.5
				C777.1,1014.1,777.1,1017.1,779,1017.2L779,1017.2z" style="fill:#161616;"/>
		</g>
	</g>
	<g>
		<g>
			<path d="M401.5,963.8c-8.8,7.7-17.6,15.4-26.4,23.1c-1.1,0.9-0.1,2.5,1.1,2.6c80.9,7,161.8,14,242.7,19.4
				c1.9,0.1,1.9-2.9,0-3c-81-5.5-161.9-12.4-242.7-19.4c0.4,0.9,0.7,1.7,1.1,2.6c8.8-7.7,17.6-15.4,26.4-23.1
				C405,964.6,402.9,962.5,401.5,963.8L401.5,963.8z" style="fill:#161616;"/>
		</g>
	</g>
	<g>
		<g>
			<path d="M652.9,976.8c-23.3,20.5-45.2,42.4-65.6,65.7c-1.3,1.4,0.8,3.6,2.1,2.1c20.4-23.3,42.4-45.3,65.6-65.7
				C656.5,977.6,654.4,975.5,652.9,976.8L652.9,976.8z" style="fill:#161616;"/>
		</g>
	</g>
	<g>
		<g>
			<path d="M654,978.9c48.7-4.7,97.7-3.5,146.1,3.7c1.9,0.3,2.7-2.6,0.8-2.9c-48.6-7.3-97.9-8.6-146.9-3.8
				C652.1,976.1,652.1,979.1,654,978.9L654,978.9z" style="fill:#161616;"/>
		</g>
	</g>
	<g>
		<g>
			<path d="M798.6,981.6c-16.4,23.5-32.9,47-49.3,70.5c-1.1,1.6,1.5,3.1,2.6,1.5c16.4-23.5,32.9-47,49.3-70.5
				C802.3,981.5,799.7,980,798.6,981.6L798.6,981.6z" style="fill:#161616;"/>
		</g>
	</g>
	<g>
		<g>
			<path d="M587.7,1046c54,2.7,108.1,5.3,162.1,8c1.9,0.1,1.9-2.9,0-3c-54-2.7-108.1-5.3-162.1-8
				C585.8,1042.9,585.8,1045.9,587.7,1046L587.7,1046z" style="fill:#161616;"/>
		</g>
	</g>
	<g>
		<g>
			<path d="M629.6,1027.2c8.4,1.5,16.7,2.9,25.1,4.4c1.9,0.3,2.7-2.6,0.8-2.9c-8.4-1.5-16.7-2.9-25.1-4.4
				C628.5,1024,627.7,1026.9,629.6,1027.2L629.6,1027.2z" style="fill:#161616;"/>
		</g>
	</g>
	<g>
		<g>
			<path d="M649.1,1018c-5.1,5.3-9.9,10.9-14.4,16.8c-1.2,1.5,1.4,3,2.6,1.5c4.4-5.6,9-11,14-16.2
				C652.5,1018.8,650.4,1016.6,649.1,1018L649.1,1018z" style="fill:#161616;"/>
		</g>
	</g>
	<g>
		<g>
			<path d="M663.2,1019.5c0.1-5.2,4-8.6,9.1-8.5c2.5,0,4.8,0.8,7.3,0.4c4.6-0.7,8.6-3.6,10.7-7.6c1.5-2.7,1.9-5.8,4.2-8
				c2.5-2.4,6-3.5,9.4-3.8c3.1-0.3,6.5-0.1,9.5,1c2.5,1,5.1,2.9,5.2,5.9c0.1,2.3-1.3,4.7-3.9,4.8c0.1,1,0.3,2,0.4,2.9
				c2.7-0.4,5.7,2.5,6.5,4.8c0.4,1.1,0.5,2.5,0.4,3.6c-0.1,2.6-1.4,5.3-3.1,7.3c-1.7,2-3.9,3.6-6.4,4.3c-2.2,0.6-2.6,0.7-4.2-1.1
				c-1.8-2.1-1-2.5,0.9-4.1c8.6-7.2,15.7,2.2,24.5,2.5c6,0.2,11.7-3.5,12.9-9.6c0.6-3-0.3-5.7-1.8-8.4c-1.7-3-2.7-3.6-2-7.3
				c-0.5-2.2,0.2-3.3,2.1-3.3c1.1-0.5,2.1-0.5,3.1,0.2c2.4,0.7,3.8,2.3,5.3,4.3c1.1,1.5,3.7,0.1,2.6-1.5c-3.1-4.3-8.5-8.4-13.9-5.2
				c-5.1,3-3.3,8.3-0.8,12.4c2.6,4.4,4.4,9-0.2,13c-5.2,4.5-11.1,1.5-16.2-1c-5.2-2.5-11-2.8-16,0.5c-3,1.9-7.4,6.9-4.1,10.5
				c3.6,3.8,11.1,0.6,14.3-2c4.1-3.3,6.8-8.8,6-14.2c-0.9-5.4-5.1-9.6-10.6-8.7c-1.7,0.3-1.3,3,0.4,2.9c6.1-0.1,8.7-7.5,5.5-12.2
				c-4.4-6.5-15.4-6.6-22-4.2c-3.3,1.2-6.2,3.3-8,6.4c-1.3,2.2-1.7,4.9-3.1,7c-2.2,3.2-6.1,5.1-10,5.1c-4.6-0.1-8.2-1.4-12.2,1.6
				c-3.1,2.3-4.6,5.7-4.6,9.4C660.2,1021.5,663.2,1021.5,663.2,1019.5L663.2,1019.5z" style="fill:#161616;"/>
		</g>
	</g>
</g>
<g id="chat">
	<path d="M823,456.6c-0.2,23.9-0.5,47.7-0.7,71.6c56.2-1.6,112.4-3.3,168.5-4.9c11.5,8.9,22.9,17.8,34.4,26.7
		c-3-17.6-6.1-35.1-9.1-52.7c-0.9-14.5-1.9-29-2.8-43.5C949.9,454.7,886.4,455.7,823,456.6z" style="fill:#5222D0;"/>
	<path d="M816.9,279.2c-1.9,34.6-3.8,69.1-5.6,103.7c-9.9,12.3-19.8,24.7-29.7,37c11.8-3.2,23.6-6.4,35.4-9.6
		c70.2-2.4,140.4-4.8,210.6-7.2c-1.9-41.5-3.8-83.1-5.6-124.6C953.5,278.7,885.2,278.9,816.9,279.2z" style="fill:#EC615B;"/>
	<g>
		<g>
			<path d="M934.8,325.2c1.4,24.9,19.3,45.4,43.8,50c1.9,0.3,2.7-2.5,0.8-2.9c-23.2-4.3-40.3-23.5-41.6-47.1
				C937.6,323.2,934.6,323.2,934.8,325.2L934.8,325.2z" style="fill:#E8E8E8;"/>
		</g>
	</g>
	<g>
		<g>
			<path d="M979.3,375.1c9.6,0.7,18.2-13.4,21.7-20.8c4.6-10,6-21,3.9-31.7c-0.4-1.9-3.3-1.1-2.9,0.8
				c1.8,9.3,0.8,18.8-2.8,27.6c-1.8,4.3-4.1,8.4-7.1,12c-2.9,3.6-7.7,9.5-12.8,9.1C977.4,371.9,977.4,374.9,979.3,375.1L979.3,375.1
				z" style="fill:#E8E8E8;"/>
		</g>
	</g>
	<g>
		<g>
			<path d="M987.7,372c4,4.9,9.4,8.3,15.5,10c1.9,0.5,2.7-2.4,0.8-2.9c-5.7-1.6-10.5-4.7-14.2-9.2
				C988.6,368.4,986.5,370.6,987.7,372L987.7,372z" style="fill:#E8E8E8;"/>
		</g>
	</g>
	<g>
		<g>
			<path d="M1000.3,352.7c1.2,1.9,2.5,3.7,4,5.4c1.4,1.5,3.9,2.8,5.1,4.4c3.5,4.7-3.2,13.8-6.1,17.4
				c-1.2,1.5,1.4,3,2.6,1.5c3.3-4.3,7.9-11.5,7.7-17.3c-0.1-1.6-0.7-2.5-1.8-3.6c-3.2-3.4-6.4-5.3-9-9.4
				C1001.8,349.5,999.2,351,1000.3,352.7L1000.3,352.7z" style="fill:#E8E8E8;"/>
		</g>
	</g>
	<g>
		<g>
			<path d="M998.4,355.7c-0.5,4.8-1.7,9.4-3.8,13.8c-0.3,0.7-1,1.6-1.2,2.3c-0.5,1.8,0.8-1.1,1.1-1.5
				c1.2-2.1,2.2-4.3,3.2-6.4c-0.9-0.4-1.8-0.8-2.7-1.2c-0.9,2.9-2.4,5.1-4.8,7.1c0.8,0.6,1.6,1.2,2.4,1.8c2.1-3.5,4.1-7,6.2-10.6
				c1-1.7-1.5-3-2.6-1.5c-2.2,3-4.4,6-6.6,8.9c-1,1.4,1.2,3.1,2.4,1.8c2.4-2.8,4.2-5.8,5.4-9.2c0.7-1.8-2.2-2.6-2.9-0.8
				c-1.1,3-2.6,5.5-4.7,7.9c0.8,0.6,1.6,1.2,2.4,1.8c2.2-3,4.4-6,6.6-8.9c-0.9-0.5-1.7-1-2.6-1.5c-2.1,3.5-4.1,7-6.2,10.6
				c-0.9,1.6,1.1,2.8,2.4,1.8c2.8-2.2,4.6-5,5.6-8.4c0.5-1.6-2-2.7-2.7-1.2c-1.1,2.1-2.2,4.3-3.2,6.4c-0.6,1.2-1.6,2.7-1.4,4.1
				c0.1,1.7,1.8,3.2,3.6,2.6c2.4-0.8,3.6-5.2,4.4-7.3c1.6-4,2.5-8.2,3-12.5C1001.6,353.8,998.6,353.8,998.4,355.7L998.4,355.7z" style="fill:#E8E8E8;"/>
		</g>
	</g>
	<g>
		<g>
			<path d="M970.6,370.6c-8.3-1.3-15.3,4.1-20.9,9.7c-6.2,6.2-10.8,13.7-12.4,22.3c-0.4,1.9,2.5,2.7,2.9,0.8
				c1.3-7.1,4.7-13.3,9.5-18.7c4.8-5.5,12.2-12.5,20.1-11.2C971.7,373.8,972.5,370.9,970.6,370.6L970.6,370.6z" style="fill:#E8E8E8;"/>
		</g>
	</g>
	<g>
		<g>
			<path d="M960.6,328.7c3.1,8.1,6.6,16.1,10.3,23.9c0.6,1.2,2.4,0.8,2.7-0.4c0.9-3.6,1.3-7.1,1.1-10.8
				c-0.1-1.9-3.1-1.9-3,0c0.2,3.4-0.1,6.7-1,10c0.9-0.1,1.8-0.2,2.7-0.4c-3.6-7.6-7-15.3-10-23.2
				C962.8,326.1,959.9,326.9,960.6,328.7L960.6,328.7z" style="fill:#E8E8E8;"/>
		</g>
	</g>
	<g>
		<g>
			<path d="M946.7,339.6c-0.7-1.3,0.6-2.7,1.8-3.1c1.8-0.6,3.7,0.1,5.5,0.6c1.8,0.6,2.6-2.3,0.8-2.9
				c-2.9-0.9-6.4-1.6-9,0.4c-2,1.6-2.9,4.2-1.6,6.5C945,342.8,947.6,341.3,946.7,339.6L946.7,339.6z" style="fill:#E8E8E8;"/>
		</g>
	</g>
	<g>
		<g>
			<path d="M978.1,332.8c1-4.4,5.9-6.3,9.4-3.1c1.4,1.3,3.6-0.8,2.1-2.1c-5-4.6-12.9-2.3-14.4,4.4
				C974.8,333.9,977.7,334.7,978.1,332.8L978.1,332.8z" style="fill:#E8E8E8;"/>
		</g>
	</g>
	<g>
		<g>
			<path d="M984.5,336.1c-0.1,0.1-0.3,0.3-0.4,0.4c-0.6,0.6-0.6,1.5,0,2.1c0.6,0.6,1.5,0.6,2.1,0
				c0.1-0.1,0.3-0.3,0.4-0.4c0.6-0.6,0.6-1.5,0-2.1C986,335.5,985.1,335.5,984.5,336.1L984.5,336.1z" style="fill:#E8E8E8;"/>
		</g>
	</g>
	<g>
		<g>
			<path d="M991.2,333.3c0.1,0.3,0.3,0.5,0.4,0.8c0.4,0.7,1.4,0.9,2.1,0.5c0.7-0.4,0.9-1.3,0.5-2.1
				c-0.1-0.3-0.3-0.5-0.4-0.8c-0.4-0.7-1.4-0.9-2.1-0.5C991,331.6,990.8,332.5,991.2,333.3L991.2,333.3z" style="fill:#E8E8E8;"/>
		</g>
	</g>
	<g>
		<g>
			<path d="M990.3,340.1c0.1,0.1,0.3,0.3,0.4,0.4c0.6,0.6,1.5,0.6,2.1,0c0.6-0.6,0.6-1.5,0-2.1
				c-0.1-0.1-0.3-0.3-0.4-0.4c-0.6-0.6-1.5-0.6-2.1,0C989.7,338.6,989.7,339.5,990.3,340.1L990.3,340.1z" style="fill:#E8E8E8;"/>
		</g>
	</g>
	<g>
		<g>
			<path d="M949,346.8c0,0.1,0,0.3,0,0.4c0,0.8,0.7,1.5,1.5,1.5c0.8,0,1.5-0.7,1.5-1.5c0-0.1,0-0.3,0-0.4
				c0-0.8-0.7-1.5-1.5-1.5C949.6,345.3,949,345.9,949,346.8L949,346.8z" style="fill:#E8E8E8;"/>
		</g>
	</g>
	<g>
		<g>
			<path d="M955.8,344c-0.5,0-0.9,0-1.4,0c0.6,0.5,1.5,0.6,2.1,0c0.6-0.6,0.6-1.6,0-2.1c-0.9-0.8-2-0.8-2.9,0
				c-0.6,0.5-0.5,1.6,0,2.1C954.3,344.6,955.2,344.5,955.8,344L955.8,344z" style="fill:#E8E8E8;"/>
		</g>
	</g>
	<g>
		<g>
			<path d="M957.4,349.1c0-0.1,0-0.3,0-0.4c0-0.8-0.7-1.5-1.5-1.5c-0.8,0-1.5,0.7-1.5,1.5c0,0.1,0,0.3,0,0.4
				c0,0.8,0.7,1.5,1.5,1.5C956.7,350.5,957.4,349.9,957.4,349.1L957.4,349.1z" style="fill:#E8E8E8;"/>
		</g>
	</g>
	<g>
		<g>
			<path d="M950.1,322.2c-2.5-1.6-5.7-0.8-7.5,1.5c-0.5,0.6-0.1,1.7,0.5,2.1c0.8,0.5,1.6,0.1,2.1-0.5
				c0.8-1,2.3-1.1,3.3-0.4C950.3,325.8,951.8,323.2,950.1,322.2L950.1,322.2z" style="fill:#E8E8E8;"/>
		</g>
	</g>
	<g>
		<g>
			<path d="M974,318.8c1.2-0.5,2.5-0.8,3.9-0.9c1.9-0.1,1.9-3.1,0-3c-1.9,0.1-3.7,0.5-5.4,1.3c-0.7,0.3-0.9,1.4-0.5,2.1
				C972.4,319,973.2,319.1,974,318.8L974,318.8z" style="fill:#E8E8E8;"/>
		</g>
	</g>
	<g>
		<g>
			<path d="M974.7,360.8c4.4,0.4,8.5-2.5,9.9-6.7c0.6-1.8-2.3-2.6-2.9-0.8c-1,3-3.9,4.8-7,4.5
				C972.8,357.6,972.8,360.6,974.7,360.8L974.7,360.8z" style="fill:#E8E8E8;"/>
		</g>
	</g>
	<g>
		<g>
			<path d="M1013.3,364.4c3.3-0.2,6.4,0.5,9.3,2.1c1.7,0.9,3.2-1.7,1.5-2.6c-3.4-1.8-7-2.7-10.8-2.5
				C1011.4,361.5,1011.4,364.5,1013.3,364.4L1013.3,364.4z" style="fill:#E8E8E8;"/>
		</g>
	</g>
	<g>
		<g>
			<path d="M939.3,292.4c-8.4,3.8-14.9,11.2-17.2,20.2c-1.4,5.5-0.4,10.9-0.6,16.5c-0.3,6.3-3.2,11.9-5.1,17.8
				c-5.5,17.1,3.9,35.9,21.3,41.1c1.9,0.5,2.6-2.3,0.8-2.9c-8.3-2.5-15-8.6-18.5-16.5c-3.8-8.7-2.3-16.9,0.9-25.5
				c1.4-3.7,2.8-7.4,3.3-11.4c0.6-4.8-0.4-9.6,0.1-14.4c0.9-9.9,7.6-18.3,16.5-22.3C942.5,294.2,941,291.7,939.3,292.4L939.3,292.4z
				" style="fill:#E8E8E8;"/>
		</g>
	</g>
	<g>
		<g>
			<path d="M937,325c10.7-5,18.7-13.7,22.9-24.7c0.7-1.8-2.2-2.6-2.9-0.8c-3.9,10.2-11.6,18.3-21.5,22.9
				C933.7,323.2,935.3,325.8,937,325L937,325z" style="fill:#E8E8E8;"/>
		</g>
	</g>
	<g>
		<g>
			<path d="M961.2,299.7c3.3,5.8,10.2,8.4,16.3,10.4c7.7,2.6,15.8,3.7,23.9,3.6c1.9,0,1.9-3,0-3
				c-6.7,0.1-13.3-0.7-19.7-2.5c-6.2-1.7-14.5-4.1-17.9-10.1C962.9,296.5,960.3,298,961.2,299.7L961.2,299.7z" style="fill:#E8E8E8;"/>
		</g>
	</g>
	<g>
		<g>
			<path d="M1002.1,315.4c2.3-4.1,8.2-3.6,9.6,1.1c1.4,4.6-2.4,8.4-6.8,8.9c-1.9,0.2-1.9,3.2,0,3
				c6.7-0.8,12.3-7.1,9.2-13.9c-2.9-6.2-11.3-6.3-14.6-0.5C998.6,315.5,1001.1,317,1002.1,315.4L1002.1,315.4z" style="fill:#E8E8E8;"/>
		</g>
	</g>
	<g>
		<g>
			<path d="M1004,326.5c-2.2,12.8-0.9,30.1,10.1,38.8c1.5,1.2,3.6-0.9,2.1-2.1c-10-7.9-11.4-24-9.3-35.8
				C1007.3,325.4,1004.4,324.6,1004,326.5L1004,326.5z" style="fill:#E8E8E8;"/>
		</g>
	</g>
	<g>
		<g>
			<path d="M938.8,295.8c6.6-3.4,13.6-7.1,21.2-7c6.5,0.1,11.9,3.1,18.5,1.9c6.9-1.2,13.2-4.4,20.4-4.8
				c7.4-0.4,15.4,0.8,20.6,6.5c1.3,1.4,3.4-0.7,2.1-2.1c-10.1-11-26.3-7.3-38.8-3.7c-5,1.5-9.4,1.9-14.5,0.6
				c-3.6-0.9-6.9-1.6-10.7-1.3c-7.2,0.7-13.9,4-20.2,7.3C935.6,294.1,937.1,296.7,938.8,295.8L938.8,295.8z" style="fill:#E8E8E8;"/>
		</g>
	</g>
	<g>
		<g>
			<path d="M937.7,385.4c-0.3,0.1-0.7,0.2-1,0.2c-1.6,0.4-1.3,2.4,0,2.9c2.4,1,4.9,1.3,7.5,1c1.9-0.2,1.9-3.2,0-3
				c-2.3,0.3-4.5,0-6.7-0.9c0,1,0,1.9,0,2.9c0.3-0.1,0.7-0.2,1-0.2C940.3,387.9,939.5,385,937.7,385.4L937.7,385.4z" style="fill:#E8E8E8;"/>
		</g>
	</g>
	<g>
		<g>
			<path d="M834.9,315.7c1.5,2.3,5.1,1.8,5.6-1c0.2-0.9-1.2-1.3-1.4-0.4c-0.3,1.4-2,1.9-2.9,0.7
				C835.7,314.2,834.4,314.9,834.9,315.7L834.9,315.7z" style="fill:#E8E8E8;"/>
		</g>
	</g>
	<g>
		<g>
			<path d="M846.4,314.6c0.6,1,1.3,2.1,2.6,2.3c1.1,0.2,2.1-0.3,2.5-1.4c0.3-0.9-1.1-1.3-1.4-0.4
				c-0.2,0.4-0.8,0.3-1.1,0.1c-0.5-0.3-0.8-0.9-1.1-1.5C847.2,313,845.9,313.7,846.4,314.6L846.4,314.6z" style="fill:#E8E8E8;"/>
		</g>
	</g>
	<g>
		<g>
			<path d="M843.2,317.3C843.2,317.3,843.2,317.3,843.2,317.3c0.1,0.2,0.2,0.4,0.3,0.6c0,0,0-0.1,0-0.1
				c-0.1,0.2-0.1,0.4-0.2,0.5c0,0,0-0.1,0.1-0.1c-0.2,0.1-0.4,0.1-0.5,0.2c0,0,0.1,0,0.1,0c-0.2-0.1-0.4-0.2-0.6-0.4
				c-0.2-0.3-0.3,0.3-0.3,0.5c0,0.4,0.1,0.9,0.1,1.3c0,0.4,0,0.8-0.2,1.1c-0.1,0.2-0.5,0.5-0.7,0.3c-0.7-0.6-1.8,0.4-1.1,1.1
				c0.7,0.6,1.5,0.6,2.3,0.1c0.8-0.5,1.1-1.4,1.1-2.4c0-0.7-0.1-1.2,0.1-1.8c0.1-0.4,0.1-0.7-0.1-1c-0.6-0.8-1.5-0.2-1.6,0.6
				c0,0.2,0.2,0.5,0.4,0.6c0,0,0,0,0.1,0C843.3,319.1,844.1,317.8,843.2,317.3L843.2,317.3z" style="fill:#E8E8E8;"/>
		</g>
	</g>
	<g>
		<g>
			<path d="M842.5,317.9c0.3,1.4-0.1,2.9,1,4.1c0.8,0.9,2,1.1,3,0.3c0.7-0.6-0.3-1.7-1.1-1.1c-0.6,0.5-1.2-1-1.2-1.3
				c-0.1-0.8-0.1-1.6-0.2-2.4C843.7,316.6,842.3,317,842.5,317.9L842.5,317.9z" style="fill:#E8E8E8;"/>
		</g>
	</g>
	<g>
		<g>
			<path d="M836.7,310.8c0.7,0,1.5,0,2.2,0c1,0,1-1.5,0-1.5c-0.7,0-1.5,0-2.2,0C835.7,309.3,835.7,310.8,836.7,310.8
				L836.7,310.8z" style="fill:#E8E8E8;"/>
		</g>
	</g>
	<g>
		<g>
			<path d="M847.6,311.1c0.7,0,1.3,0.1,1.9,0.5c0.8,0.5,1.6-0.8,0.8-1.3c-0.8-0.5-1.7-0.7-2.6-0.7
				C846.6,309.6,846.6,311.1,847.6,311.1L847.6,311.1z" style="fill:#E8E8E8;"/>
		</g>
	</g>
	<g>
		<g>
			<path d="M842.6,327.9c-9.8,0.6-8.9-9.8-11.2-16.2c-0.6-1.9-1.7-3.5-2.4-5.4c-2.6-7.4,3.1-2.2,5,0.5
				c0.6,0.8,1.9,0,1.3-0.8c-1.1-1.6-5.1-7.5-7.5-6.8c-2.5,0.7-0.9,6-0.3,7.5c1.1,3,2.6,5.4,3.2,8.6c0.5,2.9,0.6,5.9,2.1,8.5
				c2,3.6,5.6,5.8,9.7,5.5C843.5,329.4,843.5,327.9,842.6,327.9L842.6,327.9z" style="fill:#E8E8E8;"/>
		</g>
	</g>
	<g>
		<g>
			<path d="M835.7,307.3c4.8-2.6,9.8-2.8,14.7-0.5c0.4,0.2,0.8,0.1,1-0.3c1.3-2.4,2.9-4.2,5.1-5.8
				c-0.4-0.2-0.9-0.4-1.3-0.5c0.2,5.5,0.4,11.3-0.5,16.7c-1.3,7.6-6.3,10.4-13.5,11.3c-0.9,0.1-1,1.6,0,1.5
				c5.9-0.8,11.3-2.2,13.8-8.1c2.7-6.4,2-14.6,1.7-21.4c0-0.7-0.8-0.9-1.3-0.5c-1.4,1.1-3,4-4.5,4.8c-1.7,0.9-3.7-0.4-5.6-0.6
				c-3.7-0.4-7.2,0.5-10.5,2.2C834.1,306.5,834.8,307.8,835.7,307.3L835.7,307.3z" style="fill:#E8E8E8;"/>
		</g>
	</g>
	<g>
		<g>
			<path d="M834.9,325.5c-2.7,4.4-1.7,9.7-0.9,14.6c1.2,7.5,3.4,14.8,5.6,22c0.3,0.9,1.7,0.5,1.4-0.4
				c-1.6-5.4-3.3-10.9-4.5-16.4c-1.3-5.7-3.6-13.7-0.3-19C836.7,325.5,835.4,324.7,834.9,325.5L834.9,325.5z" style="fill:#E8E8E8;"/>
		</g>
	</g>
	<g>
		<g>
			<path d="M839.5,361.5c-1.9,0.3-8,2.3-6.1,5.3c0.7,1.1,2.2,1.3,3.4,1.4c2.3,0.2,4.6-0.2,6.8-0.9
				c0.9-0.3,0.5-1.7-0.4-1.4c-2,0.6-5.2,1.6-7.3,0.8c-0.4-0.2-1.2-0.9-1-1.4c0.1-0.3,1-0.7,1.4-0.9c1.2-0.6,2.4-1.1,3.7-1.3
				C840.9,362.7,840.5,361.3,839.5,361.5L839.5,361.5z" style="fill:#E8E8E8;"/>
		</g>
	</g>
	<g>
		<g>
			<path d="M843.9,338.3c0.7,8.2,1.6,16.3,2.8,24.5c0.1,1,1.6,0.5,1.4-0.4c-1.2-8-2.1-16-2.8-24.1
				C845.4,337.3,843.9,337.3,843.9,338.3L843.9,338.3z" style="fill:#E8E8E8;"/>
		</g>
	</g>
	<g>
		<g>
			<path d="M847.3,362.2c-2.2,0.3-6.1,2.2-4.1,5.1c2.2,3.1,8.4,0.5,11-0.5c0.9-0.3,0.5-1.8-0.4-1.4
				c-1.7,0.7-3.4,1.3-5.2,1.6c-0.8,0.1-2.3,0.4-3.1,0c-1.3-1.5-1.2-2.5,0.3-2.9c0.5-0.2,1-0.3,1.5-0.3
				C848.2,363.6,848.2,362.1,847.3,362.2L847.3,362.2z" style="fill:#E8E8E8;"/>
		</g>
	</g>
	<g>
		<g>
			<path d="M854.5,321.6c4,2.4,4.9,6.5,6.7,10.5c1.3,2.9,2.9,4.9,5.3,7c3.5,3,6.7,5.3,8,10.1c1.3,5,0.2,10.2-1.2,15
				c-0.3,0.9,1.2,1.3,1.4,0.4c2.4-8.3,3.3-17.4-3.7-23.8c-1.6-1.5-3.5-2.7-5-4.2c-2.2-2.3-3.3-4.9-4.4-7.8c-1.4-3.5-2.9-6.5-6.2-8.5
				C854.4,319.8,853.7,321.1,854.5,321.6L854.5,321.6z" style="fill:#E8E8E8;"/>
		</g>
	</g>
	<g>
		<g>
			<path d="M866.5,346.7c-3.3-0.5-6,2.3-7,5.4c-1.4,4.2,2.2,8.4,4.6,11.4c0.2-0.4,0.4-0.9,0.5-1.3
				c-3.2,0.3-5.8,1.3-8.4,3.2c-0.3,0.2-0.5,0.7-0.3,1c2.5,3.2,8.2,1.8,11.7,1.8c3.7-0.1,7.4-0.4,7.3-5.1c0-1-1.5-1-1.5,0
				c0.1,4.8-9.4,3.7-12,3.7c-0.6,0-1.1,0-1.7,0c-1.9-0.3-2.3-0.7-1.2-1.2c0.5-1.3,5-1.8,6.1-1.9c0.7-0.1,0.9-0.8,0.5-1.3
				c-1.3-1.7-3.1-3.7-3.8-5.8c-1-2.7,0.2-9.2,4.8-8.5C867.1,348.3,867.5,346.9,866.5,346.7L866.5,346.7z" style="fill:#E8E8E8;"/>
		</g>
	</g>
	<g>
		<g>
			<path d="M853.1,353.6c0.4,4,0.6,8,0.7,12c0,1,1.5,1,1.5,0c-0.1-4-0.3-8-0.7-12C854.5,352.7,853,352.7,853.1,353.6
				L853.1,353.6z" style="fill:#E8E8E8;"/>
		</g>
	</g>
	<g>
		<g>
			<path d="M854.7,362.8c3.1,1.5,6.4,1.8,9.6,0.8c0.9-0.3,0.5-1.7-0.4-1.4c-2.9,0.8-5.8,0.6-8.5-0.7
				C854.6,361.1,853.8,362.4,854.7,362.8L854.7,362.8z" style="fill:#E8E8E8;"/>
		</g>
	</g>
	<g>
		<g>
			<path d="M875.8,357.9c2.8-1.9,4.8-4.4,5.5-7.8c1.1-5.4-2.3-10.4,0.1-15.7c1.9-4.1,5.1-7.2,6-11.7
				c1-5.1-1-10.3,0.2-15.4c0.3-1.2,0.7-2.8,1.6-3.8c0.9-2,2.3-1.5,4,1.6c-0.2,0.5-0.4,1-0.6,1.5c-0.3,2.5-2.2,5.1-2.7,7.7
				c-0.4,2.3-0.2,4.6-0.5,6.9c-0.4,3.3-2,5.9-3.5,8.9c-2.1,4.3-1.7,8.1-1.5,12.8c0.3,7.1-2.5,13-8.9,16.4c-0.9,0.5-0.1,1.8,0.8,1.3
				c4.2-2.3,7.5-5.8,8.9-10.4c2.2-7-0.8-13.7,2.7-20.6c1.3-2.7,2.6-5,3-8c0.5-3.5,0.2-6.5,1.3-10c0.8-2.5,5.3-9.3,1.9-11.7
				c-2.2-1.5-5.1,1.1-6.2,2.7c-3,4.2-2.1,9.6-1.9,14.5c0.2,4.5-0.6,8-3,11.8c-1.3,2-2.7,4-3.5,6.3c-2.7,7.8,4.3,15.5-4.4,21.5
				C874.3,357.2,875,358.5,875.8,357.9L875.8,357.9z" style="fill:#E8E8E8;"/>
		</g>
	</g>
	<g>
		<g>
			<path d="M909.7,384c-3.5-0.7-6.6,0.4-9.4,2.6c-2,1.5-4.6,3.7-4.2,6.5c1.2,7.3,12.7,3,16.3,0.6
				c1.6-1.1,0.1-3.7-1.5-2.6c-1.5,1-3,1.8-4.7,2.3c-1.1,0.3-2.2,0.6-3.3,0.6c-1.5,0.1-2.1,0.2-2.9-1.3c-0.8-1.5-0.4-1.5,0.7-2.6
				c0.7-0.7,1.4-1.2,2.2-1.8c1.8-1.2,3.8-1.9,6-1.5C910.8,387.3,911.6,384.4,909.7,384L909.7,384z" style="fill:#E8E8E8;"/>
		</g>
	</g>
	<g>
		<g>
			<path d="M906.7,383.1c-0.6-4.5-1.9-8.8-4.2-12.8c-1.5-2.6-4.8-8.3-8.3-8.7c-7.6-0.9,0.6,19,1.9,21.7
				c0.9,1.7,3.4,0.2,2.6-1.5c-1.5-3.1-2.7-6.2-3.5-9.5c-0.4-1.7-1.2-4.2-1-5.8c0-0.5-0.1-0.9-0.1-1.4c0.8,0.4,1.5,1,2.1,1.7
				c4.2,4.3,6.7,10.4,7.5,16.3C904,384.9,907,385,906.7,383.1L906.7,383.1z" style="fill:#E8E8E8;"/>
		</g>
	</g>
	<g>
		<g>
			<path d="M898.8,381.7c-2.2-4.2-11.3-18.4-17.5-12.9c-6.2,5.5,4.9,17.4,8.8,21c1.4,1.3,3.5-0.8,2.1-2.1
				c-2.1-2-4.1-4.1-5.7-6.4c-0.9-1.3-5.3-7.8-3.8-9.2c1.2-0.2,2.4-0.4,3.6-0.6c0.9,0.6,1.7,1.3,2.5,2c0.9,0.8,1.8,1.8,2.7,2.7
				c1.9,2.1,3.4,4.5,4.7,7C897.1,385,899.7,383.5,898.8,381.7L898.8,381.7z" style="fill:#E8E8E8;"/>
		</g>
	</g>
	<g>
		<g>
			<path d="M889.9,388.6c-3.4-2.8-8.4,0-8.1,4.3c0.4,5.8,6.9,7,11.4,5.7c1.9-0.5,1.1-3.4-0.8-2.9
				c-2.4,0.7-5.7,0.9-7.2-1.7c-0.6-1-0.7-2.2,0.2-3c0.6-0.6,1.7-0.9,2.4-0.3C889.2,392,891.3,389.9,889.9,388.6L889.9,388.6z" style="fill:#E8E8E8;"/>
		</g>
	</g>
	<g>
		<g>
			<path d="M883.4,392.9c-4.2,1.3-4.2,6.3-1.8,9.3c2.4,3,7,5,10.4,2.4c1.5-1.2-0.6-3.3-2.1-2.1
				c-1.6,1.2-4.2-0.4-5.3-1.5c-1.2-1.2-2.8-4.4-0.3-5.2C886.1,395.2,885.3,392.3,883.4,392.9L883.4,392.9z" style="fill:#E8E8E8;"/>
		</g>
	</g>
	<g>
		<g>
			<path d="M908,384.2c7.3,0,9.5,13.7,8.1,18.8c-0.5,1.9,2.4,2.7,2.9,0.8c2-7.2-1.4-22.6-11-22.6
				C906,381.2,906,384.2,908,384.2L908,384.2z" style="fill:#E8E8E8;"/>
		</g>
	</g>
	<g>
		<g>
			<path d="M836.6,488.4c34.5,0,69,0,103.5,0c1.9,0,1.9-3,0-3c-34.5,0-69,0-103.5,0
				C834.7,485.4,834.7,488.4,836.6,488.4L836.6,488.4z" style="fill:#E8E8E8;"/>
		</g>
	</g>
	<g>
		<g>
			<path d="M863.1,501.8c31.8,0,63.6,0,95.3,0c1.9,0,1.9-3,0-3c-31.8,0-63.6,0-95.3,0
				C861.2,498.8,861.2,501.8,863.1,501.8L863.1,501.8z" style="fill:#E8E8E8;"/>
		</g>
	</g>
	<g>
		<g>
			<path d="M952.6,487.9c4,0,8,0,12,0c1.9,0,1.9-3,0-3c-4,0-8,0-12,0C950.7,484.9,950.7,487.9,952.6,487.9L952.6,487.9z
				" style="fill:#E8E8E8;"/>
		</g>
	</g>
	<g>
		<g>
			<path d="M986.7,496.9c-3.7-1.7-6.5-4.7-7.5-8.7c-0.5-1.9-0.9-4.7,0.4-6.4c2.5-3.5,5.5,1.3,6.3,3.8
				c0.4,1.3,2.6,1.5,2.9,0c0.1-0.7,0.3-1.4,0.5-2.1c0.8-3,2.7-2.7,5.8,0.7c0.5,1.8-0.7,4.8-1.5,6.3c-1.7,3.4-4.5,5.8-7.9,7.5
				c-1.7,0.8-0.2,3.4,1.5,2.6c6.4-3,13.4-11.8,10.2-19.3c-1-2.3-3.4-4.1-6-3.7c-3.5,0.5-5,4.2-5.6,7.2c1,0,1.9,0,2.9,0
				c-1.7-5.5-8.9-11.9-12.2-3.8c-2.9,7.1,2.3,15.5,8.7,18.5C986.9,500.3,988.4,497.7,986.7,496.9L986.7,496.9z" style="fill:#E8E8E8;"/>
		</g>
	</g>
</g>
<g id="guy">
	<g id="leg_back">
		<path d="M566.7,864.3c-2.3,15.6-4.6,31.3-6.9,46.9c-42.3,12.9-63,21.3-62.2,25c1,4.6,33.6,2.4,98-6.6
			c0.9-22.4,1.9-44.7,2.8-67.1C587.8,863.1,577.3,863.7,566.7,864.3z" style="fill:#161616;"/>
		<path d="M587.2,721.2c-2.1,1.6-3.3,3.4-7.8,12.1c-3.6,6.9-5.3,10.4-6.5,13c-8.1,18.4-16,47.3-16,47.3
			c-6.3,22.9-9.5,34.3-11.7,46.4c-3.2,17.1-4.5,31.6-5.2,42.1c5.9,2.7,13,5.4,21.3,7.4c19.6,4.7,36.5,3.3,47.7,1.3
			c2-14.1,4.8-29.4,8.7-45.5c3.4-14.4,7.3-27.7,11.3-39.9c4.3,2.7,10.6,6.9,18.2,12.1c24.9,17.3,32.7,25.7,47.3,35.1
			c9.6,6.2,23.8,14,43.4,20c4.5-0.6,16.8-2.8,27.3-13c15.8-15.5,14.2-36.5,13.9-39.5c-6.6-7-15.9-16.4-27.8-26.5
			c-21-17.8-39.1-28.7-52-36.4c-10.4-6.2-22-11.9-45.1-23.4c0,0-27.1-13.4-52-15.6C597.8,717.8,591.9,717.6,587.2,721.2z" style="fill:#FFFFFF;"/>
		<g>
			<g>
				<path d="M541.2,880.8c2.6-26.2,7.4-52.1,14.3-77.4c3.4-12.4,7.3-24.7,11.7-36.9c4.4-12.1,8.8-24.8,15-36.2
					c3.7-6.8,8.7-9.1,16.2-9.4c6.8-0.3,13.6,0.6,20.2,2.2c12.1,2.8,23.8,7.5,35.2,12.4c21.6,9.2,42.4,20.5,61.9,33.7
					c22.2,15,42.7,32.3,61.2,51.7c1.3,1.4,3.5-0.7,2.1-2.1c-35-36.5-77.2-65.9-123.7-85.8c-11.4-4.9-23-9.5-35.1-12.5
					c-10-2.4-25.5-5.7-34.6,0.8c-3.9,2.8-6.1,7.3-8.1,11.6c-2.6,5.7-5,11.5-7.4,17.3c-5.3,13.1-10,26.4-14.1,40
					c-8.9,29.5-14.9,59.9-17.9,90.6C538,882.7,541,882.7,541.2,880.8L541.2,880.8z" style="fill:#161616;"/>
			</g>
		</g>
		<g>
			<g>
				<path d="M540.6,882.2c20.6,11.6,44.8,14.9,67.8,9.2c1.9-0.5,1.1-3.4-0.8-2.9c-22.2,5.5-45.6,2.4-65.5-8.9
					C540.4,878.7,538.9,881.2,540.6,882.2L540.6,882.2z" style="fill:#161616;"/>
			</g>
		</g>
		<g>
			<g>
				<path d="M611.4,889.2c3.5-28.5,9.9-56.6,18.9-83.9c0.6-1.8-2.3-2.6-2.9-0.8c-9.1,27.6-15.4,55.9-19,84.7
					C608.2,891.1,611.2,891.1,611.4,889.2L611.4,889.2z" style="fill:#161616;"/>
			</g>
		</g>
		<g>
			<g>
				<path d="M621,802.4c40.1,20.4,70,59.6,115.1,70.1c1.9,0.4,2.7-2.5,0.8-2.9c-44.8-10.5-74.6-49.5-114.4-69.8
					C620.8,798.9,619.3,801.5,621,802.4L621,802.4z" style="fill:#161616;"/>
			</g>
		</g>
		<path d="M575.2,892.4c10.2-32.4,21.4-65.4,33.7-99c2.9-8,5.9-15.9,8.9-23.8c20.9,11,41.9,22,62.8,33
			c29.2,15.4,58.4,30.9,87.6,46.5c-0.8,3.7-3.7,13.8-12.8,19.2c-6.8,4-14.3,3.7-22.3,2.1c-24.8-5-40.4-20-71.6-43.3
			c-7.1-5.3-18-13.3-31.9-22.7c-2.7,7.6-5.3,15.5-7.8,23.8c-6.7,22.4-11,43.5-13.8,62.8c-5.8,1.5-13.5,2.8-22.3,2.5
			C581.8,893.3,578.3,892.9,575.2,892.4z" style="opacity:0.12;fill:#6D6C6C;"/>
		<path d="M627,803.3c-2.5-1-12.6,17.8-15.6,23.4c-7.7,14.3-17.7,35.4-27,63.5c1.9,0.8,4.3,1.7,7.1,2.1
			c7.4,1.3,13.4-0.5,16.7-1.8c5.3-27.8,10.7-49.9,14.9-65.6C625.7,815.1,628.8,804.1,627,803.3z" style="opacity:0.12;fill:#6D6C6C;"/>
	</g>
	<g id="leg_front">
		<path d="M470.5,876.4c-6.8,17.8-13.7,35.7-20.5,53.5c-39.9,13.3-59.3,22.1-58.4,26.4c1.1,5,29.7,4,85.8-3.1
			c6.7-21.7,13.4-43.3,20.2-65C488.5,884.3,479.5,880.4,470.5,876.4z" style="fill:#161616;"/>
		<path d="M527.8,702.5c-7.7,5.4-12.1,11.8-14.3,15.2c-9.6,14.5-14.5,21.8-17.8,28.2c-9.4,18.1-15.4,33.3-18.2,40.8
			c-9.5,25.1-14.3,45.5-18.7,63.8c-3.2,13.7-5.5,25.1-6.9,33c4,4.8,9.7,10.5,17.3,15.6c16,10.7,32.1,13.2,40.8,13.9
			c7.3-21.1,14.2-38.9,20-52.9c6.1-15,10.6-25,18.7-36.4c5.8-8.3,11.5-14.5,15.6-18.7c4.5,6.3,11,14.8,19.5,24.3
			c10.5,11.7,29.7,32.8,60.7,51.2c25.1,14.9,44.8,20.2,64.6,25.6c20.6,5.6,26.9,5,31.7,2.2c19.7-11.6,9.7-57.9,9.1-60.7
			c-19.3-14.8-33.6-27.9-43.4-37.3c-8.8-8.5-18.7-18.8-36-34.3c-4.6-4.1-9.4-8.4-16-13.9c-3.1-2.6-14.6-12-34.3-25.6
			c0,0-25-17.3-49.4-29.9c0,0-6.2-3.2-16.9-6.5c-8.9-2.7-12.6-2.9-16-2.2C536.7,698,533.2,698.8,527.8,702.5z" style="fill:#FFFFFF;"/>
		<g>
			<g>
				<path d="M524.9,702.8c-44.1,49-62.7,114.2-74.9,177.5c-0.4,1.9,2.5,2.7,2.9,0.8c12.1-62.8,30.4-127.6,74.1-176.2
					C528.4,703.5,526.2,701.3,524.9,702.8L524.9,702.8z" style="fill:#161616;"/>
			</g>
		</g>
		<g>
			<g>
				<path d="M451,883.8c14.6,16.9,34.7,28.2,56.7,31.8c1.9,0.3,2.7-2.6,0.8-2.9c-21.6-3.5-41.1-14.5-55.4-31
					C451.9,880.2,449.8,882.3,451,883.8L451,883.8z" style="fill:#161616;"/>
			</g>
		</g>
		<g>
			<g>
				<path d="M510.6,914.2c6.4-19.9,14-39.3,23-58.2c8.2-17.1,16.6-36.8,31.3-49.4c1.5-1.3-0.7-3.4-2.1-2.1
					c-14.9,12.8-23.5,32.7-31.7,50c-9.1,19.1-16.8,38.8-23.3,58.9C507.1,915.2,510,916,510.6,914.2L510.6,914.2z" style="fill:#161616;"/>
			</g>
		</g>
		<g>
			<g>
				<path d="M554.3,793.8c41.1,56.6,97.1,107.4,169.1,117c1.9,0.3,1.9-2.7,0-3c-70.8-9.4-126-59.8-166.5-115.5
					C555.7,790.8,553.1,792.3,554.3,793.8L554.3,793.8z" style="fill:#161616;"/>
			</g>
		</g>
		<g>
			<g>
				<path d="M527.4,704.8c16.5-12.1,37.5,1.3,52.7,9.5c15.7,8.4,30.8,17.7,45.5,27.8c29.6,20.5,56.9,44.3,81.3,70.8
					c1.3,1.4,3.4-0.7,2.1-2.1c-40.2-43.7-88.5-80.4-141.9-106.5c-12.8-6.3-28.5-11.3-41.2-2C524.4,703.3,525.9,705.9,527.4,704.8
					L527.4,704.8z" style="fill:#161616;"/>
			</g>
		</g>
		<path d="M474.6,899.2c6.6-13.6,18.2-37.6,32.5-67.9c27.5-57.9,32.1-69.1,44.7-73.4c21.8-7.3,42.5,14.6,90.4,48.8
			C669,825.9,705.9,850,753,874.3c0.9,5.2,2.8,19.4-5.5,28.4c-3.7,3.9-12.1,9.9-38.1,5.5c-10-1.7-56.8-10.6-113.6-67.2
			c-14.3-14.2-24.9-27.2-31.9-36.4c-2.9,3.4-7.3,8.9-12.1,15.9c-8.4,12.4-14,23.7-27,55c-4.2,10-9.4,22.8-15.2,37.7
			c-3.8,0.2-11,0.2-19-3.1C482.4,907,477.2,902,474.6,899.2z" style="opacity:0.13;fill:#6D6C6C;"/>
		<path d="M556,791.2c3.9,2,9.6,5,16.3,9c42.3,25.2,43.3,40.5,74.8,59.2c24.5,14.5,33.7,11.1,58.9,30.1
			c9.8,7.4,17.1,14.5,21.8,19.4c-9.7-0.8-23.1-2.8-38.4-7.6c-20-6.3-33.8-14.6-44-20.8c-5.1-3.1-26.3-16.2-49.5-39.5
			C584.3,829.5,569.8,813.1,556,791.2z" style="opacity:0.12;fill:#6D6C6C;"/>
		<path d="M560.5,805c-1.4-1.8-11.9,2.7-21.1,9.7c-16.6,12.5-21.3,27-36.7,55.4c-4.5,8.3-11.3,20.4-20.4,34.6
			c8.9,3.6,17.8,7.2,26.7,10.7c2-5.4,17.3-46.3,28.7-71c3.7-7.9,5.7-12.3,9.3-18.3C555,812.9,561.8,806.7,560.5,805z" style="opacity:0.12;fill:#6D6C6C;"/>
	</g>
	<g id="hand_back">
		<path d="M975.5,633.3c2.6,1.4,2.5,2.9,5.8,5.7c2.7,2.3,3.7,2,4.8,3.9c1.2,2.1,1.4,4.5,1.4,6.1c1.1,0,3.1,0.3,5.2,1.8
			c0.6,0.4,4.7,3.3,5.8,9.6c0.8,4.3-0.2,7.9-0.7,9.2c1.1,1,2.8,2.8,3.4,5.7c0.8,3.6-0.3,6.9-1.7,10.5c-4.1,10.1-7.8,14.3-12,22.8
			c-1.3,2.5-3,6.4-4.8,11.4c-0.1,3.8-0.1,10,0.7,17.5c1.2,11.2,3.4,19.3,4.1,21.9c3.5,13,9.7,43.4,10.3,71.3
			c0.3,14.3,0.6,37.2-9.3,60.6c-3.7,8.8-9.2,21.2-20.3,26.3c-1.8,0.8-14.7,6.7-23.7-2.6c-3.3-3.4-5-7.6-5.8-10.5
			c-0.2-1.5-0.4-3.8-0.3-6.6c0.3-12.1,5.9-20.8,7.9-24.1c6.8-11.5,8.9-24.3,12.4-46c2.2-13.4,1.7-25,0.7-47.8
			c-0.7-15.6-2.2-36.7-5.5-61.8c-1.7-0.5-3.9-1.5-5.5-3.9c-2.4-3.7-1-7.1-2.8-13.6c-1.4-4.9-2.5-4-4.8-10.5c-1.7-4.7-3.3-9-2.4-14
			c0.2-1,1.1-6.9,4.5-8.3c4.3-1.9,9.1,4.9,10.3,6.6c2.4,3.4,3.6,7,4.1,9.2c2.4-4,4.9-8.8,7.2-14.5c1.1-2.6,2-5.1,2.8-7.5
			c-0.4-2.2-0.9-5.4-1.3-9.3c-0.5-5.2-0.7-7.9-0.1-11.3c0.4-2.3,1.4-7.4,4.5-8.8C972.3,631.6,974.4,632.7,975.5,633.3z" style="fill:#FFFFFF;"/>
		<g>
			<g>
				<path d="M985.3,716.6c4.9-8.8,10.7-17.6,14.7-26.9c2.9-6.8,4.1-15-0.4-21.4c-1.1-1.6-3.7-0.1-2.6,1.5
					c5.2,7.3,1.7,16.4-2.1,23.5c-4,7.3-8.1,14.5-12.2,21.8C981.7,716.8,984.3,718.3,985.3,716.6L985.3,716.6z" style="fill:#161616;"/>
			</g>
		</g>
		<g>
			<g>
				<path d="M992.4,684.9c7.3-9.7,13.2-33.1-3.8-36.9c-1.9-0.4-2.7,2.5-0.8,2.9c14.8,3.3,8.1,24.3,2,32.5
					C988.7,684.9,991.3,686.4,992.4,684.9L992.4,684.9z" style="fill:#161616;"/>
			</g>
		</g>
		<g>
			<g>
				<path d="M984.5,676c6.9-9.9,7.4-23.5,2.1-34.2c-0.9-1.7-3.4-0.2-2.6,1.5c4.8,9.8,4.2,22.2-2.1,31.2
					C980.8,676,983.4,677.5,984.5,676L984.5,676z" style="fill:#161616;"/>
			</g>
		</g>
		<g>
			<g>
				<path d="M978.6,668.3c2.8-8.8,3.7-18.4,1.7-27.5c-1.1-4.9-6-13.5-12.1-8.8c-5.7,4.4-3.1,16.5-2.5,22.4
					c0.6,5.9-0.1,10.1-3.2,15.2c-2.7,4.4-4.9,9-6.6,13.9c-0.7,1.8,2.2,2.6,2.9,0.8c2.3-6.5,6.4-11.8,9.1-18
					c2.5-5.8,0.8-12.1,0.4-18.2c-0.2-2.8-1-7.3,0.1-10c0.1-2.1,1.4-2.5,3.9-1.4c2.8-1.1,4.4-0.3,4.7,2.5c0.7,1.9,1,4.1,1.2,6.1
					c0.8,7.5,0,14.9-2.3,22.1C975.2,669.4,978,670.2,978.6,668.3L978.6,668.3z" style="fill:#161616;"/>
			</g>
		</g>
		<g>
			<g>
				<path d="M987.7,643.3c-1.2-4.6-6.4-8.3-10.9-5.2c-1.6,1.1-0.1,3.7,1.5,2.6c2.8-1.9,5.7,0.6,6.5,3.4
					C985.3,646,988.2,645.2,987.7,643.3L987.7,643.3z" style="fill:#161616;"/>
			</g>
		</g>
		<g>
			<g>
				<path d="M957.7,681.1c-1.6-5.9-5.5-13.4-12.1-14.6c-6.3-1.2-8.5,4.9-8.7,10c-0.5,9.6,4.6,16.2,7.1,25
					c2,7.1,1.4,14.2,8.6,18.4c1.7,1,3.2-1.6,1.5-2.6c-5.4-3.1-5.6-8.5-6.7-14c-0.8-4.4-2.9-8.1-4.7-12.2c-2.1-4.7-4.4-12-2.6-17.1
					c0.1-0.5,0.2-0.9,0.3-1.4c2.3-0.7,4.6-1.5,6.8-2.2c1.3,0.4,2.9,2.5,3.8,3.5c1.9,2.4,3,5,3.7,8
					C955.3,683.8,958.2,683,957.7,681.1L957.7,681.1z" style="fill:#161616;"/>
			</g>
		</g>
		<g>
			<g>
				<path d="M952,718.4c4.2,34.7,8.7,70.7,5.6,105.6c-1.5,16.5-5.6,31.8-12.2,46.9c-5.4,12.4-9.3,24.1-6.7,37.7
					c0.4,1.9,3.3,1.1,2.9-0.8c-2.9-15.2,3.3-27.7,9-41.3c6-14.1,9-29.1,10.2-44.3c2.7-34.4-1.6-69.7-5.7-103.8
					C954.7,716.5,951.7,716.5,952,718.4L952,718.4z" style="fill:#161616;"/>
			</g>
		</g>
		<g>
			<g>
				<path d="M982.3,714c-2.4,6.9-1.2,14.6-0.4,21.7c0.9,7.5,2.1,15,3.5,22.4c3.1,16.3,7,32.4,9.1,48.9
					c2.1,16.2,2.2,32.6,0.4,48.8c-1.8,16.1-4.9,33.7-13.9,47.5c-4.3,6.6-10.7,13-18.8,14.5c-8.7,1.7-16.6-3.5-20.7-11
					c-0.9-1.7-3.5-0.2-2.6,1.5c5.8,10.5,17.7,15.7,29,10.7c13.4-5.9,20.5-20.9,24.4-34.2c10.3-35,7.4-71.5,0.3-106.8
					c-2-10-4.2-20-5.8-30.1c-0.9-5.4-1.6-10.8-2.2-16.2c-0.5-5.7-1.3-11.7,0.6-17.2C985.9,713,983,712.2,982.3,714L982.3,714z" style="fill:#161616;"/>
			</g>
		</g>
		<path d="M992.1,651.7c0.3,5,0.3,11.4-0.9,18.4c-3.2,19.2-12.7,31.3-17.1,36.1c-0.1,5.7-0.3,14.5,0,25.1
			c1.2,47.6,8.6,70.9,9.8,93.2c1.2,21.7-2.8,53.4-27.8,94.4c3.3,0.3,8.5,0.3,13.9-2.6c4.9-2.6,12.5-8.6,19.4-28.7
			c6.3-18.4,13.2-52.1,5.5-90.7c-3.4-16.8-8.6-30-11.3-58.2c-0.7-7.5-1-13.8-1.2-18.1c1.7-4,4.2-9.5,7.8-15.5
			c5.9-9.9,9.7-13.2,10.7-20.3c0.7-5-0.3-10.1-2.3-15.1c0.2-1.3,1-6.6-1.4-11.8C995.6,654.2,993.2,652.4,992.1,651.7z" style="opacity:0.1;fill:#6D6C6C;"/>
		<path d="M982,728c-0.5,0.1,1.1,17.5,4.3,52.3c2.9,30.7,4.3,46,4.3,47.2c1,45.6-13,77.8-10.7,78.9
			c1.6,0.8,9.6-15.4,14.2-35c6.3-27.1,3.8-50.6,2.3-64.1c-1.4-11.9-1.9-8.6-9-49C983.9,738,982.5,727.9,982,728z" style="opacity:0.11;fill:#6D6C6C;"/>
	</g>
	<g id="torso">
		<path d="M754.2,794.4c-5,5.9-12.2,15.3-18.5,28.1c-9.5,19.3-12.2,36.3-14.7,52.9c-1.4,9.1-2.8,22-2.7,37.6
			c31.2,8.3,59,12.8,81.8,15.2c29.6,3.2,20.9-0.7,95.6,1.9c37.3,1.3,56.5,2.6,61.8-7.6c4.4-8.6-6.4-17.2-7-37
			c-0.5-15.9,5.8-28.9,10.8-37c-29.5-11.9-63.6-23.7-102-33.7C821.1,804.8,785.7,798.4,754.2,794.4z" style="fill:#EC615B;"/>
		<path d="M738.3,819.1c7.3,14.6,22.7,39.6,51.4,53.6c11.2,5.5,23.9,9,61.3,10.9c24.2,1.2,57.8,1.8,98.5-1.5
			c-0.6,8.7,1.2,14.9,2.9,19c2.6,6.1,6.2,9.6,5.8,16c-0.1,1.5-0.3,5.3-2.9,8.4c-3.6,4.2-9.5,4.6-12.4,4.7
			c-28.8,1.4-38.7,0.4-38.7,0.4c-24.2-2.6-45.7-2-63.5-1.5c-7.7,0.2-11.8,0.5-20.1,0.4c-4.6-0.1-17.3-0.4-35.7-2.9
			c-27.1-3.7-52.1-10-66-13.9c-0.3-17.9,1.3-32.7,2.9-43.4c2.5-16.4,5.5-25.5,6.6-28.4C731.6,831.7,735.3,824.3,738.3,819.1z" style="opacity:0.12;fill:#6D6C6C;"/>
		<path d="M727.3,845.3c3.9,7.9,10.6,19.1,21.9,29.5c19,17.4,39.5,22,63.8,27.7c51.5,12.2,104,26.1,103.6,28.4
			c-0.2,1.4-19.8-1.8-53.6-2.2c-8.2-0.1-13.5-0.2-21.2,0c-15,0.3-19.1,1.1-28.1,0.7c-9.7-0.4-16.8-1.8-24.4-3.3
			c-30.5-6.1-60.9-12.8-70.7-15c0.1-6.4,0.5-13.1,1.1-20.1C721.2,874.3,724,858.9,727.3,845.3z" style="opacity:0.1;fill:#6D6C6C;"/>
	</g>
	<g id="head">
		<path d="M1019.3,903.7c-21.2,3-33.3,3.6-53.1,9.2c-9.2,2.6-16.6,5.3-21.5,7.3c-3.1-8.7-6.8-22.8-5.2-40
			c0.9-10.2,3.4-18.7,6-25.1c5.5,1.4,12.4,2.7,20.5,3.2c10.1,0.6,18.7-0.2,25.2-1.3c2.5-9,4.9-17.9,7.4-26.9
			c4.5-1.2,9.1-2.5,13.6-3.7c0.4-2.5,0.9-5,1.3-7.5c5.6,2.6,14.5,6.8,25.6,11.5c20.9,9,23.9,9.3,28.4,13.3
			c12.1,10.9,17.9,32.6,9,45.1C1071.1,896.3,1053.8,898.8,1019.3,903.7z" style="fill:#FFFFFF;stroke:#161616;stroke-width:2;stroke-miterlimit:10;"/>
		<g>
			<g>
				<path d="M1011.8,818.7c-0.7,4.7-1,9.4-0.8,14.2c0.1,1.9,3.1,1.9,3,0c-0.2-4.5,0.1-8.9,0.7-13.4
					C1014.9,817.6,1012,816.8,1011.8,818.7L1011.8,818.7z" style="fill:#161616;"/>
			</g>
		</g>
		<g>
			<g>
				<path d="M1044.4,844.2c0.8,3.7-1.5,7-4.7,8.5c-1.8,0.8-0.2,3.4,1.5,2.6c4.6-2.1,7.1-7,6.1-11.9
					C1046.9,841.5,1044,842.3,1044.4,844.2L1044.4,844.2z" style="fill:#161616;"/>
			</g>
		</g>
		<g>
			<g>
				<path d="M1033.1,843.2c1.1,0.1,2.3,0.4,3.2,1.2c0.2,0.2,0.4,0.4,0.6,0.6c0.6-0.5,0.7-0.8,0.2-0.7
					c-0.3-0.2-1.1-0.2-1.4-0.3c-0.5-0.2-1-0.3-1.5-0.6c-0.3-0.1-0.5-0.3-0.8-0.5c-0.8,0.5-0.9,0.9-0.2,1.1c0.4,0.4,1.2,0.8,1.7,1.1
					c0.6,0.4,1.1,0.7,1.7,1.1c1.6,1,2.8-1.1,1.8-2.4c-0.6-0.8-1.3-1.2-2.2-1.6c-1.8-0.7-2.6,2.2-0.8,2.9c0.4,0.2,0.6,0.5,0.9,0.8
					c0.6-0.8,1.2-1.6,1.8-2.4c-1.4-0.9-2.7-1.9-4.1-2.6c-1.1-0.6-2.5-0.4-3.2,0.7c-1.8,2.7,2.1,4.6,4.1,5.2c1.1,0.3,2.4,0.6,3.5,0.2
					c1.2-0.4,1.8-1.7,1.4-2.9c-0.8-2.6-4.3-3.7-6.7-3.9C1031.1,840.1,1031.2,843.1,1033.1,843.2L1033.1,843.2z" style="fill:#161616;"/>
			</g>
		</g>
		<path d="M1062.4,839.6c4.3,1.2,11.4,3.8,18.3,9.2c2.4,1.9,7.6,6,10.7,11.9c5.9,11.2,3.2,26.9-7.1,37.3
			c-10.1,10.1-26.3,13.7-41.4,9.2C1049.4,884.7,1055.9,862.2,1062.4,839.6z" style="fill:#5222D0;"/>
		<g>
			<g>
				<path d="M1067.3,801.3c-9.4,34.8-18.8,69.6-28.2,104.4c-1.5,5.6,7.2,8,8.7,2.4c9.4-34.8,18.8-69.6,28.2-104.4
					C1077.5,798.1,1068.8,795.7,1067.3,801.3L1067.3,801.3z" style="fill:#161616;"/>
			</g>
		</g>
		<path d="M1046.9,884.4c-1.6-6.6-5.8-10.8-10.7-15.7c-10.4-10.4-15-8.3-21.5-15.5c-10.2-11.5-2.1-20.7-12.2-31.1
			c-8.6-8.8-21.6-9.5-24.6-9.6c-2.9-0.1-14.6-0.2-23.6,7.5c-7.8,6.7-10.7,16.8-9.3,17.6c0.5,0.3,2-0.4,6.8-5.5
			c-1.5,1.5-3.3,3.9-4.4,7.1c-1.2,3.8-1,7.5-0.4,7.6c0.5,0.1,0.7-2,2.8-3.4c1.2-0.8,2.6-1.1,3.6-1.1c-2.6,2.8-5,6.5-4.2,10.3
			c2,10.6,25.8,15.5,33.7,17.1c25.6,5.3,40.6,0.2,48.6,9.8c0.7,0.8,3.9,4.7,2.7,8.3c-1.6,4.6-9.9,7.2-14.9,5
			c-4.3-1.9-4.9-6.8-5.8-6.6c-1.1,0.3-0.5,8.5,4.3,16c1.8,2.7,3.2,4.9,6.1,6.4c5.1,2.5,11.6,1.2,15.5-1.2
			C1047.7,902.7,1048.7,891.6,1046.9,884.4z" style="fill:#161616;stroke:#161616;stroke-width:2;stroke-miterlimit:10;"/>
		<path d="M1012.3,889.5c0-1.5,0.2-3.7,0.8-3.7c0.3,0,0.6,0.6,0.6,0.5c0,0-2.2-2.1-2.2-4.4c0-1.1,0.5-2,0.9-2.5
			c-9.6,2.8-21,5.5-34,7.3c-14.3,2-27.1,2.5-38,2.3c-0.5,4.1-0.8,9.9,0.6,16.8c1.1,5.6,3,10.2,4.7,13.6c15.5-6.7,27.5-9.5,35.6-10.9
			c3.8-0.6,12.8-2,17.2-2.6c8-1.2,14.6-2.1,19.1-2.7c-0.5-0.7-1.3-1.8-2.1-3.2C1014.4,898.1,1012.3,894.2,1012.3,889.5z" style="opacity:0.22;fill:#6D6C6C;"/>
		<path d="M1094.2,874.3c-3.2,8.9-11.9,14.8-21.4,14.7c-11.2-0.2-17.8-8.8-18.4-9.6c-2.6,9.6-5.1,19.3-7.7,28.9
			c2.4,0.5,5.7,1,9.7,0.9c12.6-0.3,21.2-6,23-7.3c2.8-1.9,12-8.9,14.3-20.8C1094.2,878.3,1094.2,875.9,1094.2,874.3z" style="fill:#321693;"/>
	</g>
	<g id="phone">
		<path d="M915.9,669.1c4.4,6.1,9.4,12.5,15.2,19.1c7.8,8.9,15.5,16.4,22.7,22.7c10.3-10,21.2-20.1,32.7-30.4
			c10.9-9.8,21.7-19,32.3-27.7c-2.5-5.1-5.9-11-10.4-17c-8.8-11.7-18.5-19.5-25.9-24.5c-16.9,11.9-34.7,26.1-52.3,43.2
			C925.2,659.5,920.5,664.3,915.9,669.1z" style="fill:#FFFFFF;"/>
		<g>
			<g>
				<path d="M936.2,651.8c14.3-14.2,29.6-27.3,45.9-39.1c1.5-1.1,0.1-3.7-1.5-2.6c-16.5,12-32.1,25.2-46.5,39.6
					C932.7,651.1,934.8,653.2,936.2,651.8L936.2,651.8z" style="fill:#161616;"/>
			</g>
		</g>
		<g>
			<g>
				<path d="M981.4,612.1c14.4,10.9,26.5,24.4,35.9,39.8c1,1.6,3.6,0.1,2.6-1.5c-9.7-15.9-22.2-29.6-37-40.9
					C981.4,608.4,979.9,611,981.4,612.1L981.4,612.1z" style="fill:#161616;"/>
			</g>
		</g>
		<g>
			<g>
				<path d="M935.7,648.3c-7.3,6.3-14.3,13-20.9,20.1c-1.3,1.4,0.8,3.5,2.1,2.1c6.6-7.1,13.5-13.8,20.9-20.1
					C939.3,649.1,937.2,647,935.7,648.3L935.7,648.3z" style="fill:#161616;"/>
			</g>
		</g>
		<g>
			<g>
				<path d="M915.2,671.2c11.4,14,23.6,27.2,36.7,39.7c1.4,1.3,3.5-0.8,2.1-2.1c-13-12.5-25.3-25.7-36.7-39.7
					C916.1,667.5,913.9,669.7,915.2,671.2L915.2,671.2z" style="fill:#161616;"/>
			</g>
		</g>
		<g>
			<g>
				<path d="M955.2,711.5c21.1-20.1,42.8-39.5,65-58.3c1.5-1.2-0.7-3.4-2.1-2.1c-22.2,18.8-43.9,38.3-65,58.3
					C951.7,710.7,953.8,712.8,955.2,711.5L955.2,711.5z" style="fill:#161616;"/>
			</g>
		</g>
		<g>
			<g>
				<path d="M927.6,670.2c6.8,8.8,13.9,17.4,21.2,25.7c1.3,1.5,3.4-0.7,2.1-2.1c-7.3-8.4-14.4-17-21.2-25.7
					C928.6,666.5,926.5,668.7,927.6,670.2L927.6,670.2z" style="fill:#161616;"/>
			</g>
		</g>
		<g>
			<g>
				<path d="M929.8,670.2c15.2-16.7,33.1-30.4,50.9-44.1c1.5-1.2,0-3.8-1.5-2.6c-18.1,13.8-36.2,27.7-51.5,44.5
					C926.3,669.5,928.5,671.6,929.8,670.2L929.8,670.2z" style="fill:#161616;"/>
			</g>
		</g>
		<g>
			<g>
				<path d="M981,626.1c9.2,6.9,17.6,14.6,25.3,23.1c1.3,1.4,3.4-0.7,2.1-2.1c-7.9-8.7-16.5-16.5-25.9-23.6
					C980.9,622.4,979.4,625,981,626.1L981,626.1z" style="fill:#161616;"/>
			</g>
		</g>
		<g>
			<g>
				<path d="M950.6,696.7c5.1-0.2,9-2.7,13-5.7c5.2-4,10.3-8.1,15.3-12.4c10.6-8.9,20.7-18.3,30.4-28
					c1.4-1.4-0.8-3.5-2.1-2.1c-8.4,8.5-17.2,16.6-26.2,24.5c-4.4,3.8-8.9,7.5-13.4,11.2c-4.9,3.9-10.3,9.4-17,9.6
					C948.7,693.7,948.7,696.7,950.6,696.7L950.6,696.7z" style="fill:#161616;"/>
			</g>
		</g>
		<path d="M976.4,613c-2.4,4.5-5.9,11-10,18.9c-10.2,19.8-15.4,29.8-17,36.1c-2.1,8.2-3.7,22.6,4.8,42.9
			c-12.7-13.5-25.4-27.1-38.1-40.6C936.2,651.2,956.3,632.1,976.4,613z" style="opacity:0.11;fill:#6D6C6C;"/>
		<g>
			<g>
				<path d="M966,645.4c4.8,4.9,9.3,10.1,13.5,15.5c1.2,1.5,3.3-0.6,2.1-2.1c-4.2-5.4-8.7-10.6-13.5-15.5
					C966.8,641.9,964.7,644,966,645.4L966,645.4z" style="fill:#E8E8E8;"/>
			</g>
		</g>
		<g>
			<g>
				<path d="M967.2,645c2.3-1.5,4.7-2.9,7-4.4c1.2-0.8,2.5-2,3.9-2.4c1.9-0.7,0.7-1.1,2.2-0.3c1.8,0.9,3.8,4.8,5.1,6.4
					c1.9,2.4,3.7,4.7,5.6,7.1c1.2,1.5,3.3-0.6,2.1-2.1c-2.4-3.1-4.9-6.2-7.3-9.3c-1.2-1.6-3.1-5.4-5.2-5.9c-1.5-0.3-2.8,0.7-4,1.5
					c-3.7,2.2-7.3,4.6-10.9,6.8C964.1,643.5,965.6,646.1,967.2,645L967.2,645z" style="fill:#E8E8E8;"/>
			</g>
		</g>
		<g>
			<g>
				<path d="M981.3,660.8c4.2-1.8,7.9-4.4,11.1-7.6c1.4-1.4-0.8-3.5-2.1-2.1c-3.1,3-6.6,5.4-10.5,7.1
					C978,659,979.5,661.6,981.3,660.8L981.3,660.8z" style="fill:#E8E8E8;"/>
			</g>
		</g>
		<g>
			<g>
				<path d="M974.5,650.7c1.3-1.3,2.5-2.6,4.5-2.3c1.1,0.2,1.5,0.4,2.7,0.2c1-0.2,1.3-1.4,0.9-2.2
					c-0.9-1.5-1.7,1-1.7,1.9c0,0.8,0.3,1.7,0.9,2.3c1.5,1.6,3.7,1.2,5.5,0.4c1.8-0.7,1-3.6-0.8-2.9c-0.7,0.3-1.4,0.5-2.2,0.6
					c-0.3-0.7-0.3-1.4,0-2.1c0-0.7,0.1-1.3-0.1-2c-0.3-1-1.1-1.9-2.2-2c-3.2-0.4-3.2,3.4-2,5.4c0.3-0.7,0.6-1.5,0.9-2.2
					c-0.8,0.1-1.8-0.5-2.6-0.5c-0.6,0-1.3,0.2-1.9,0.4c-1.6,0.6-2.8,1.8-3.9,3C971,650,973.2,652.1,974.5,650.7L974.5,650.7z" style="fill:#E8E8E8;"/>
			</g>
		</g>
		<g>
			<g>
				<path d="M973,644.3c1.4,0.1,2.7,0,4-0.3c1.9-0.4,1.1-3.3-0.8-2.9c-1.1,0.2-2.1,0.3-3.2,0.2
					c-0.8-0.1-1.5,0.7-1.5,1.5C971.5,643.7,972.2,644.2,973,644.3L973,644.3z" style="fill:#E8E8E8;"/>
			</g>
		</g>
		<g>
			<g>
				<path d="M950.1,658.7c4.6,5.3,9.2,10.5,13.9,15.6c1.3,1.4,3.4-0.7,2.1-2.1c-4.7-5.1-9.4-10.3-13.9-15.6
					C951,655.1,948.9,657.2,950.1,658.7L950.1,658.7z" style="fill:#E8E8E8;"/>
			</g>
		</g>
		<g>
			<g>
				<path d="M952.5,659.1c1-1.8,1.5-3.3,3.6-3.4c1.8-0.1,2.9,1.3,4.1,2.4c1.7,1.5,3.1,3.3,4.8,4.9
					c1.3,1.2,2.7,2.4,4.2,3.4c1.3,0.9,2.5,1.4,1.1,3.1c-0.8,1-2.9,1.4-4.1,1.8c-1.8,0.6-1,3.5,0.8,2.9c2.7-0.9,7-2.3,7.9-5.5
					c0.4-1.3,0.1-1.9-0.8-2.8c-1.9-1.7-4.5-2.8-6.4-4.6c-3.2-2.9-6-7.2-10.1-8.9c-3.9-1.5-5.9,2.1-7.6,5.1
					C949,659.2,951.6,660.8,952.5,659.1L952.5,659.1z" style="fill:#E8E8E8;"/>
			</g>
		</g>
	</g>
	<g id="hand_front">
		<path d="M922,647.5c-3.4,1.4-3.2,2.9-7.5,5.7c-3.5,2.3-4.7,2-6.1,3.9c-1.6,2.1-1.8,4.5-1.8,6.1
			c-1.4,0-3.9,0.3-6.6,1.8c-0.8,0.4-6,3.3-7.5,9.6c-1,4.3,0.3,7.9,0.9,9.2c-1.4,1-3.5,2.8-4.4,5.7c-1.1,3.6,0.3,6.9,2.2,10.5
			c5.2,10.1,9.9,14.3,15.3,22.8c1.6,2.5,3.9,6.4,6.1,11.4c0.1,3.8,0.1,10-0.9,17.5c-1.5,11.2-4.4,19.3-5.3,21.9
			c-4.5,13-12.4,43.4-13.2,71.3c-0.4,14.3-0.8,37.2,11.8,60.6c4.7,8.8,11.7,21.2,25.9,26.3c2.2,0.8,18.7,6.7,30.2-2.6
			c4.2-3.4,6.3-7.6,7.5-10.5c0.3-1.5,0.5-3.8,0.4-6.6c-0.4-12.1-7.6-20.8-10.1-24.1c-8.7-11.5-11.3-24.3-15.8-46
			c-2.8-13.4-2.2-25-0.9-47.8c0.9-15.6,2.7-36.7,7-61.8c2.1-0.5,5-1.5,7-3.9c3-3.7,1.2-7.1,3.5-13.6c1.7-4.9,3.1-4,6.1-10.5
			c2.2-4.7,4.1-9,3.1-14c-0.2-1-1.5-6.9-5.7-8.3c-5.4-1.9-11.6,4.9-13.1,6.6c-3.1,3.4-4.5,7-5.3,9.2c-3.1-4-6.3-8.8-9.2-14.5
			c-1.3-2.6-2.5-5.1-3.5-7.5c0.5-2.2,1.2-5.4,1.7-9.3c0.6-5.2,0.9-7.9,0.1-11.3c-0.6-2.3-1.8-7.4-5.7-8.8
			C926.1,645.7,923.4,646.8,922,647.5z" style="fill:#FFFFFF;"/>
		<g>
			<g>
				<path d="M912.5,729.2c-5-7-10.1-14-15-21.1c-4.7-6.8-10.2-16.4-3.4-23.9c1.3-1.4-0.8-3.6-2.1-2.1
					c-5.3,5.8-4.7,13.7-1.4,20.4c5,10,12.9,19.1,19.4,28.2C911,732.3,913.6,730.8,912.5,729.2L912.5,729.2z" style="fill:#161616;"/>
			</g>
		</g>
		<g>
			<g>
				<path d="M903.1,697.2c-4.8-5-8.8-11.8-8.7-18.9c0.1-6.9,5.1-12.1,11.7-13.2c1.9-0.3,1.1-3.2-0.8-2.9
					c-7.1,1.2-12.8,6.7-13.8,13.9c-1.2,8.6,3.7,17.3,9.5,23.3C902.3,700.8,904.4,698.6,903.1,697.2L903.1,697.2z" style="fill:#161616;"/>
			</g>
		</g>
		<g>
			<g>
				<path d="M913.2,688.3c-7.7-8.6-8.6-21.2-2.5-30.9c1-1.6-1.6-3.1-2.6-1.5c-6.9,10.9-5.6,25,2.9,34.5
					C912.4,691.9,914.5,689.8,913.2,688.3L913.2,688.3z" style="fill:#161616;"/>
			</g>
		</g>
		<g>
			<g>
				<path d="M921.3,681.7c-3.2-7.8-4.4-16.5-2.4-24.8c1.1-4.7,7.1-13.6,11.9-6.4c2,3,1.3,7.5,1,10.9
					c-0.5,6.4-2.8,13.4,0.5,19.4c1.6,2.8,4,5.2,5.8,7.8c2.3,3.2,4.1,6.7,5.8,10.3c0.8,1.8,3.4,0.2,2.6-1.5
					c-2.1-4.6-4.7-8.9-7.8-12.9c-1.8-2.4-4.1-4.6-4.9-7.6c-0.8-2.9,0-6.1,0.3-9.1c0.8-6.1,3.3-17.5-3.3-21.6
					c-5.9-3.7-12.2,1.8-14.1,7.2c-3.4,9.3-2,20.2,1.6,29.2C919.1,684.3,922,683.5,921.3,681.7L921.3,681.7z" style="fill:#161616;"/>
			</g>
		</g>
		<g>
			<g>
				<path d="M909.7,658.3c1.2-3.5,5.6-5.1,8.9-3.4c1.7,0.9,3.2-1.7,1.5-2.6c-5-2.7-11.4-0.1-13.3,5.2
					C906.1,659.3,909,660.1,909.7,658.3L909.7,658.3z" style="fill:#161616;"/>
			</g>
		</g>
		<g>
			<g>
				<path d="M948,696.1c1.1-3.2,2.7-6,5.1-8.3c1-0.9,2.1-1.8,3.3-2.5c2.8-1.6,4-1.6,7.1-0.5c3.6,1.3,4.1,2.1,4.4,5.9
					c0.1,1.2,0.1,2.4,0,3.6c-0.3,3.8-1.7,7.4-3.5,10.7c-2.1,3.8-4.7,7.3-5.9,11.6c-1.8,6.5-1.9,11.8-8.9,14.9
					c-1.8,0.8-0.2,3.4,1.5,2.6c3-1.3,5.5-3.3,7.2-6.1c2.3-3.7,2.1-8.1,3.5-12.1c1.6-4.4,4.7-8.1,6.7-12.3c1.8-4,2.7-8.4,2.4-12.8
					c-0.4-6-3.9-11-10.5-10c-7.5,1.1-13,7.8-15.3,14.6C944.4,697.1,947.3,697.9,948,696.1L948,696.1z" style="fill:#161616;"/>
			</g>
		</g>
		<g>
			<g>
				<path d="M948.6,732.2c-2.8,18.2-5.1,36.5-6.7,54.8c-1.4,16.4-2.3,32.9-0.7,49.4c1.5,15.1,5.3,29.8,12.4,43.2
					c7.2,13.7,16.1,26.2,12.1,42.5c-0.5,1.9,2.4,2.7,2.9,0.8c3.4-14.1-1.8-25.6-8.5-37.7c-8-14.3-13.4-28.9-15.5-45.3
					c-2-16.4-1.3-32.9,0-49.3c1.6-19.2,3.9-38.4,6.9-57.5C951.8,731.1,948.9,730.3,948.6,732.2L948.6,732.2z" style="fill:#161616;"/>
			</g>
		</g>
		<g>
			<g>
				<path d="M910.1,729.3c2,4.4,1.5,9.3,1,14c-0.6,5.3-1.4,10.6-2.5,15.9c-1.8,9.3-4.3,18.5-6.7,27.7
					c-4.7,18.1-9.2,36.2-9.8,54.9c-0.6,18.5,1.8,37.6,7.9,55.1c5.1,14.6,14.1,28.7,28.6,35.2c13.7,6.1,30.6,3.2,39.4-9.6
					c1.1-1.6-1.5-3.1-2.6-1.5c-9.7,14-29,13.7-42,4.7c-14-9.7-20.4-26.4-24.2-42.3c-4.2-17.6-5.3-36-3.3-53.9
					c2-17.6,7-34.6,11.3-51.7c2.3-9.2,4.5-18.4,5.8-27.8c1.1-7.3,2.6-15.3-0.6-22.2C911.9,726,909.3,727.6,910.1,729.3L910.1,729.3z
					" style="fill:#161616;"/>
			</g>
		</g>
		<path d="M900.9,665.8c-0.4,5-0.4,11.4,1.1,18.4c4.1,19.2,16.2,31.3,21.7,36.1c0.2,5.7,0.3,14.5,0,25.1
			c-1.5,47.6-10.9,70.9-12.5,93.2c-1.5,21.7,3.6,53.4,35.4,94.4c-4.3,0.3-10.8,0.3-17.7-2.6c-6.2-2.6-15.9-8.6-24.7-28.7
			c-8-18.4-16.8-52.1-7-90.7c4.3-16.8,11-30,14.4-58.2c0.9-7.5,1.3-13.8,1.5-18.1c-2.2-4-5.4-9.5-10-15.5
			c-7.5-9.9-12.4-13.2-13.6-20.3c-0.9-5,0.3-10.1,2.9-15.1c-0.3-1.3-1.2-6.6,1.8-11.8C896.4,668.4,899.5,666.6,900.9,665.8z" style="opacity:0.1;fill:#6D6C6C;"/>
		<path d="M913.8,742.1c0.7,0.1-1.4,17.5-5.5,52.3c-3.7,30.7-5.5,46-5.5,47.2c-1.3,45.6,16.5,77.8,13.6,78.9
			c-2.1,0.8-12.2-15.4-18.1-35c-8.1-27.1-4.9-50.6-2.9-64.1c1.7-11.9,2.4-8.6,11.4-49C911.3,752.1,913.1,742,913.8,742.1z" style="opacity:0.11;fill:#6D6C6C;"/>
	</g>
</g>
<g id="backpack">
	<path d="M434.3,1027.9c-0.9-2.4-2.6-5.9-5.6-9.4c-3.3-3.9-6.1-5.3-8.3-6.9c-3.9-3-5.4-6.7-11.8-34.4
		c-3-13.2-3.3-14.7-2.8-17.4c1.3-7,5-9.4,6.9-18.4c0.9-4.3,0.9-7.4,0.7-13.2c-0.3-8.8-0.5-17.8-4.2-28.1c-3.3-9.5-7.1-20-17-24.7
		c-6.9-3.2-13.7-2.1-19.8-1c-12.3,2.2-15,6.8-27.8,12.5c-6.4,2.8-24.8,11-46.6,9.7c-9.7-0.6-15.1-2.7-21.2,1
		c-6.4,4-9.1,11.6-11.1,17.4c-2.5,7.1-3.1,13.3-3.1,17.4c-1.3,4.3-3.3,10.8-5.6,18.8c-6.4,22.8-6.4,27-10.8,39.3
		c-4.4,12.5-7.2,20.3-13.9,29.2c-2.2,2.9-2.3,2.6-22.6,22.2c-10.4,10-15.9,15.5-18.4,24.7c-1,3.6-2.6,9.3,0.3,13.2
		c0.9,1.1,3.8,4.4,21.5,3.8c8.2-0.3,9.3-1,17.7-1.7c15.5-1.3,27.6,0,33.7,0.7c5.8,0.6,10.6,1.5,13.9,2.1c3.2,0.3,8,0.9,13.6,2.4
		c10.1,2.8,13.2,5.9,22.2,9.7c5.5,2.3,16.8,7,30.6,6.6c9.4-0.3,17-2.8,21.9-4.9c7.2,1.1,13.1,0.6,17,0c6.8-1.1,12-3.3,16.3-5.2
		c5.2-2.3,4.9-2.8,11.5-5.9c11.5-5.6,13.4-4.6,16.7-7.6c2.4-2.2,4.6-5.7,5.9-20.2C435,1051.9,435.5,1041.1,434.3,1027.9z
		 M269,1055.5c0.8,5.5,2.4,9.9,0,12.3c-3.1,3-8.4-1.3-21.8-0.6c-2.2,0.1-3.5,0.3-10,0.8c-5.7,0.4-5.5,0.3-9.1,0.6
		c-5.8,0.5-6.3,0.8-8.7,0.6c-4.3-0.4-6.5-0.5-8.3-2.1c-2.9-2.5-3.4-7.1-2.8-10.2c1-6.2,6.1-8.8,15.2-16.3c3.8-3.1,9.3-7.9,15.5-14.6
		c3.7-4.9,7.3-10,11-15.3c1.7-2.5,3.3-4.9,4.9-7.4c1.5-4.1,3.4-9.8,5.3-16.7c5-18.2,5.1-29.5,6.8-29.6c2,0,3.7,14.8,4.4,22.9
		c0.8,10.4,0.6,19,0.2,24.8c1,1.9,2.4,5.1,2.8,9.3c0.5,4.7-0.4,8.5-1.1,10.6C267.9,1038.1,267.9,1048.4,269,1055.5z" style="fill:#FFFFFF;"/>
	<g>
		<g>
			<path d="M269.5,903c-13.3,21.6-4.8,47-1,70.1c1.1,6.8,1.7,13.6,1.4,20.4c-0.2,3.2-0.6,6.4-0.2,9.7
				c0.4,3,1.5,5.7,2.2,8.6c1.9,7.5-0.8,15.1-2.3,22.4c-1.3,6.3-2.6,12.6-2.8,19c-0.4,10.1,2.1,20.9,9.4,28.2
				c8.1,8.1,19.9,6.8,29.6,11.9c10.1,5.4,19.6,9.9,31.2,11c5.7,0.5,11.6,0.3,17.2-0.7c6-1,11.6-3.9,17.6-4.9
				c5.7-0.9,11.2,1.1,16.9-0.4c6.4-1.6,12.6-5.2,18.6-7.9c6.2-2.8,12.4-5.7,18.7-8.5c4.1-1.9,7.8-3.6,8.8-8.4
				c1.3-6,0.6-13.1,0.7-19.2c0.2-6.4,0.7-12.8,0.3-19.2c-0.2-4.1-0.8-8.2-2.5-11.9c-2.6-5.8-8.1-7.6-11.7-12.4
				c-7.1-9.8-10.7-23.5-12.7-35.3c-0.6-3.7-1-7.4-1.3-11.1c-0.2-3.8,1.1-6.2,2.5-9.5c2-4.7,3.3-9.7,3.9-14.7
				c1.6-11.6,0.1-23.5-2.6-34.8c-2.3-9.6-5.4-20.3-13.1-27.1c-20.2-17.8-46.7,3.1-65.4,11.9c-6.9,3.2-14.1,5.3-21.7,5.3
				c-7.3,0-14.5-1.4-21.8-0.9c-9.7,0.6-19.8,5-23.1,14.7c-0.6,1.8,2.3,2.6,2.9,0.8c4-11.7,17.9-13,28.4-12.4
				c11.2,0.7,21.4,1.4,32-2.8c18.2-7.2,37.1-25.4,58.2-19c11.6,3.5,16.5,14.8,19.5,25.6c3,10.8,4.9,22,4.3,33.2
				c-0.3,5.5-1.3,11-3.1,16.3c-0.8,2.4-1.9,4.8-3.1,7.1c-1.3,2.6-1,4.5-0.8,7.5c0.7,10.8,3,21.4,6.9,31.5c1.7,4.4,3.6,8.8,5.9,13
				c2.5,4.4,5.9,6.2,9.4,9.6c8,7.6,5.9,21.1,5.6,31c-0.2,6.3-0.4,12.6-0.6,18.9c-0.1,4.2-1,6.6-4.6,8.7c-2.9,1.7-6.2,2.9-9.3,4.2
				c-5.6,2.6-11.3,5.1-16.9,7.7c-6.4,2.9-12.8,6.6-20.1,6.2c-4.8-0.2-8.7-0.8-13.4,0.5c-5.8,1.7-11.3,3.8-17.3,4.5
				c-11.5,1.4-23.4-0.4-33.8-5.4c-4.4-2.1-8.5-4.9-13-6.9c-4.7-2.1-9.6-2.6-14.6-3.8c-11.8-2.8-18.1-14-19.1-25.4
				c-1.2-13.6,4-26.3,5.6-39.6c0.9-6.7-2.6-12.3-3.1-18.9c-0.4-6.7,0.7-13.3,0-20.1c-2.5-25.1-15-53-0.5-76.7
				C273.2,902.8,270.6,901.3,269.5,903L269.5,903z" style="fill:#161616;"/>
		</g>
	</g>
	<g>
		<g>
			<path d="M271.4,902.7c17.5-2.6,31.2,11.4,38.5,25.6c7,13.4,10.6,28.3,18.3,41.4c6.5,11,16,20.2,28.8,23
				c11.3,2.5,23.8,0.1,33.1-6.9c12.5-9.4,17.9-24.9,20.7-39.7c0.4-1.9-2.5-2.7-2.9-0.8c-2.6,13.5-7.2,28-18.2,37
				c-11.1,9.1-27.5,11-40.4,4.5c-26.7-13.3-26.9-49.6-43.9-71c-8.4-10.6-21.2-18-35-16C268.7,900.1,269.5,903,271.4,902.7
				L271.4,902.7z" style="fill:#161616;"/>
		</g>
	</g>
	<g>
		<g>
			<path d="M377.1,998.1c0.1,0.2,0.2,0.3,0.3,0.5c0.1-0.6,0.2-1.2,0.2-1.8c-0.2,0.2-0.3,0.3-0.5,0.5
				c0.6-0.1,1.2-0.2,1.8-0.2c-1.7-0.9-2.5-4.7-3.1-6.4c-0.9-2.6-1.5-5.4-2-8.1c-0.3-2.1-1.7-17.8,2.7-16.3c1.3,0.5,2.3,5.9,2.7,7.3
				c0.7,2.7,1.1,5.5,1.4,8.3c0.3,2.7,0.3,5.4,0.4,8c0,1.2,0.1,2.4,0.1,3.6c0,0.6,0,1.2-0.1,1.8c0.2,0.7-0.1,1.2-0.8,1.5
				c0.2-1.9-2.8-1.9-3,0c-0.2,2,1.4,3.6,3.5,3.4c2.9-0.3,3.3-3.5,3.3-5.8c0.2-5.4-0.1-11.1-0.9-16.4c-0.6-4.4-1.5-10.7-4.7-14.1
				c-5.9-6.4-7.9,6.1-8,9.5c-0.3,5.3,0.4,10.6,1.8,15.6c0.9,3,2.2,9.1,5.3,10.7c0.6,0.3,1.3,0.3,1.8-0.2c0.2-0.2,0.3-0.3,0.5-0.5
				c0.5-0.5,0.6-1.3,0.2-1.8c-0.1-0.2-0.2-0.3-0.3-0.5C378.7,994.9,376.1,996.4,377.1,998.1L377.1,998.1z" style="fill:#161616;"/>
		</g>
	</g>
	<g>
		<g>
			<path d="M353.1,1052.3c0.5,16,1.9,32,4.2,47.8c0.3,1.9,3.2,1.1,2.9-0.8c-2.2-15.6-3.6-31.3-4.1-47
				C356,1050.4,353,1050.4,353.1,1052.3L353.1,1052.3z" style="fill:#161616;"/>
		</g>
	</g>
	<g>
		<g>
			<path d="M355.2,1053c7.1-10,19.8-14.2,30.8-18c12.1-4.2,24.4-7.4,37-9.7c1.9-0.3,1.1-3.2-0.8-2.9
				c-14.4,2.6-28.6,6.5-42.3,11.6c-10.3,3.9-20.8,8.3-27.4,17.5C351.5,1053.1,354.1,1054.6,355.2,1053L355.2,1053z" style="fill:#161616;"/>
		</g>
	</g>
	<g>
		<g>
			<path d="M355.7,1053.6c11.8,6.3,23.3,11.1,36.9,7.5c13-3.5,25.1-10.8,35.3-19.3c1.5-1.2-0.6-3.3-2.1-2.1
				c-9.5,7.9-20.5,14.5-32.3,18.1c-13.4,4.1-24.5-0.3-36.3-6.7C355.5,1050.1,354,1052.7,355.7,1053.6L355.7,1053.6z" style="fill:#161616;"/>
		</g>
	</g>
	<g>
		<g>
			<path d="M402.3,1051.2c0.8,3.9,1.6,7.9,2.4,11.8c0.4,1.9,3.3,1.1,2.9-0.8c-0.8-3.9-1.6-7.9-2.4-11.8
				C404.8,1048.5,401.9,1049.3,402.3,1051.2L402.3,1051.2z" style="fill:#161616;"/>
		</g>
	</g>
	<g>
		<g>
			<path d="M409,1048.4c0.4,3.7,0.7,7.4,1.1,11.1c0.2,1.9,3.2,1.9,3,0c-0.4-3.7-0.7-7.4-1.1-11.1
				C411.8,1046.5,408.8,1046.4,409,1048.4L409,1048.4z" style="fill:#161616;"/>
		</g>
	</g>
	<g>
		<g>
			<path d="M272.1,1026.7c-1.9,5.5,0,10.5,6.5,9.4c1.6-0.3,3-1,4.6-1.5c0.9-0.3,2.2-0.8,3.2-0.7
				c5.1,0.7,2.2,2.4,3.5,4.2c1.5,2,2.4,3,5.1,3c3.6-0.1,10.7-3.5,13.1,0.9c0.9,1.8,0,6.6,0,8.8c0,2.6,0.1,5.2,0.1,7.8
				c0.2,11.4,0.5,22.8,0.9,34.1c0.1,1.9,3.1,1.9,3,0c-0.7-17.5-1-35.1-1.1-52.7c0-0.5-0.3-1.1-0.7-1.3c-3.3-1.5-6.6-2.2-10.2-1.7
				c-2.5,0.3-3.6,1.3-6-0.1c-2.3-1.3-1.5-2.1-2.9-3.9c-1.5-1.9-3.7-2.3-6-2c-1.6,0.2-2.9,0.9-4.4,1.4c-0.8,0.3-1.8,0.8-2.7,0.8
				c-2.2-0.1-3.8-3.5-3-5.6C275.6,1025.7,272.7,1024.9,272.1,1026.7L272.1,1026.7z" style="fill:#161616;"/>
		</g>
	</g>
	<g>
		<g>
			<path d="M265.5,927.6c0.1-11.5,3.8-32.3,20.2-28.3c1.9,0.5,2.7-2.4,0.8-2.9c-6.9-1.7-13.7,1.3-18,6.8
				c-5.4,6.8-6,16-6,24.4C262.5,929.6,265.5,929.6,265.5,927.6L265.5,927.6z" style="fill:#161616;"/>
		</g>
	</g>
	<g>
		<g>
			<path d="M262.8,921.3c-2.2,4.6,0.9,9.3,3.7,13.1c2.9,4,7.3,7.6,12.5,6.5c2.9-0.6,4.9-3.2,7.8-3.7
				c3.2-0.7,6.3,2.1,9.5,2c6.8-0.3,10.9-6.8,15.8-10.4c1.5-1.1,0.1-3.7-1.5-2.6c-3.9,2.8-6.9,7.2-11.4,9.1c-4.7,2-7.5-1.5-12-1.2
				c-4.5,0.3-7.1,4.9-11.9,3.7c-4-1-12-10.2-9.8-15C266.2,921.1,263.6,919.5,262.8,921.3L262.8,921.3z" style="fill:#161616;"/>
		</g>
	</g>
	<g>
		<g>
			<path d="M263.6,919.5c-4.8,21-10.4,41.8-16.7,62.3c-3,9.7-5.8,19.8-10.8,28.8c-4.3,7.7-10.2,14.2-16.5,20.3
				c-11,10.6-23.7,20.6-29.9,35c-2.5,5.8-3.2,11.8,2.5,15.9c6.3,4.6,15.6,4.4,22.9,3.7c11.2-1.1,22.3-4.6,33.6-3.7
				c10.8,0.9,21.1,5.3,31.9,2.1c1.8-0.6,1.1-3.4-0.8-2.9c-9.7,2.9-19.2-0.8-28.9-2c-8-1-16,0.3-23.8,1.6c-9.4,1.6-20,3.9-29.3,0.6
				c-5.8-2-8.3-6.3-6.2-12.2c1.4-3.9,3.5-7.6,5.9-10.9c8.5-12.2,20.9-21,30.9-31.9c11.2-12.3,16.3-27,21.2-42.7
				c6.4-20.9,12.1-42,17-63.3C267,918.4,264.1,917.6,263.6,919.5L263.6,919.5z" style="fill:#161616;"/>
		</g>
	</g>
	<g>
		<g>
			<path d="M263.7,952.7c-1.8,18.9-3.8,38.3-13.1,55.3c-4.1,7.6-9.4,14.5-15.6,20.4c-5.7,5.4-12.3,9.7-18.2,14.8
				c-4.4,3.8-10.7,9.5-11.1,15.8c-0.4,5.7,4.4,10.2,9.5,11.7c8.2,2.5,18.1-0.5,26.5-1c9.8-0.5,19.7-0.2,29.5,0.8
				c1.9,0.2,1.9-2.8,0-3c-9.1-1-18.3-1.3-27.5-0.9c-3.9,0.2-7.9,0.5-11.8,0.9c-4.6,0.5-9.5,1.6-14.1,0.7c-5.7-1.1-10.6-5.6-8.2-11.8
				c1.5-3.7,4.7-6.9,7.6-9.6c5.3-5,11.5-8.9,16.9-13.7c10.3-8.9,18.4-20.4,23.5-33c6.1-15.1,7.6-31.5,9.2-47.6
				C266.9,950.8,263.9,950.8,263.7,952.7L263.7,952.7z" style="fill:#161616;"/>
		</g>
	</g>
	<g>
		<g>
			<path d="M289.5,1038c0.9,8.9,2.3,17.6,4.3,26.3c0.4,1.9,3.3,1.1,2.9-0.8c-1.9-8.4-3.3-16.9-4.2-25.6
				C292.3,1036.1,289.3,1036.1,289.5,1038L289.5,1038z" style="fill:#161616;"/>
		</g>
	</g>
	<g>
		<g>
			<path d="M314.5,911.7c16,12.3,41.8,19.4,60.5,9c1.7-0.9,0.2-3.5-1.5-2.6c-17.8,9.8-42.4,2.6-57.4-9
				C314.4,907.9,312.9,910.5,314.5,911.7L314.5,911.7z" style="fill:#161616;"/>
		</g>
	</g>
	<g>
		<g>
			<path d="M265.8,924.5c-0.6-7.2,0.8-15.6,5.8-21.1c5-5.4,12.8-4.9,19.6-4.9c12.5,0.2,25.1,1.5,37-2.9
				c1.8-0.7,1-3.6-0.8-2.9c-15.3,5.7-31,1.2-46.7,3.2c-13.7,1.8-18.9,16.2-17.9,28.6C262.9,926.4,265.9,926.5,265.8,924.5
				L265.8,924.5z" style="fill:#161616;"/>
		</g>
	</g>
	<g>
		<g>
			<path d="M266.4,927.4c1-6.9,3.2-13.4,7-19.3c2-3.1,4.1-6,7.6-7.3c3.4-1.3,7.4-0.8,11-0.8c12.1,0.2,24.5,0.6,35.5-5.2
				c1.7-0.9,0.2-3.5-1.5-2.6c-7.2,3.8-15.1,4.8-23.1,4.9c-6.8,0.1-14.1-1.1-20.8,0.2c-11.7,2.3-17.1,19.1-18.6,29.2
				C263.2,928.4,266.1,929.3,266.4,927.4L266.4,927.4z" style="fill:#161616;"/>
		</g>
	</g>
	<g>
		<g>
			<path d="M265.5,924.8c0.7-9.1,1.8-20.8,10.8-25.8c4.9-2.7,11.3-2.1,16.7-2.2c4.7,0,9.4,0.1,14.2,0
				c9.1-0.2,18.2-0.9,26.9-3.9c8.3-2.9,16-7.4,23.5-11.9c1.7-1,0.2-3.6-1.5-2.6c-9.1,5.4-18.4,10.9-28.8,13.3
				c-11.5,2.7-23.4,2-35.1,2.1c-8.6,0.1-16.9,0.1-22.7,7.4c-5.3,6.7-6.1,15.4-6.8,23.6C262.4,926.7,265.4,926.7,265.5,924.8
				L265.5,924.8z" style="fill:#161616;"/>
		</g>
	</g>
	<path d="M333.9,893.9c4.3,4-1.3,11.6,2.6,18.4c5.1,8.8,19.8,9.9,31,9.4c-5.9,1.6-14.9,5.3-19.9,13.6
		c-8.8,14.6-2.7,39,18.4,56.2c1.9,15,3.8,30.1,5.8,45.1c-5.6,4.9-11.2,9.8-16.8,14.7c0.2,16.8,0.3,33.6,0.5,50.4
		c-5,1.8-12.8,3.8-22,2.6c-9.2-1.1-11.3-4.3-28.9-11.5c-16.3-6.7-18.7-5.6-24.1-10.5c-10-8.9-11.9-21.4-12.1-22.6
		c-1.3-9.2,2.4-10.4,4.2-28.9c0.9-9.6,0.7-17.2,0.5-19.9c-0.4-8.9-1.5-12.2-2.6-22c-1.4-11.7-0.7-14.1-1.6-25.2
		c-2.2-28.6-8.1-33.8-4.2-48.3c1.6-5.9,3.5-13.3,10-17.3c8.1-5.1,14,0.9,31-0.5C322,896.2,329.5,889.6,333.9,893.9z" style="opacity:5.000000e-002;fill:#6D6C6C;"/>
	<path d="M278.3,900.7c-11.1,2.1-18.8,19.5-13.6,29.9c1.7,3.4,5.6,7.8,10.5,8.4c4,0.5,5-2.1,11-2.6
		c6.1-0.5,7.2,1.9,12.1,1c3.6-0.6,8.9-3.1,10.5-7.3c2.8-7.5-7.4-16.6-11-19.9C292.1,905.1,285.7,899.3,278.3,900.7z" style="opacity:0.11;fill:#6D6C6C;"/>
	<path d="M271.5,967.4c2.4-0.4,7.9,32.5,19.4,64.6c10.8,29.9,24.5,52.8,35.2,68.2c-8.6-4.3-15.9-6.9-21-8.4
		c-6.7-2-11.6-2.8-18.4-6.3c-5-2.6-8.7-5.4-11-7.3c-2.2-2.8-5.3-7.4-6.3-13.6c-0.4-2.3-0.3-3.4,0.5-13.6c1.1-14.8,1.1-15.3,1.6-17.8
		c1.5-8.2,2.8-8.1,3.1-13.6c0.4-5.2-0.7-6.2-2.1-16.3c-1.2-8.8-1.4-15.5-1.6-19.9C270.7,973.4,270.5,967.5,271.5,967.4z" style="opacity:0.14;fill:#6D6C6C;"/>
</g>
</svg>