<?xml version="1.0" encoding="UTF-8"?>
<svg width="1373px" height="1006px" viewBox="0 0 1373 1006" version="1.1" xmlns="http://www.w3.org/2000/svg" xmlns:xlink="http://www.w3.org/1999/xlink">
    <title>pixeltrue-meditation-1</title>
    <g id="Page-1" stroke="none" stroke-width="1" fill="none" fill-rule="evenodd">
        <g id="pixeltrue-meditation-1" transform="translate(0.2971, 0.791)" fill-rule="nonzero">
            <g id="ground" transform="translate(0, 538.1211)" fill="#E8E8E8">
                <path d="M1211.00293,368.987823 C1201.40293,344.587823 1200.00293,317.887823 1207.10293,292.687823 C1206.40293,292.987823 1205.60293,293.287823 1204.90293,293.587823 C1206.70293,294.787823 1208.40293,296.087823 1210.20293,297.287823 C1210.90293,297.787823 1212.30293,297.287823 1212.40293,296.387823 C1219.00293,249.887823 1238.40293,205.887823 1268.40293,169.687823 C1267.60293,169.487823 1266.70293,169.287823 1265.90293,168.987823 C1282.30293,237.687823 1262.00293,308.187823 1237.20293,372.187823 C1236.50293,373.987823 1239.40293,374.787823 1240.10293,372.987823 C1265.10293,308.387823 1285.30293,237.487823 1268.80293,168.187823 C1268.60293,167.187823 1267.00293,166.687823 1266.30293,167.487823 C1236.10293,204.087823 1216.30293,248.587823 1209.60293,295.587823 C1210.30293,295.287823 1211.10293,294.987823 1211.80293,294.687823 C1210.00293,293.487823 1208.30293,292.187823 1206.50293,290.987823 C1205.70293,290.387823 1204.50293,290.987823 1204.30293,291.887823 C1197.10293,317.587823 1198.40293,344.987823 1208.20293,369.787823 C1208.80293,371.587823 1211.70293,370.787823 1211.00293,368.987823 L1211.00293,368.987823 Z" id="Path"></path>
                <path d="M1273.40293,238.087823 C1279.70293,222.787823 1287.60293,208.287823 1296.90293,194.487823 C1296.20293,194.687823 1295.50293,194.887823 1294.80293,194.987823 C1296.00293,195.887823 1297.30293,196.787823 1298.50293,197.587823 C1299.20293,198.087823 1300.20293,197.687823 1300.60293,197.087823 C1309.30293,181.387823 1319.50293,166.587823 1331.20293,152.987823 C1330.40293,152.887823 1329.60293,152.787823 1328.80293,152.687823 C1344.20293,179.187823 1332.50293,211.887823 1323.10293,238.387823 C1312.90293,267.487823 1300.20293,295.687823 1284.40293,322.087823 C1275.40293,337.087823 1265.40293,351.487823 1254.40293,364.987823 C1253.20293,366.487823 1255.30293,368.587823 1256.50293,367.087823 C1276.70293,342.287823 1293.30293,314.987823 1306.80293,286.087823 C1313.50293,271.787823 1319.40293,257.187823 1324.80293,242.387823 C1330.10293,227.687823 1335.30293,212.687823 1337.70293,197.187823 C1340.20293,181.387823 1339.40293,165.187823 1331.30293,151.087823 C1330.80293,150.287823 1329.60293,150.087823 1328.90293,150.787823 C1317.10293,164.687823 1306.70293,179.587823 1297.80293,195.487823 C1298.50293,195.287823 1299.20293,195.087823 1299.90293,194.987823 C1298.70293,194.087823 1297.40293,193.187823 1296.20293,192.387823 C1295.50293,191.887823 1294.60293,192.287823 1294.10293,192.887823 C1284.70293,206.787823 1276.80293,221.587823 1270.30293,237.187823 C1269.80293,239.087823 1272.70293,239.887823 1273.40293,238.087823 L1273.40293,238.087823 Z" id="Path"></path>
                <path d="M1264.30293,170.687823 C1251.10293,231.787823 1231.00293,291.287823 1221.50293,353.087823 C1221.20293,354.987823 1224.10293,355.787823 1224.40293,353.887823 C1233.90293,291.987823 1254.00293,232.487823 1267.20293,171.487823 C1267.60293,169.587823 1264.70293,168.787823 1264.30293,170.687823 L1264.30293,170.687823 Z" id="Path"></path>
                <path d="M1329.60293,153.387823 C1319.30293,216.187823 1288.70293,272.687823 1258.50293,327.787823 C1257.60293,329.487823 1260.20293,330.987823 1261.10293,329.287823 C1291.40293,273.887823 1322.10293,217.187823 1332.50293,154.187823 C1332.80293,152.287823 1329.90293,151.487823 1329.60293,153.387823 L1329.60293,153.387823 Z" id="Path"></path>
                <path d="M1223.30293,244.187823 C1230.40293,255.187823 1235.10293,267.387823 1237.10293,280.387823 C1237.40293,282.287823 1240.30293,281.487823 1240.00293,279.587823 C1238.00293,266.387823 1233.20293,253.887823 1225.90293,242.687823 C1224.80293,241.087823 1222.20293,242.587823 1223.30293,244.187823 L1223.30293,244.187823 Z" id="Path"></path>
                <path d="M1244.30293,262.387823 C1254.40293,246.887823 1264.50293,231.287823 1274.60293,215.787823 C1275.70293,214.187823 1273.10293,212.687823 1272.00293,214.287823 C1261.90293,229.787823 1251.80293,245.387823 1241.70293,260.887823 C1240.60293,262.487823 1243.20293,263.987823 1244.30293,262.387823 L1244.30293,262.387823 Z" id="Path"></path>
                <path d="M1284.50293,209.687823 C1284.10293,230.487823 1285.60293,251.187823 1288.80293,271.687823 C1289.10293,273.587823 1292.00293,272.787823 1291.70293,270.887823 C1288.50293,250.587823 1287.10293,230.187823 1287.50293,209.687823 C1287.60293,207.687823 1284.60293,207.687823 1284.50293,209.687823 L1284.50293,209.687823 Z" id="Path"></path>
                <path d="M1313.50293,222.687823 C1321.70293,214.387823 1329.70293,205.687823 1337.30293,196.787823 C1338.50293,195.287823 1336.40293,193.187823 1335.20293,194.687823 C1327.60293,203.587823 1319.70293,212.187823 1311.40293,220.587823 C1310.00293,221.987823 1312.10293,224.087823 1313.50293,222.687823 L1313.50293,222.687823 Z" id="Path"></path>
                <path d="M127.302929,317.087823 C105.502929,301.587823 90.4029286,278.087823 85.3029286,251.787823 C85.0029286,252.387823 84.6029286,252.987823 84.3029286,253.587823 C86.7029286,252.887823 88.9029286,253.487823 90.7029286,255.287823 C92.0029286,256.587823 93.7029286,254.987823 93.1029286,253.487823 C79.8029286,223.487823 72.8029286,190.987823 72.7029286,158.187823 C72.3029286,158.687823 72.0029286,159.187823 71.6029286,159.587823 C72.6029286,160.087823 73.7029286,160.687823 74.7029286,161.187823 C75.4029286,162.387823 77.6029286,161.987823 77.5029286,160.387823 C76.8029286,151.687823 76.1029286,142.987823 75.4029286,134.287823 C74.8029286,126.587823 73.9029286,118.487823 78.9029286,111.987823 C78.2029286,112.187823 77.5029286,112.387823 76.8029286,112.487823 C83.8029286,117.487823 87.9029286,125.587823 92.0029286,132.887823 C96.0029286,140.087823 99.8029286,147.487823 103.402929,154.887823 C110.902929,170.487823 117.302929,186.587823 122.602929,203.087823 C133.102929,235.287823 139.402929,268.687823 141.502929,302.487823 C141.602929,304.387823 144.602929,304.387823 144.502929,302.487823 C142.302929,267.287823 135.602929,232.387823 124.402929,198.887823 C118.902929,182.487823 112.402929,166.487823 104.802929,150.987823 C100.902929,142.987823 96.8029286,135.187823 92.4029286,127.487823 C88.6029286,120.787823 84.7029286,114.387823 78.3029286,109.787823 C77.6029286,109.287823 76.7029286,109.687823 76.2029286,110.287823 C71.7029286,116.187823 71.6029286,123.587823 72.0029286,130.787823 C72.7029286,140.587823 73.6029286,150.387823 74.4029286,160.287823 C75.3029286,159.987823 76.3029286,159.787823 77.2029286,159.487823 C75.7029286,156.887823 73.6029286,156.087823 70.7029286,156.487823 C70.1029286,156.587823 69.6029286,157.287823 69.6029286,157.887823 C69.8029286,191.287823 76.9029286,224.187823 90.4029286,254.687823 C91.2029286,254.087823 92.0029286,253.487823 92.8029286,252.887823 C90.2029286,250.187823 87.0029286,249.387823 83.5029286,250.387823 C82.7029286,250.587823 82.3029286,251.387823 82.5029286,252.187823 C87.8029286,279.287823 103.402929,303.287823 125.802929,319.287823 C127.402929,320.787823 128.902929,318.187823 127.302929,317.087823 L127.302929,317.087823 Z" id="Path"></path>
                <path d="M118.302929,180.287823 C117.402929,174.587823 116.702929,168.887823 116.402929,163.187823 C116.102929,157.887823 114.602929,149.987823 118.602929,145.787823 C120.902929,143.487823 122.002929,142.387823 122.502929,138.887823 C123.202929,133.287823 123.202929,127.587823 123.802929,121.987823 C125.002929,110.287823 126.702929,98.7878231 129.102929,87.2878231 C129.502929,85.3878231 129.702929,81.7878231 130.702929,80.0878231 C133.102929,76.1878231 136.802929,80.2878231 138.702929,82.1878231 C142.102929,85.5878231 144.802929,89.5878231 147.102929,93.7878231 C156.702929,111.387823 159.302929,133.087823 161.902929,152.687823 C164.802929,174.487823 166.002929,196.487823 165.402929,218.487823 C164.802929,243.487823 161.402929,268.387823 152.802929,291.987823 C152.102929,293.787823 155.002929,294.587823 155.702929,292.787823 C172.402929,246.687823 170.902929,194.387823 164.002929,146.587823 C161.102929,126.287823 158.002929,103.187823 145.702929,85.9878231 C143.002929,82.2878231 134.802929,70.4878231 129.502929,75.7878231 C126.702929,78.4878231 126.502929,84.7878231 125.802929,88.2878231 C124.502929,94.8878231 123.302929,101.487823 122.402929,108.187823 C121.502929,114.687823 120.802929,121.187823 120.202929,127.687823 C119.902929,131.187823 120.202929,135.187823 119.402929,138.587823 C118.602929,141.887823 116.202929,142.887823 114.602929,145.487823 C112.002929,149.487823 113.002929,155.787823 113.202929,160.287823 C113.502929,167.187823 114.302929,174.087823 115.402929,180.987823 C115.702929,182.987823 118.602929,182.187823 118.302929,180.287823 L118.302929,180.287823 Z" id="Path"></path>
                <path d="M130.402929,77.9878231 C146.502929,140.387823 151.002929,205.287823 143.702929,269.287823 C143.502929,271.187823 146.502929,271.187823 146.702929,269.287823 C154.002929,204.987823 149.402929,139.787823 133.302929,77.1878231 C132.802929,75.3878231 129.902929,76.1878231 130.402929,77.9878231 L130.402929,77.9878231 Z" id="Path"></path>
                <path d="M74.7029286,111.887823 C98.2029286,171.987823 116.502929,233.987823 129.602929,297.187823 C130.002929,299.087823 132.902929,298.287823 132.502929,296.387823 C119.502929,233.187823 101.102929,171.187823 77.6029286,111.087823 C76.8029286,109.287823 73.9029286,110.087823 74.7029286,111.887823 L74.7029286,111.887823 Z" id="Path"></path>
                <path d="M75.2029286,203.887823 C91.6029286,208.487823 105.202929,219.287823 113.502929,234.187823 C114.402929,235.887823 117.002929,234.387823 116.102929,232.687823 C107.402929,217.187823 93.0029286,205.887823 76.0029286,201.087823 C74.1029286,200.487823 73.3029286,203.387823 75.2029286,203.887823 L75.2029286,203.887823 Z" id="Path"></path>
                <path d="M108.402929,165.087823 C106.602929,180.587823 106.302929,196.087823 107.502929,211.587823 C107.602929,213.487823 110.602929,213.487823 110.502929,211.587823 C109.302929,196.087823 109.602929,180.587823 111.402929,165.087823 C111.602929,163.187823 108.602929,163.187823 108.402929,165.087823 L108.402929,165.087823 Z" id="Path"></path>
                <path d="M119.002929,145.087823 C132.602929,162.787823 142.102929,183.187823 146.902929,204.987823 C147.302929,206.887823 150.202929,206.087823 149.802929,204.187823 C144.902929,182.187823 135.402929,161.487823 121.602929,143.587823 C120.502929,141.987823 117.902929,143.487823 119.002929,145.087823 L119.002929,145.087823 Z" id="Path"></path>
                <path d="M153.802929,109.087823 C148.802929,120.687823 145.302929,132.687823 143.402929,145.187823 C143.102929,147.087823 146.002929,147.887823 146.302929,145.987823 C148.102929,133.787823 151.502929,121.987823 156.402929,110.587823 C157.202929,108.887823 154.602929,107.287823 153.802929,109.087823 L153.802929,109.087823 Z" id="Path"></path>
                <path d="M22.5029286,388.587823 C76.7029286,369.487823 134.502929,384.687823 188.902929,394.387823 C247.002929,404.687823 305.702929,411.487823 364.502929,414.587823 C397.802929,416.387823 431.102929,416.987823 464.502929,416.387823 C466.402929,416.387823 466.402929,413.387823 464.502929,413.387823 C404.402929,414.387823 344.202929,411.587823 284.402929,405.087823 C254.002929,401.787823 223.702929,397.487823 193.602929,392.187823 C166.702929,387.487823 139.902929,381.687823 112.802929,378.487823 C82.3029286,374.987823 51.0029286,375.387823 21.7029286,385.687823 C19.9029286,386.387823 20.7029286,389.287823 22.5029286,388.587823 L22.5029286,388.587823 Z" id="Path"></path>
                <path d="M336.602929,386.087823 C426.302929,408.087823 519.202929,402.287823 610.202929,393.887823 C657.002929,389.587823 703.702929,384.487823 750.602929,381.987823 C797.402929,379.487823 844.102929,380.287823 890.802929,384.887823 C945.102929,390.287823 998.802929,400.187823 1052.20293,411.387823 C1054.10293,411.787823 1054.90293,408.887823 1053.00293,408.487823 C960.202929,388.987823 866.502929,374.687823 771.502929,378.087823 C678.502929,381.387823 586.302929,396.687823 493.202929,398.387823 C440.902929,399.387823 388.402929,395.687823 337.502929,383.187823 C335.502929,382.687823 334.702929,385.587823 336.602929,386.087823 L336.602929,386.087823 Z" id="Path"></path>
                <path d="M728.502929,449.587823 C802.102929,434.387823 877.002929,448.787823 950.302929,458.487823 C1023.20293,468.087823 1096.60293,469.687823 1169.60293,460.387823 C1210.00293,455.287823 1249.90293,447.087823 1289.00293,436.087823 C1290.90293,435.587823 1290.10293,432.687823 1288.20293,433.187823 C1217.30293,453.187823 1143.80293,463.587823 1070.10293,463.887823 C1033.50293,463.987823 997.102929,461.487823 960.802929,456.887823 C923.702929,452.187823 886.802929,446.087823 849.602929,442.587823 C808.902929,438.787823 767.802929,438.387823 727.602929,446.787823 C725.802929,447.087823 726.602929,449.987823 728.502929,449.587823 L728.502929,449.587823 Z" id="Path"></path>
                <path d="M1058.60293,372.987823 C1096.00293,386.887823 1136.20293,378.687823 1173.70293,369.687823 C1215.20293,359.787823 1256.50293,351.587823 1299.20293,349.187823 C1322.90293,347.887823 1346.70293,348.087823 1370.40293,349.587823 C1372.30293,349.687823 1372.30293,346.687823 1370.40293,346.587823 C1329.20293,343.887823 1287.90293,345.487823 1247.00293,351.387823 C1226.60293,354.387823 1206.40293,358.587823 1186.40293,363.487823 C1166.50293,368.287823 1146.50293,373.387823 1126.10293,375.887823 C1103.60293,378.687823 1080.80293,377.987823 1059.40293,369.987823 C1057.60293,369.487823 1056.80293,372.387823 1058.60293,372.987823 L1058.60293,372.987823 Z" id="Path"></path>
                <path d="M1028.30293,52.7878231 C1025.40293,61.7878231 1022.40293,70.6878231 1019.50293,79.6878231 C1018.80293,81.9878231 1018.10293,84.1878231 1018.80293,86.5878231 C1019.80293,89.7878231 1023.20293,91.6878231 1023.30293,95.2878231 C1023.90293,94.7878231 1024.60293,94.2878231 1025.20293,93.8878231 C1013.40293,90.3878231 1013.80293,109.187823 1014.20293,115.787823 C1014.90293,128.887823 1019.10293,141.487823 1026.10293,152.487823 C1027.10293,154.087823 1029.70293,152.587823 1028.70293,150.987823 C1023.70293,143.187823 1020.20293,134.587823 1018.40293,125.487823 C1017.40293,120.587823 1013.90293,93.5878231 1024.40293,96.6878231 C1025.30293,96.9878231 1026.30293,96.1878231 1026.30293,95.2878231 C1026.30293,92.8878231 1025.40293,91.2878231 1024.00293,89.3878231 C1021.40293,85.6878231 1021.60293,82.9878231 1023.00293,78.6878231 C1025.70293,70.2878231 1028.50293,61.9878231 1031.20293,53.5878231 C1031.80293,51.6878231 1028.90293,50.8878231 1028.30293,52.7878231 L1028.30293,52.7878231 Z" id="Path"></path>
                <path d="M1029.30293,53.1878231 C1040.60293,64.6878231 1043.40293,83.3878231 1044.30293,98.7878231 C1045.30293,115.387823 1042.90293,131.987823 1037.60293,147.687823 C1037.00293,149.487823 1039.90293,150.287823 1040.50293,148.487823 C1046.30293,131.387823 1048.70293,113.187823 1047.10293,95.1878231 C1045.80293,79.8878231 1042.60293,62.3878231 1031.50293,50.9878231 C1030.00293,49.6878231 1027.90293,51.7878231 1029.30293,53.1878231 L1029.30293,53.1878231 Z" id="Path"></path>
                <path d="M1047.20293,97.6878231 C1049.20293,84.2878231 1052.60293,71.2878231 1057.30293,58.5878231 C1056.60293,58.8878231 1055.80293,59.1878231 1055.10293,59.4878231 C1057.20293,60.8878231 1059.30293,62.3878231 1061.40293,63.7878231 C1062.40293,64.4878231 1063.60293,63.5878231 1063.70293,62.4878231 C1064.60293,40.1878231 1082.00293,23.0878231 1086.70293,1.88782308 C1085.70293,1.88782308 1084.80293,1.88782308 1083.80293,1.88782308 C1091.80293,50.0878231 1081.70293,100.287823 1055.70293,141.687823 C1054.70293,143.287823 1057.30293,144.787823 1058.30293,143.187823 C1084.70293,101.087823 1094.80293,50.0878231 1086.70293,1.08782308 C1086.50293,-0.412176916 1084.10293,-0.312176916 1083.80293,1.08782308 C1079.00293,22.6878231 1061.60293,39.7878231 1060.70293,62.4878231 C1061.50293,62.0878231 1062.20293,61.5878231 1063.00293,61.1878231 C1060.90293,59.7878231 1058.80293,58.2878231 1056.70293,56.8878231 C1055.80293,56.2878231 1054.80293,56.9878231 1054.50293,57.7878231 C1049.80293,70.4878231 1046.40293,83.4878231 1044.40293,96.8878231 C1044.00293,98.7878231 1046.90293,99.5878231 1047.20293,97.6878231 L1047.20293,97.6878231 Z" id="Path"></path>
                <path d="M1083.50293,8.08782308 C1080.30293,44.9878231 1070.30293,80.9878231 1054.00293,114.187823 C1053.20293,115.887823 1055.70293,117.387823 1056.60293,115.687823 C1073.10293,81.8878231 1083.30293,45.4878231 1086.50293,8.08782308 C1086.60293,6.08782308 1083.60293,6.18782308 1083.50293,8.08782308 L1083.50293,8.08782308 Z" id="Path"></path>
                <path d="M1027.90293,55.5878231 C1032.00293,85.3878231 1035.90293,115.787823 1029.60293,145.487823 C1029.20293,147.387823 1032.10293,148.187823 1032.50293,146.287823 C1039.00293,115.987823 1035.00293,85.0878231 1030.80293,54.7878231 C1030.60293,52.8878231 1027.70293,53.6878231 1027.90293,55.5878231 L1027.90293,55.5878231 Z" id="Path"></path>
                <path d="M882.602929,155.787823 C898.002929,154.587823 913.502929,155.687823 928.502929,159.387823 C941.202929,162.487823 953.802929,168.887823 967.102929,166.887823 C980.802929,164.787823 992.302929,155.687823 1006.40293,155.187823 C1020.00293,154.687823 1033.40293,159.387823 1046.80293,155.487823 C1048.70293,154.987823 1047.90293,152.087823 1046.00293,152.587823 C1032.00293,156.587823 1017.90293,151.087823 1003.80293,152.387823 C991.002929,153.587823 980.302929,161.287823 967.902929,163.787823 C953.602929,166.587823 939.402929,158.787823 925.602929,155.787823 C911.402929,152.687823 896.902929,151.787823 882.502929,152.987823 C880.702929,152.887823 880.702929,155.887823 882.602929,155.787823 L882.602929,155.787823 Z" id="Path"></path>
                <path d="M0.502928646,295.987823 C28.1029286,321.787823 68.1029286,293.887823 99.8029286,304.187823 C101.602929,304.787823 102.402929,301.887823 100.602929,301.287823 C83.7029286,295.787823 66.4029286,300.087823 49.4029286,302.687823 C33.5029286,305.087823 15.2029286,305.487823 2.60292865,293.787823 C1.20292865,292.587823 -0.997071354,294.687823 0.502928646,295.987823 L0.502928646,295.987823 Z" id="Path"></path>
            </g>
            <g id="mat" transform="translate(156.1029, 523.1226)">
                <path d="M1034.3,347.486406 C871.4,357.786406 699.4,364.086406 519,364.986406 C337.3,365.886406 164,361.186406 0,352.486406 C16.1,324.186406 32.3,295.986406 48.6,267.886406 C61.7,245.186406 75,222.586406 88.3,200.086406 C229.3,208.086406 381.7,211.286406 544,207.286406 C696.9,203.486406 840.7,193.686406 974.2,179.986406 C986.5,197.286406 1000.7,220.686406 1012.3,250.186406 C1027.3,288.486406 1032.5,322.786406 1034.3,347.486406 Z" id="Path" stroke="#161616" stroke-width="3" fill="#FFFFFF"></path>
                <path d="M75.5,332.086406 C132.3,338.186406 189.5,340.086406 246.7,337.786406 C248.6,337.686406 248.6,334.686406 246.7,334.786406 C189.6,337.086406 132.4,335.186406 75.5,329.086406 C73.6,328.886406 73.6,331.886406 75.5,332.086406 L75.5,332.086406 Z" id="Path" fill="#161616"></path>
                <path d="M176.6,317.686406 C204.3,318.786406 232.1,318.086406 259.8,318.086406 C287.9,317.986406 315.9,317.986406 344,317.886406 C345.9,317.886406 345.9,314.886406 344,314.886406 C315.9,314.986406 287.9,314.986406 259.8,315.086406 C232.1,315.186406 204.3,315.786406 176.6,314.686406 C174.7,314.586406 174.7,317.586406 176.6,317.686406 L176.6,317.686406 Z" id="Path" fill="#161616"></path>
                <path d="M546.3,310.386406 C631,304.986406 715.6,298.586406 800.2,291.186406 C802.1,290.986406 802.1,287.986406 800.2,288.186406 C715.7,295.586406 631,301.986406 546.3,307.386406 C544.4,307.486406 544.4,310.486406 546.3,310.386406 L546.3,310.386406 Z" id="Path" fill="#161616"></path>
                <path d="M767.1,258.986406 C832.7,256.586406 898.2,252.486406 963.6,246.386406 C965.5,246.186406 965.5,243.186406 963.6,243.386406 C898.2,249.386406 832.7,253.586406 767.1,255.986406 C765.2,255.986406 765.2,258.986406 767.1,258.986406 L767.1,258.986406 Z" id="Path" fill="#161616"></path>
                <path d="M824.5,323.186406 C879.6,320.786406 934.7,318.386406 989.8,315.886406 C991.7,315.786406 991.7,312.786406 989.8,312.886406 C934.7,315.286406 879.6,317.686406 824.5,320.186406 C822.6,320.286406 822.6,323.286406 824.5,323.186406 L824.5,323.186406 Z" id="Path" fill="#161616"></path>
                <path d="M97.5,196.486406 C100,201.186406 102.5,205.886406 105.1,210.686406 C107.4,212.186406 115.2,216.786406 125,214.986406 C129.1,214.286406 132.3,212.686406 134.4,211.386406 C137.2,206.486406 140,201.586406 142.8,196.686406 C137.3,194.986406 129.2,192.986406 119.2,193.086406 C110.1,193.186406 102.7,194.886406 97.5,196.486406 Z" id="Path" stroke="#161616" stroke-width="3" fill="#FFFFFF"></path>
                <path d="M99.2,198.186406 C108.2,203.786406 121.1,202.486406 131.2,201.886406 C133.1,201.786406 133.1,198.786406 131.2,198.886406 C121.7,199.386406 109.2,200.886406 100.7,195.586406 C99.1,194.586406 97.6,197.186406 99.2,198.186406 L99.2,198.186406 Z" id="Path" fill="#161616"></path>
                <path d="M75.9,130.786406 C84.4,152.786406 92.9,174.786406 101.3,196.786406 C102,198.586406 104.9,197.786406 104.2,195.986406 C95.7,173.986406 87.2,151.986406 78.8,129.986406 C78.1,128.186406 75.2,128.886406 75.9,130.786406 L75.9,130.786406 Z" id="Path" fill="#161616"></path>
                <path d="M88.7,131.286406 C93.1,153.786406 98.3,176.186406 104.2,198.386406 C104.7,200.286406 107.6,199.486406 107.1,197.586406 C101.1,175.386406 95.9,152.986406 91.6,130.486406 C91.2,128.586406 88.3,129.386406 88.7,131.286406 L88.7,131.286406 Z" id="Path" fill="#161616"></path>
                <path d="M76.5,119.586406 C75,114.786406 79,110.286406 77.9,105.286406 C76.6,99.9864058 71.4,97.7864058 72,91.6864058 C72.4,87.4864058 74.5,83.4864058 73.8,79.1864058 C73.3,76.4864058 71.6,74.8864058 70.4,72.4864058 C69,69.4864058 69.6,66.6864058 70.4,63.5864058 C71.2,60.0864058 72.5,56.2864058 71.1,52.6864058 C70.4,50.7864058 69,49.8864058 67.8,48.3864058 C65,45.0864058 65.4,41.6864058 66.1,37.6864058 C68.3,25.2864058 68.4,13.3864058 65.2,1.08640582 C64.7,-0.813594176 61.8,-0.0135941762 62.3,1.88640582 C64.1,8.88640582 65.1,15.9864058 64.9,23.1864058 C64.7,29.2864058 63.1,34.9864058 62.6,40.9864058 C62.2,45.8864058 63.8,47.9864058 66.8,51.4864058 C70.7,56.1864058 67.4,61.5864058 66.7,66.8864058 C66.5,68.5864058 66.5,70.3864058 67,72.0864058 C67.8,74.8864058 70.3,76.7864058 70.8,79.7864058 C71.6,84.5864058 68.6,89.2864058 68.9,94.0864058 C69.3,99.2864058 74.7,101.986406 75.1,106.986406 C75.5,111.686406 72.1,115.486406 73.6,120.386406 C74.2,122.186406 77.1,121.386406 76.5,119.586406 L76.5,119.586406 Z" id="Path" fill="#E8E8E8"></path>
                <path d="M91,117.286406 C87.9,114.386406 91.8,111.386406 90.7,107.986406 C90.1,106.086406 88.1,104.686406 88,102.586406 C87.9,100.686406 89.2,98.5864058 89.5,96.6864058 C90,93.0864058 88.1,91.3864058 87.2,88.0864058 C86,83.5864058 88.7,78.5864058 89.5,74.1864058 C90.1,70.7864058 89.8,67.8864058 88.6,64.6864058 C87.6,62.0864058 86.6,59.8864058 86.8,57.0864058 C87,54.7864058 88,52.6864058 88.5,50.4864058 C90.5,42.4864058 83.4,33.9864058 86.8,26.5864058 C87.6,24.8864058 85,23.2864058 84.2,25.0864058 C80.2,33.5864058 87.6,41.6864058 85.4,50.4864058 C84.3,54.8864058 83,58.0864058 84.5,62.5864058 C85.4,65.0864058 86.7,67.4864058 86.8,70.2864058 C87,73.0864058 86,75.7864058 85.3,78.3864058 C84.4,81.7864058 83.4,85.3864058 84.3,88.8864058 C85.1,91.7864058 87,93.9864058 86.3,97.1864058 C85.9,98.7864058 85.2,100.286406 85.1,101.986406 C85,103.586406 85.2,104.786406 86,106.186406 C86.4,106.886406 87.6,107.986406 87.7,108.486406 C87.9,109.286406 87.2,110.886406 87,111.586406 C86.3,114.686406 86.5,116.986406 88.9,119.286406 C90.3,120.686406 92.4,118.586406 91,117.286406 L91,117.286406 Z" id="Path" fill="#E8E8E8"></path>
            </g>
            <g id="background" transform="translate(111.2943, 0)">
                <path d="M1.00859851,188.108966 C20.8085985,194.308966 41.8085985,193.908966 62.3085985,193.508966 C81.9085985,193.108966 101.408599,191.808966 120.808599,189.808966 C159.508599,185.708966 197.808599,178.408966 235.408599,168.308966 C311.508599,147.908966 384.408599,116.308966 452.508599,76.9089665 C491.108599,54.6089665 528.108599,29.8089665 563.608599,2.90896646 C565.108599,1.70896646 563.608599,-0.89103354 562.108599,0.30896646 C500.008599,47.4089665 433.008599,88.2089665 361.808599,120.008966 C290.408599,151.908966 214.608599,174.908966 136.908599,184.908966 C115.608599,187.708966 94.1085985,189.508966 72.6085985,190.208966 C49.2085985,191.008966 24.5085985,192.308966 1.90859851,185.208966 C0.00859850837,184.708966 -0.791401492,187.508966 1.00859851,188.108966 L1.00859851,188.108966 Z" id="Path" fill="#E8E8E8"></path>
                <path d="M518.908599,34.9089665 C545.608599,58.0089665 577.108599,74.5089665 609.508599,88.2089665 C644.308599,102.908966 680.308599,115.108966 716.908599,124.508966 C789.308599,143.308966 864.408599,151.708966 939.108599,149.408966 C981.708599,148.108966 1026.2086,145.208966 1066.9086,131.608966 C1068.7086,131.008966 1067.9086,128.108966 1066.1086,128.708966 C1029.9086,140.908966 990.808599,144.008966 952.908599,145.908966 C916.208599,147.708966 879.408599,146.908966 842.908599,143.508966 C769.008599,136.708966 696.108599,119.408966 627.108599,92.1089665 C589.408599,77.2089665 552.108599,59.5089665 521.208599,32.8089665 C519.508599,31.5089665 517.408599,33.6089665 518.908599,34.9089665 L518.908599,34.9089665 Z" id="Path" fill="#E8E8E8"></path>
                <path d="M117.908599,86.0089665 C154.608599,107.208966 198.308599,112.408966 239.708599,116.808966 C282.308599,121.308966 325.308599,122.508966 368.208599,120.608966 C452.808599,116.808966 537.008599,100.808966 617.008599,73.1089665 C662.108599,57.5089665 705.808599,38.2089665 747.708599,15.5089665 C749.408599,14.6089665 747.908599,12.0089665 746.208599,12.9089665 C672.508599,53.0089665 592.908599,82.1089665 510.808599,99.5089665 C428.508599,116.908966 343.608599,122.508966 259.708599,115.708966 C235.908599,113.808966 212.008599,111.108966 188.508599,106.808966 C164.408599,102.408966 140.708599,95.8089665 119.408599,83.5089665 C117.808599,82.5089665 116.308599,85.1089665 117.908599,86.0089665 L117.908599,86.0089665 Z" id="Path" fill="#E8E8E8"></path>
                <path d="M241.108599,150.908966 C241.108599,163.308966 241.108599,175.808966 241.108599,188.208966 C241.108599,190.108966 244.108599,190.108966 244.108599,188.208966 C244.108599,175.808966 244.108599,163.308966 244.108599,150.908966 C244.108599,148.908966 241.108599,148.908966 241.108599,150.908966 L241.108599,150.908966 Z" id="Path" fill="#161616"></path>
                <path d="M242.008599,212.808966 C242.008599,227.408966 242.008599,241.908966 242.008599,256.508966 C242.008599,258.408966 245.008599,258.408966 245.008599,256.508966 C245.008599,241.908966 245.008599,227.408966 245.008599,212.808966 C245.008599,210.908966 242.008599,210.808966 242.008599,212.808966 L242.008599,212.808966 Z" id="Path" fill="#161616"></path>
                <path d="M293.008599,253.808966 C293.008599,272.008966 293.008599,290.208966 293.008599,308.408966 C293.008599,310.308966 296.008599,310.308966 296.008599,308.408966 C296.008599,290.208966 296.008599,272.008966 296.008599,253.808966 C296.008599,251.808966 293.008599,251.808966 293.008599,253.808966 L293.008599,253.808966 Z" id="Path" fill="#161616"></path>
                <path d="M291.208599,352.108966 C291.208599,360.908966 291.208599,369.708966 291.208599,378.508966 C291.208599,380.408966 294.208599,380.408966 294.208599,378.508966 C294.208599,369.708966 294.208599,360.908966 294.208599,352.108966 C294.208599,350.208966 291.208599,350.208966 291.208599,352.108966 L291.208599,352.108966 Z" id="Path" fill="#161616"></path>
                <path d="M395.008599,83.5089665 C395.008599,99.6089665 395.008599,115.708966 395.008599,131.808966 C395.008599,133.708966 398.008599,133.708966 398.008599,131.808966 C398.008599,115.708966 398.008599,99.6089665 398.008599,83.5089665 C398.008599,81.6089665 395.008599,81.6089665 395.008599,83.5089665 L395.008599,83.5089665 Z" id="Path" fill="#161616"></path>
                <path d="M395.008599,149.008966 C395.008599,161.108966 395.008599,173.308966 395.008599,185.408966 C395.008599,187.308966 398.008599,187.308966 398.008599,185.408966 C398.008599,173.308966 398.008599,161.108966 398.008599,149.008966 C398.008599,147.108966 395.008599,147.108966 395.008599,149.008966 L395.008599,149.008966 Z" id="Path" fill="#161616"></path>
                <path d="M824.708599,101.708966 C824.708599,122.608966 824.708599,143.608966 824.708599,164.508966 C824.708599,166.408966 827.708599,166.408966 827.708599,164.508966 C827.708599,143.608966 827.708599,122.608966 827.708599,101.708966 C827.708599,99.8089665 824.708599,99.8089665 824.708599,101.708966 L824.708599,101.708966 Z" id="Path" fill="#161616"></path>
                <path d="M823.808599,189.108966 C823.808599,200.008966 823.808599,211.008966 823.808599,221.908966 C823.808599,223.808966 826.808599,223.808966 826.808599,221.908966 C826.808599,211.008966 826.808599,200.008966 826.808599,189.108966 C826.808599,187.208966 823.808599,187.208966 823.808599,189.108966 L823.808599,189.108966 Z" id="Path" fill="#161616"></path>
                <path d="M645.308599,65.3089665 C645.308599,78.7089665 645.308599,92.0089665 645.308599,105.408966 C645.308599,107.308966 648.308599,107.308966 648.308599,105.408966 C648.308599,92.0089665 648.308599,78.7089665 648.308599,65.3089665 C648.308599,63.4089665 645.308599,63.3089665 645.308599,65.3089665 L645.308599,65.3089665 Z" id="Path" fill="#161616"></path>
                <path d="M646.308599,143.608966 C646.308599,155.708966 646.308599,167.908966 646.308599,180.008966 C646.308599,181.908966 649.308599,181.908966 649.308599,180.008966 C649.308599,167.908966 649.308599,155.708966 649.308599,143.608966 C649.308599,141.708966 646.308599,141.708966 646.308599,143.608966 L646.308599,143.608966 Z" id="Path" fill="#161616"></path>
                <path d="M924.908599,209.108966 C924.908599,220.908966 924.908599,232.808966 924.908599,244.608966 C924.908599,246.508966 927.908599,246.508966 927.908599,244.608966 C927.908599,232.808966 927.908599,220.908966 927.908599,209.108966 C927.908599,207.208966 924.908599,207.208966 924.908599,209.108966 L924.908599,209.108966 Z" id="Path" fill="#161616"></path>
                <path d="M925.808599,269.208966 C925.808599,278.608966 925.808599,288.008966 925.808599,297.408966 C925.808599,299.308966 928.808599,299.308966 928.808599,297.408966 C928.808599,288.008966 928.808599,278.608966 928.808599,269.208966 C928.808599,267.308966 925.808599,267.308966 925.808599,269.208966 L925.808599,269.208966 Z" id="Path" fill="#161616"></path>
                <circle id="Oval" fill="#F24088" cx="243.408599" cy="202.008966" r="16.6"></circle>
                <circle id="Oval" fill="#F24088" cx="293.508599" cy="386.508966" r="11.4"></circle>
                <circle id="Oval" fill="#F24088" cx="397.808599" cy="201.308966" r="5.4"></circle>
                <circle id="Oval" fill="#F24088" cx="650.608599" cy="214.308966" r="7.6"></circle>
                <circle id="Oval" fill="#F24088" cx="650.108599" cy="120.608966" r="7"></circle>
                <circle id="Oval" fill="#EC615B" cx="292.508599" cy="336.808966" r="7.8"></circle>
                <circle id="Oval" fill="#F24088" cx="395.508599" cy="79.1089665" r="7.7"></circle>
                <circle id="Oval" fill="#F24088" cx="395.508599" cy="147.208966" r="7.7"></circle>
                <circle id="Oval" fill="#F24088" cx="646.808599" cy="189.308966" r="3.8"></circle>
                <circle id="Oval" fill="#F24088" cx="826.308599" cy="237.808966" r="15.9"></circle>
                <circle id="Oval" fill="#F24088" cx="929.008599" cy="320.708966" r="7.6"></circle>
                <circle id="Oval" fill="#F24088" cx="826.208599" cy="120.608966" r="7"></circle>
                <circle id="Oval" fill="#F24088" cx="826.308599" cy="150.908966" r="5.4"></circle>
                <circle id="Oval" fill="#F24088" cx="927.308599" cy="254.408966" r="5.4"></circle>
                <path d="M168.908599,332.108966 C164.208599,339.508966 159.508599,346.808966 154.808599,354.208966 C151.108599,360.008966 147.408599,366.108966 146.108599,373.008966 C144.008599,384.908966 152.008599,392.908966 158.808599,401.508966 C162.708599,406.408966 166.308599,412.008966 164.608599,418.408966 C163.108599,424.208966 158.308599,429.208966 159.008599,435.608966 C159.308599,438.308966 160.708599,440.408966 161.908599,442.708966 C163.908599,446.708966 165.308599,451.008966 165.808599,455.408966 C166.708599,463.608966 164.808599,471.808966 160.508599,478.808966 C159.508599,480.508966 162.108599,482.008966 163.108599,480.308966 C169.708599,469.408966 171.008599,455.708966 165.908599,443.908966 C164.108599,439.708966 161.108599,436.308966 162.408599,431.308966 C163.308599,428.008966 165.208599,425.108966 166.508599,422.008966 C168.408599,417.308966 168.608599,412.608966 166.608599,407.908966 C162.108599,397.308966 149.608599,390.408966 148.808599,378.108966 C148.308599,369.808966 153.208599,362.208966 157.408599,355.508966 C162.108599,348.108966 166.808599,340.708966 171.508599,333.408966 C172.508599,332.008966 169.908599,330.508966 168.908599,332.108966 L168.908599,332.108966 Z" id="Path" fill="#E8E8E8"></path>
                <path d="M353.608599,445.408966 C346.208599,452.908966 342.508599,463.408966 343.708599,473.908966 C344.308599,479.408966 346.508599,484.008966 349.108599,488.908966 C353.008599,496.308966 353.908599,501.908966 350.908599,509.708966 C349.108599,514.308966 346.808599,519.008966 347.408599,524.008966 C348.008599,529.708966 352.408599,532.708966 355.108599,537.408966 C360.808599,547.608966 349.308599,558.308966 352.008599,569.208966 C352.508599,571.108966 355.408599,570.308966 354.908599,568.408966 C352.408599,558.608966 361.808599,549.908966 359.408599,540.008966 C358.208599,535.208966 354.308599,532.208966 351.908599,528.108966 C348.508599,522.308966 351.708599,516.208966 353.808599,510.508966 C355.508599,506.008966 356.708599,501.508966 355.708599,496.708966 C354.408599,490.808966 350.408599,486.008966 348.308599,480.408966 C344.108599,469.108966 347.308599,456.008966 355.708599,447.508966 C357.108599,446.108966 355.008599,444.008966 353.608599,445.408966 L353.608599,445.408966 Z" id="Path" fill="#E8E8E8"></path>
                <path d="M1002.8086,467.208966 C992.808599,478.908966 983.108599,494.008966 984.108599,510.108966 C984.608599,517.808966 988.008599,524.008966 992.208599,530.308966 C997.108599,537.608966 1001.3086,544.508966 998.908599,553.608966 C995.708599,565.508966 983.908599,577.408966 988.008599,590.508966 C990.508599,598.508966 998.508599,602.908966 1000.4086,611.308966 C1002.6086,621.308966 998.008599,631.808966 993.908599,640.708966 C993.108599,642.408966 995.708599,644.008966 996.508599,642.208966 C999.908599,634.808966 1003.2086,627.108966 1003.8086,618.908966 C1004.4086,611.108966 1001.8086,604.908966 997.008599,598.908966 C991.308599,592.008966 988.708599,586.108966 991.708599,577.408966 C994.008599,570.708966 998.108599,564.708966 1000.6086,558.108966 C1003.0086,551.908966 1003.6086,545.508966 1001.0086,539.208966 C998.308599,532.608966 993.308599,527.508966 990.108599,521.208966 C981.108599,503.208966 993.208599,483.008966 1004.9086,469.408966 C1006.2086,467.908966 1004.1086,465.808966 1002.8086,467.208966 L1002.8086,467.208966 Z" id="Path" fill="#E8E8E8"></path>
                <path d="M1030.9086,573.708966 C1025.7086,578.608966 1022.4086,585.008966 1021.5086,592.108966 C1020.4086,600.608966 1023.6086,606.508966 1027.0086,613.908966 C1031.2086,623.008966 1023.0086,631.208966 1025.2086,640.408966 C1026.4086,645.408966 1029.1086,649.208966 1029.0086,654.508966 C1028.8086,660.008966 1026.6086,665.008966 1022.8086,668.908966 C1021.5086,670.308966 1023.6086,672.408966 1024.9086,671.008966 C1030.0086,665.808966 1032.7086,658.708966 1031.8086,651.408966 C1031.3086,647.208966 1029.0086,643.608966 1028.1086,639.508966 C1026.8086,634.008966 1029.8086,629.008966 1030.9086,623.808966 C1032.8086,615.008966 1026.8086,609.808966 1024.9086,601.808966 C1022.6086,592.308966 1025.9086,582.308966 1033.0086,575.708966 C1034.5086,574.508966 1032.4086,572.408966 1030.9086,573.708966 L1030.9086,573.708966 Z" id="Path" fill="#E8E8E8"></path>
                <path d="M752.808599,294.808966 C747.108599,303.608966 740.808599,314.008966 744.108599,324.908966 C745.708599,330.208966 750.108599,332.408966 752.508599,337.008966 C754.808599,341.608966 752.608599,347.008966 751.008599,351.408966 C748.708599,357.708966 745.508599,365.408966 751.308599,370.808966 C753.608599,372.908966 756.408599,374.108966 757.408599,377.408966 C758.208599,380.108966 757.508599,383.308966 757.008599,385.908966 C756.008599,390.708966 754.608599,395.508966 755.208599,400.408966 C755.408599,402.308966 758.408599,402.308966 758.208599,400.408966 C757.308599,392.208966 763.308599,383.008966 759.808599,375.108966 C757.808599,370.508966 751.608599,369.208966 751.008599,364.008966 C750.508599,360.108966 752.608599,355.808966 753.908599,352.208966 C756.408599,345.308966 758.208599,338.408966 752.808599,332.408966 C747.808599,326.908966 745.208599,321.608966 746.808599,314.008966 C748.108599,307.508966 751.908599,301.708966 755.508599,296.208966 C756.508599,294.608966 753.908599,293.108966 752.808599,294.808966 L752.808599,294.808966 Z" id="Path" fill="#E8E8E8"></path>
                <path d="M341.708599,189.208966 C335.808599,193.308966 334.808599,200.608966 338.908599,206.308966 C342.608599,211.308966 336.908599,213.608966 338.008599,218.308966 C338.408599,220.008966 339.808599,221.008966 340.608599,222.508966 C342.608599,226.208966 340.308599,230.108966 338.408599,233.408966 C337.408599,235.108966 340.008599,236.608966 341.008599,234.908966 C342.808599,231.808966 344.808599,228.208966 344.508599,224.508966 C344.408599,222.808966 343.708599,221.708966 343.008599,220.208966 C342.508599,219.308966 341.908599,219.008966 341.508599,217.908966 C341.008599,216.008966 341.708599,215.608966 342.608599,213.808966 C343.908599,211.308966 344.408599,209.208966 343.008599,206.608966 C341.708599,204.208966 339.608599,202.808966 339.408599,199.808966 C339.208599,196.608966 340.708599,193.508966 343.308599,191.708966 C344.808599,190.708966 343.308599,188.108966 341.708599,189.208966 L341.708599,189.208966 Z" id="Path" fill="#F24088"></path>
                <path d="M198.608599,264.208966 C196.708599,266.308966 195.508599,268.608966 195.308599,271.408966 C195.108599,274.608966 197.708599,277.908966 196.308599,280.808966 C195.308599,282.908966 194.208599,283.708966 194.408599,286.308966 C194.608599,289.008966 199.108599,296.408966 195.008599,298.008966 C193.208599,298.708966 194.008599,301.608966 195.808599,300.908966 C200.808599,299.008966 199.808599,293.708966 198.408599,289.608966 C197.308599,286.408966 198.208599,284.808966 199.608599,281.808966 C199.908599,281.108966 200.408599,280.608966 200.508599,279.808966 C200.708599,278.208966 199.808599,277.308966 199.208599,276.008966 C197.608599,272.508966 198.008599,269.108966 200.608599,266.308966 C202.008599,264.908966 199.808599,262.708966 198.608599,264.208966 L198.608599,264.208966 Z" id="Path" fill="#F24088"></path>
                <path d="M963.808599,295.308966 C959.808599,295.008966 956.908599,298.008966 956.308599,301.908966 C955.408599,307.608966 960.108599,311.608966 962.508599,316.208966 C964.108599,319.408966 963.508599,321.908966 962.508599,325.008966 C962.008599,326.608966 961.408599,326.108966 961.308599,327.908966 C961.208599,329.408966 961.808599,330.508966 962.808599,331.608966 C965.508599,334.708966 967.708599,336.108966 967.408599,340.708966 C967.108599,344.808966 965.208599,348.708966 963.408599,352.208966 C962.508599,353.908966 965.108599,355.408966 966.008599,353.708966 C968.108599,349.708966 970.208599,345.308966 970.408599,340.708966 C970.708599,336.208966 968.908599,334.208966 966.508599,330.808966 C965.708599,330.308966 965.408599,329.508966 965.508599,328.408966 C964.708599,327.208966 964.908599,326.208966 965.908599,325.308966 C966.108599,324.408966 966.608599,323.708966 966.808599,322.708966 C967.208599,320.608966 966.808599,318.508966 966.008599,316.408966 C965.208599,314.208966 963.808599,312.408966 962.508599,310.508966 C961.408599,308.908966 960.108599,307.108966 959.608599,305.208966 C958.808599,302.308966 959.608599,297.908966 963.908599,298.208966 C965.708599,298.508966 965.708599,295.508966 963.808599,295.308966 L963.808599,295.308966 Z" id="Path" fill="#F24088"></path>
            </g>
            <g id="girl_meditating" transform="translate(382.3237, 252.1928)">
                <g id="leg_left" transform="translate(277.1339, 417.6137)">
                    <path d="M106.145306,169.402416 C86.4453063,172.402416 69.8453063,173.102416 58.3453063,173.102416 C52.0453063,264.802416 52.9453063,311.302416 61.1453063,312.602416 C68.0453063,313.702416 80.1453063,282.702416 97.3453063,219.602416 C121.045306,213.702416 144.845306,207.802416 168.545306,201.902416 C170.945306,178.702416 165.545306,169.702416 160.145306,165.602416 C150.145306,158.102416 136.145306,164.702416 106.145306,169.402416 Z" id="Path" stroke="#161616" stroke-width="3" fill="#161616"></path>
                    <path d="M9.44530631,6.90241593 C-7.15469369,22.0024159 -1.45469369,63.0024159 23.2453063,105.902416 C29.0453063,105.202416 38.1453063,104.602416 49.0453063,105.502416 C53.5453063,105.902416 67.6453063,107.302416 103.645306,120.402416 C111.145306,123.202416 121.545306,127.102416 133.945306,132.402416 C124.245306,135.002416 114.545306,137.602416 104.745306,140.202416 C105.845306,151.902416 107.845306,165.202416 111.445306,179.402416 C118.045306,205.702416 127.845306,227.202416 136.845306,243.302416 C159.345306,236.702416 177.745306,230.202416 191.045306,225.402416 C222.945306,213.702416 239.845306,205.302416 256.045306,194.002416 C273.345306,181.902416 282.445306,171.702416 285.245306,158.902416 C286.845306,151.502416 285.945306,145.102416 285.645306,142.802416 C283.645306,130.402416 276.745306,122.002416 269.545306,114.002416 C253.745306,96.3024159 245.845306,87.5024159 232.945306,77.7024159 C203.445306,55.4024159 176.545306,43.7024159 146.645306,31.0024159 C123.545306,21.2024159 108.145306,14.7024159 85.7453063,9.30241593 C49.9453063,1.00241593 23.0453063,-5.49758407 9.44530631,6.90241593 Z" id="Path" fill="#F24088"></path>
                    <path d="M78.5453063,8.80241593 C108.645306,17.6024159 137.945306,28.8024159 166.345306,42.3024159 C191.245306,54.1024159 216.245306,67.2024159 237.845306,84.5024159 C247.845306,92.5024159 257.145306,101.402416 265.245306,111.402416 C274.045306,122.302416 285.445306,137.002416 285.245306,151.702416 C285.045306,165.402416 272.045306,177.902416 262.545306,186.502416 C252.445306,195.602416 240.945306,202.802416 228.745306,208.702416 C198.945306,223.102416 165.945306,229.002416 135.745306,242.502416 C133.945306,243.302416 135.545306,245.902416 137.245306,245.102416 C166.245306,232.102416 197.845306,226.202416 226.745306,212.902416 C238.945306,207.302416 250.645306,200.402416 261.045306,191.702416 C270.745306,183.602416 281.745306,172.902416 286.445306,160.902416 C291.545306,147.902416 284.645306,134.502416 277.745306,123.702416 C270.245306,111.902416 261.145306,101.202416 250.845306,91.7024159 C230.445306,72.8024159 206.145306,58.8024159 181.445306,46.4024159 C148.745306,29.9024159 114.545306,16.3024159 79.3453063,6.00241593 C77.4453063,5.40241593 76.6453063,8.20241593 78.5453063,8.80241593 L78.5453063,8.80241593 Z" id="Path" fill="#EC615B"></path>
                    <path d="M184.245306,117.302416 C170.945306,121.102416 157.545306,124.902416 144.245306,128.702416 C131.145306,132.402416 117.745306,135.702416 104.945306,140.302416 C103.145306,141.002416 103.945306,143.902416 105.745306,143.202416 C118.545306,138.502416 131.945306,135.302416 145.045306,131.602416 C158.345306,127.802416 171.745306,124.002416 185.045306,120.202416 C186.845306,119.702416 186.045306,116.802416 184.245306,117.302416 L184.245306,117.302416 Z" id="Path" fill="#EC615B"></path>
                    <path d="M103.745306,140.502416 C107.045306,176.802416 117.145306,212.302416 134.545306,244.402416 C135.445306,246.102416 138.045306,244.602416 137.145306,242.902416 C120.045306,211.302416 110.045306,176.302416 106.745306,140.602416 C106.645306,138.602416 103.645306,138.602416 103.745306,140.502416 L103.745306,140.502416 Z" id="Path" fill="#EC615B"></path>
                    <path d="M134.345306,132.402416 C99.6453063,112.502416 60.2453063,102.102416 20.1453063,103.702416 C18.2453063,103.802416 18.2453063,106.802416 20.1453063,106.702416 C59.6453063,105.002416 98.5453063,115.302416 132.745306,135.002416 C134.545306,135.902416 136.045306,133.302416 134.345306,132.402416 L134.345306,132.402416 Z" id="Path" fill="#EC615B"></path>
                    <path d="M18.1453063,42.8024159 C27.4453063,44.9024159 41.0453063,48.4024159 57.1453063,53.7024159 C69.0453063,57.6024159 91.5453063,65.5024159 143.245306,91.6024159 C160.645306,100.402416 183.545306,112.302416 210.045306,127.202416 C176.345306,142.102416 142.645306,157.002416 108.945306,171.802416 C107.145306,161.502416 105.245306,151.302416 103.445306,141.002416 C112.145306,138.202416 120.845306,135.502416 129.545306,132.702416 C116.245306,125.402416 97.4453063,116.802416 73.8453063,111.402416 C54.3453063,106.902416 37.1453063,105.802416 23.6453063,105.902416 C21.7453063,84.8024159 19.9453063,63.8024159 18.1453063,42.8024159 Z" id="Path" fill="#3D3D3D" opacity="0.11"></path>
                    <path d="M23.5453063,105.502416 C39.4453063,102.702416 65.2453063,100.102416 95.8453063,106.302416 C122.245306,111.602416 142.445306,121.502416 155.545306,129.202416 C139.045306,138.602416 122.645306,147.902416 106.145306,157.302416 C105.045306,151.802416 104.045306,146.202416 102.945306,140.702416 C111.745306,137.902416 120.545306,135.202416 129.445306,132.402416 C117.745306,126.102416 102.845306,119.402416 84.8453063,114.202416 C60.7453063,107.302416 39.4453063,105.502416 23.5453063,105.502416 Z" id="Path" fill="#3D3D3D" opacity="0.11"></path>
                </g>
                <g id="leg_right" transform="translate(-0, 407.0408)">
                    <path d="M170.779255,212.275361 C185.679255,217.475361 200.579255,222.675361 215.379255,227.875361 C218.479255,292.175361 222.979255,324.475361 228.779255,324.676806 C235.879255,324.975361 244.979255,278.575361 256.179255,185.375361 C232.479255,179.675361 208.879255,173.875361 185.179255,168.175361 C180.479255,182.875361 175.679255,197.575361 170.779255,212.275361 Z" id="Path" stroke="#161616" stroke-width="3" fill="#161616"></path>
                    <path d="M300.579255,116.175361 C299.679255,87.4753606 296.379255,63.6753606 293.179255,46.2753606 C286.479255,9.57536061 280.679255,3.77536061 275.579255,1.37536061 C264.479255,-3.72463939 253.179255,6.07536061 224.979255,18.9753606 C201.879255,29.5753606 204.879255,25.0753606 165.279255,39.9753606 C136.279255,50.8753606 101.279255,65.8753606 64.0792548,87.6753606 C56.0792548,92.3753606 37.2792548,103.675361 19.1792548,124.075361 C2.17925482,143.175361 0.97925482,153.275361 0.97925482,158.175361 C0.97925482,163.175361 2.17925482,174.375361 18.5792548,191.175361 C37.8792548,210.875361 59.6792548,219.375361 122.579255,239.475361 C139.879255,244.975361 155.679255,249.975361 169.779255,254.275361 C177.379255,239.775361 183.179255,227.175361 187.379255,217.375361 C199.179255,189.775361 201.679255,176.775361 202.679255,170.175361 C203.779255,162.875361 204.279255,156.775361 204.379255,152.575361 C194.179255,149.875361 183.879255,147.275361 173.679255,144.575361 C185.279255,137.975361 199.679255,131.175361 216.879255,125.775361 C250.679255,115.275361 280.379255,114.675361 300.579255,116.175361 Z" id="Path" fill="#F24088"></path>
                    <path d="M176.679255,145.375361 C181.079255,146.375361 185.579255,147.375361 189.979255,148.375361 C194.379255,149.375361 199.379255,149.875361 203.079255,152.675361 C204.579255,153.875361 206.079255,151.275361 204.579255,150.075361 C201.079255,147.375361 196.779255,146.775361 192.579255,145.875361 C187.579255,144.775361 182.479255,143.575361 177.479255,142.475361 C175.579255,142.075361 174.779255,144.975361 176.679255,145.375361 L176.679255,145.375361 Z" id="Path" fill="#EC615B"></path>
                    <path d="M232.979255,16.7753606 C189.179255,28.2753606 146.579255,43.8753606 105.579255,63.1753606 C83.9792548,73.3753606 63.0792548,85.7753606 44.1792548,100.375361 C23.1792548,116.575361 -14.4207452,150.075361 5.77925482,179.475361 C15.0792548,192.975361 29.1792548,202.975361 43.1792548,211.075361 C54.5792548,217.775361 66.6792548,223.375361 78.9792548,228.075361 C86.1792548,230.775361 93.6792548,232.775361 101.079255,235.075361 C123.579255,241.875361 146.079255,248.975361 168.479255,256.175361 C170.279255,256.775361 171.079255,253.875361 169.279255,253.275361 C150.779255,247.275361 132.279255,241.375361 113.679255,235.775361 C103.979255,232.775361 94.0792548,230.275361 84.4792548,226.875361 C60.8792548,218.775361 36.5792548,206.575361 18.4792548,189.375361 C12.5792548,183.775361 6.47925482,177.175361 4.27925482,169.275361 C1.47925482,159.475361 4.97925482,149.675361 9.87925482,141.275361 C17.7792548,127.675361 29.4792548,116.375361 41.5792548,106.475361 C60.9792548,90.6753606 82.8792548,77.5753606 105.479255,66.7753606 C146.679255,47.0753606 189.779255,31.3753606 233.979255,19.8753606 C235.679255,19.1753606 234.879255,16.2753606 232.979255,16.7753606 L232.979255,16.7753606 Z" id="Path" fill="#EC615B"></path>
                    <path d="M114.379255,131.075361 C129.279255,134.875361 144.279255,138.675361 159.179255,142.375361 C173.879255,146.075361 188.879255,149.275361 203.279255,154.075361 C205.079255,154.675361 205.879255,151.775361 204.079255,151.175361 C189.679255,146.475361 174.679255,143.275361 159.979255,139.475361 C145.079255,135.675361 130.079255,131.875361 115.179255,128.175361 C113.279255,127.775361 112.479255,130.675361 114.379255,131.075361 L114.379255,131.075361 Z" id="Path" fill="#EC615B"></path>
                    <path d="M202.379255,151.475361 C198.679255,187.675361 187.179255,222.775361 168.279255,253.775361 C167.279255,255.475361 169.879255,256.975361 170.879255,255.275361 C190.079255,223.675361 201.679255,188.075361 205.379255,151.375361 C205.579255,149.475361 202.579255,149.575361 202.379255,151.475361 L202.379255,151.475361 Z" id="Path" fill="#EC615B"></path>
                    <path d="M172.779255,145.875361 C211.879255,125.875361 255.379255,115.975361 299.279255,117.575361 C301.179255,117.675361 301.179255,114.675361 299.279255,114.575361 C254.879255,112.875361 210.779255,122.975361 171.279255,143.275361 C169.579255,144.175361 171.079255,146.775361 172.779255,145.875361 L172.779255,145.875361 Z" id="Path" fill="#EC615B"></path>
                    <path d="M279.679255,61.5753606 C236.679255,82.4753606 208.379255,97.1753606 195.679255,103.275361 C162.279255,119.075361 129.679255,133.575361 97.9792548,146.975361 C122.179255,144.275361 145.779255,155.475361 158.079255,175.675361 C171.979255,198.475361 169.079255,228.675361 150.579255,249.475361 C156.979255,251.775361 163.379255,254.075361 169.679255,256.275361 C175.079255,247.675361 180.479255,237.875361 185.379255,226.875361 C198.379255,197.975361 203.679255,171.175361 205.879255,150.375361 C196.779255,147.375361 187.679255,144.475361 178.579255,141.475361 C186.779255,137.875361 195.679255,134.375361 205.179255,131.275361 C241.179255,119.475361 274.279255,116.675361 300.679255,117.075361 C300.379255,109.875361 299.979255,102.575361 299.479255,95.0753606 C298.479255,80.7753606 296.979255,67.0753606 295.279255,54.0753606 C291.679255,55.7753606 286.279255,58.4753606 279.679255,61.5753606 Z" id="Path" fill="#3D3D3D" opacity="0.13"></path>
                    <path d="M297.179255,114.475361 C297.079255,113.175361 271.379255,110.875361 240.279255,115.275361 C205.079255,120.275361 177.579255,131.775361 159.679255,140.975361 C168.779255,147.775361 177.879255,154.675361 186.979255,161.475361 C182.079255,191.375361 177.279255,221.275361 172.379255,251.175361 C182.479255,234.575361 193.879255,211.375361 200.479255,182.075361 C203.079255,170.375361 204.479255,159.575361 205.179255,149.675361 C202.479255,148.875361 199.679255,148.075361 196.879255,147.275361 C190.379255,145.475361 184.079255,143.875361 177.879255,142.575361 C182.779255,140.375361 189.679255,137.375361 198.079255,134.275361 C252.379255,114.075361 297.179255,116.075361 297.179255,114.475361 Z" id="Path" fill="#3D3D3D" opacity="0.15"></path>
                </g>
                <g id="hand_left" transform="translate(363.4793, 191.2805)">
                    <path d="M10.1,0.235645279 C15.2,-1.46435472 22.9,6.43564528 27.5,11.0356453 C34.9,18.5356453 38.6,26.1356453 39.7,28.4356453 C53.3,56.6356453 50.9,45.4356453 62.4,71.6356453 C76.5,103.935645 86.1,134.435645 86.1,134.435645 C90.8,149.335645 93.7,160.435645 102.8,174.135645 C113.1,189.535645 121.6,193.635645 125.1,195.035645 C136.7,199.835645 147.7,197.735645 152.6,196.435645 C157.9,191.235645 162,186.735645 164.8,183.535645 C170.5,177.035645 172.9,173.535645 177.4,173.035645 C178.4,172.935645 183,172.435645 185.4,175.135645 C186.5,176.335645 186.7,177.635645 187.8,177.935645 C189.2,178.335645 190.6,176.735645 192.3,175.135645 C193,174.435645 197.6,170.135645 202.4,168.135645 C204.9,167.035645 209.7,165.635645 211.1,167.435645 C212.5,169.235645 209.4,173.035645 210.8,174.435645 C212.2,175.835645 215.6,172.635645 219.2,174.135645 C221.2,175.035645 222.9,177.235645 223,179.335645 C223.2,181.935645 221,182.535645 220.6,185.935645 C220.2,188.735645 221.5,189.235645 221.3,191.535645 C220.9,195.035645 217.7,195.535645 213.3,200.635645 C210.8,203.535645 211.5,203.735645 207,210.435645 C205.3,212.935645 203.1,216.235645 201.4,218.135645 C194.8,225.535645 183.6,226.135645 177.7,226.535645 C166.3,227.135645 157.3,223.735645 152.2,221.335645 C148.8,223.735645 143.6,226.735645 136.9,229.035645 C119.6,234.735645 104.4,230.735645 98.2,229.035645 C73.5,222.135645 59,203.435645 49.4,190.635645 C35.1,171.635645 29.9,155.135645 20.5,125.135645 C17.6,116.035645 8.9,87.1356453 5.5,48.4356453 C4.1,30.8356453 1.8,3.03564528 10.1,0.235645279 Z" id="Path" fill="#FFFFFF"></path>
                    <path d="M12.9,3.83564528 C21.7,6.73564528 27.8,13.8356453 32.9,21.3356453 C38.2,29.0356453 42.9,37.1356453 47.4,45.4356453 C56.5,62.4356453 64.1,80.1356453 71.2,98.0356453 C78.4,116.035645 85,134.235645 91.7,152.335645 C97.1,166.735645 103.6,182.035645 116.1,191.635645 C127.7,200.535645 144.2,204.235645 157.2,196.135645 C158.8,195.135645 157.3,192.535645 155.7,193.535645 C141.9,202.135645 124.1,196.135645 113.4,185.235645 C101.2,172.635645 96,155.135645 90.1,139.135645 C77.6,104.935645 64.8,70.1356453 46.9,38.2356453 C39.1,24.3356453 29.9,6.33564528 13.7,0.935645279 C11.9,0.335645279 11.1,3.23564528 12.9,3.83564528 L12.9,3.83564528 Z" id="Path" fill="#161616"></path>
                    <path d="M11.9,100.735645 C20.8,131.535645 28.3,163.735645 46.6,190.535645 C61.7,212.735645 84.1,230.435645 111.6,232.635645 C126.5,233.835645 141.6,230.235645 153.6,221.235645 C155.1,220.135645 153.6,217.435645 152.1,218.635645 C138.1,229.235645 120,231.935645 103,228.435645 C86.2,224.935645 71.7,215.235645 60.2,202.835645 C34.1,174.535645 25.4,135.935645 15,100.035645 C14.3,98.1356453 11.4,98.9356453 11.9,100.735645 L11.9,100.735645 Z" id="Path" fill="#161616"></path>
                    <path d="M157.5,196.535645 C161.7,190.635645 165.6,183.835645 170.7,178.735645 C173.7,175.735645 178.6,172.735645 182.9,175.135645 C186.6,177.235645 186.9,182.035645 184.7,185.235645 C183.6,186.835645 186.2,188.335645 187.3,186.735645 C192,180.035645 187.1,171.035645 178.9,171.435645 C174,171.735645 170,174.835645 167,178.535645 C162.7,183.735645 159,189.535645 155,195.035645 C153.8,196.535645 156.4,198.035645 157.5,196.535645 L157.5,196.535645 Z" id="Path" fill="#161616"></path>
                    <path d="M171.4,183.435645 C169.2,187.835645 171.9,192.935645 176.8,193.735645 C182.7,194.635645 187,189.635645 188,184.335645 C188.4,182.435645 185.5,181.635645 185.1,183.535645 C184.5,186.735645 182.8,190.035645 179.3,190.735645 C176,191.435645 172.3,188.535645 174,185.035645 C174.8,183.235645 172.2,181.735645 171.4,183.435645 L171.4,183.435645 Z" id="Path" fill="#161616"></path>
                    <path d="M151.6,222.135645 C163.1,224.435645 174,229.735645 185.9,227.235645 C195.5,225.235645 203.7,219.335645 209,211.235645 C210.1,209.635645 207.5,208.135645 206.4,209.735645 C201.2,217.635645 193,223.135645 183.6,224.635645 C172.8,226.335645 162.7,221.335645 152.3,219.235645 C150.5,218.935645 149.7,221.835645 151.6,222.135645 L151.6,222.135645 Z" id="Path" fill="#161616"></path>
                    <path d="M179.9,190.735645 C176.7,192.635645 177.1,197.035645 179.8,199.335645 C182.1,201.235645 185.2,200.935645 188,200.935645 C192.8,200.835645 196.8,201.635645 201,204.035645 C202.7,204.935645 204.2,202.435645 202.5,201.435645 C199.4,199.635645 196.1,198.435645 192.5,198.035645 C190.8,197.835645 189.1,197.935645 187.3,197.935645 C186.2,197.935645 185.1,198.035645 184.1,197.835645 C182.9,197.535645 179,194.835645 181.4,193.435645 C183,192.335645 181.5,189.735645 179.9,190.735645 L179.9,190.735645 Z" id="Path" fill="#161616"></path>
                    <path d="M181.9,192.035645 C189.4,187.735645 198.6,188.635645 205,194.535645 C206.4,195.835645 208.5,193.735645 207.1,192.435645 C199.7,185.635645 189.1,184.435645 180.4,189.435645 C178.7,190.435645 180.2,193.035645 181.9,192.035645 L181.9,192.035645 Z" id="Path" fill="#161616"></path>
                    <path d="M188.4,179.835645 C191.7,177.435645 194.9,175.135645 198.2,172.735645 C199.6,171.735645 200.9,170.735645 202.4,169.835645 C203.4,169.235645 204.4,168.635645 205.5,168.235645 C210.2,166.635645 211.3,168.935645 208.7,175.135645 C206.9,175.735645 207.7,178.635645 209.5,178.035645 C214.9,176.135645 216.8,168.835645 211.2,165.735645 C208.1,163.935645 204.4,165.235645 201.6,166.835645 C196.5,169.735645 191.8,173.835645 187,177.235645 C185.3,178.435645 186.8,181.035645 188.4,179.835645 L188.4,179.835645 Z" id="Path" fill="#161616"></path>
                    <path d="M194.8,187.835645 C198.8,185.335645 202.8,182.735645 206.8,180.235645 C208.6,179.135645 210.4,177.835645 212.4,176.935645 C213.9,176.135645 215.5,175.835645 217.2,175.835645 C220.7,175.835645 222,177.935645 221.1,182.035645 C219.9,183.535645 222,185.635645 223.2,184.135645 C227,179.335645 223.6,173.435645 217.8,172.935645 C214,172.535645 210.6,174.435645 207.5,176.335645 C202.7,179.235645 198,182.335645 193.3,185.335645 C191.6,186.235645 193.1,188.835645 194.8,187.835645 L194.8,187.835645 Z" id="Path" fill="#161616"></path>
                    <path d="M206.5,192.535645 C209.2,191.035645 211.9,189.635645 214.6,188.335645 C215.5,187.835645 218.5,186.035645 219.4,186.235645 C221.9,186.735645 220.2,189.235645 219.6,190.235645 C218.6,191.835645 221.2,193.435645 222.2,191.735645 C223.8,189.135645 225.2,184.035645 220.9,183.235645 C218.6,182.735645 216.1,184.335645 214.1,185.335645 C211,186.835645 207.9,188.335645 204.9,190.035645 C203.3,190.935645 204.9,193.535645 206.5,192.535645 L206.5,192.535645 Z" id="Path" fill="#161616"></path>
                    <path d="M202.3,191.835645 C209.5,195.835645 210.9,204.735645 205.2,210.735645 C203.9,212.135645 206,214.235645 207.3,212.835645 C214.3,205.535645 212.7,194.135645 203.8,189.235645 C202.2,188.335645 200.6,190.935645 202.3,191.835645 L202.3,191.835645 Z" id="Path" fill="#161616"></path>
                    <path d="M220.7,190.735645 C217.5,194.835645 213.8,198.435645 209.7,201.435645 C208.2,202.535645 209.6,205.135645 211.2,204.035645 C215.6,200.835645 219.5,197.135645 222.9,192.835645 C224,191.335645 221.9,189.235645 220.7,190.735645 L220.7,190.735645 Z" id="Path" fill="#161616"></path>
                    <path d="M172.1,202.435645 C178.4,202.935645 184.3,204.935645 189.6,208.435645 C191.2,209.535645 192.7,206.935645 191.1,205.835645 C185.3,202.135645 179,200.035645 172.1,199.435645 C170.2,199.335645 170.2,202.335645 172.1,202.435645 L172.1,202.435645 Z" id="Path" fill="#161616"></path>
                    <path d="M1.13686838e-13,24.4356453 C1.8,37.2356453 4.7,55.2356453 9,76.8356453 C11.8,90.8356453 13.8,101.135645 17.5,114.835645 C23.1,135.635645 27.7,153.135645 38.5,173.435645 C45.6,186.735645 50.4,195.835645 60.4,205.635645 C67.5,212.535645 86.1,230.735645 114.1,231.135645 C131.2,231.335645 144.7,224.835645 152.6,219.935645 C157.3,222.535645 165.4,226.035645 175.9,226.235645 C180.8,226.335645 190,226.435645 198.7,220.435645 C201.7,218.335645 209.7,212.935645 210.3,203.835645 C210.4,202.435645 210.8,194.835645 205.4,190.835645 C199.4,186.435645 189.6,189.035645 188.8,192.135645 C188.1,195.035645 195.3,197.435645 195.1,201.535645 C194.8,206.735645 183,209.935645 180.8,210.535645 C110.4,229.535645 72.5,198.035645 72.5,198.035645 C61,188.435645 54.9,178.035645 40.7,142.535645 C29,113.335645 14.3,73.4356453 1.13686838e-13,24.4356453 Z" id="Path" fill="#3D3D3D" opacity="0.09"></path>
                </g>
                <g id="hand_right" transform="translate(11.4605, 188.5298)">
                    <path d="M66.3187258,218.986302 C70.9187258,222.386302 83.1187258,230.286302 99.8187258,230.187242 C115.418726,230.086302 126.418726,222.986302 132.618726,218.986302 C142.918726,212.386302 148.818726,205.086302 154.218726,198.086302 C171.018726,176.786302 177.718726,154.586302 182.518726,138.486302 C186.818726,124.086302 185.118726,124.886302 189.218726,112.386302 C196.918726,88.9863019 203.518726,83.6863019 210.118726,66.9863019 C221.018726,39.3863019 221.718726,6.48630189 213.118726,2.88630189 C209.118726,1.28630189 203.218726,5.98630189 191.518726,15.5863019 C188.018726,18.4863019 181.818726,23.5863019 175.318726,31.4863019 C170.118726,37.8863019 161.018726,50.4863019 150.918726,80.5863019 C142.718726,105.186302 144.518726,109.186302 134.818726,136.386302 C128.818726,153.286302 125.018726,160.186302 120.418726,166.486302 C115.218726,173.486302 106.618726,184.886302 91.0187258,190.886302 C79.1187258,195.486302 68.4187258,194.886302 62.5187258,194.086302 C61.7187258,190.086302 59.0187258,179.086302 49.7187258,173.686302 C47.4187258,172.286302 41.8187258,169.086302 37.8187258,171.486302 C35.5187258,172.886302 34.7187258,175.486302 34.4187258,176.886302 C30.0187258,170.686302 25.2187258,167.986302 22.5187258,166.786302 C19.9187258,165.686302 14.6187258,163.286302 12.4187258,165.486302 C10.4187258,167.486302 12.2187258,172.086302 12.4187258,172.686302 C9.61872582,171.186302 6.41872582,171.386302 4.11872582,173.086302 C2.41872582,174.386302 0.518725815,176.986302 1.21872582,179.786302 C1.71872582,181.686302 3.21872582,182.886302 3.71872582,183.186302 C3.11872582,184.886302 2.61872582,187.486302 3.51872582,190.186302 C4.01872582,191.586302 4.61872582,192.486302 8.21872582,196.486302 C12.8187258,201.686302 12.9187258,201.486302 13.8187258,202.786302 C16.3187258,206.486302 15.8187258,208.486302 17.4187258,211.786302 C20.2187258,217.886302 26.2187258,220.786302 28.2187258,221.686302 C34.6187258,224.786302 40.5187258,223.986302 50.2187258,222.586302 C56.4187258,221.886302 61.8187258,220.486302 66.3187258,218.986302 Z" id="Path" fill="#FFFFFF"></path>
                    <path d="M212.818726,0.186301887 C197.518726,7.88630189 183.718726,18.4863019 173.018726,31.9863019 C162.318726,45.4863019 154.918726,61.0863019 149.318726,77.2863019 C143.718726,93.6863019 139.718726,110.586302 135.418726,127.286302 C131.318726,143.486302 124.418726,160.286302 113.618726,173.186302 C101.018726,188.286302 81.4187258,194.086302 62.3187258,191.886302 C60.4187258,191.686302 60.4187258,194.686302 62.3187258,194.886302 C77.4187258,196.586302 93.1187258,193.686302 105.618726,184.786302 C118.818726,175.386302 127.118726,159.686302 133.018726,144.886302 C139.318726,129.186302 142.118726,112.086302 146.718726,95.8863019 C151.618726,78.3863019 157.618726,60.9863019 167.218726,45.4863019 C178.618726,26.9863019 194.918726,12.5863019 214.318726,2.88630189 C216.118726,1.88630189 214.518726,-0.713698113 212.818726,0.186301887 L212.818726,0.186301887 Z" id="Path" fill="#161616"></path>
                    <path d="M191.318726,98.3863019 C182.218726,132.986302 174.818726,170.286302 152.018726,198.986302 C142.118726,211.386302 129.218726,221.986302 113.618726,226.186302 C97.4187258,230.586302 79.9187258,228.086302 66.8187258,217.286302 C65.3187258,216.086302 63.2187258,218.186302 64.7187258,219.386302 C84.6187258,235.786302 113.018726,234.086302 133.818726,220.086302 C156.618726,204.786302 170.118726,178.986302 178.918726,153.686302 C185.118726,135.886302 189.418726,117.386302 194.218726,99.1863019 C194.718726,97.2863019 191.818726,96.4863019 191.318726,98.3863019 L191.318726,98.3863019 Z" id="Path" fill="#161616"></path>
                    <path d="M63.9187258,193.386302 C60.4187258,187.986302 57.1187258,182.286302 53.2187258,177.186302 C50.5187258,173.586302 46.9187258,170.186302 42.1187258,169.786302 C33.8187258,169.286302 30.2187258,178.786302 34.2187258,185.086302 C35.2187258,186.686302 37.8187258,185.186302 36.8187258,183.586302 C34.9187258,180.586302 35.0187258,175.586302 38.4187258,173.486302 C43.2187258,170.486302 48.1187258,175.386302 50.7187258,178.786302 C54.6187258,183.886302 57.8187258,189.486302 61.3187258,194.886302 C62.3187258,196.486302 64.9187258,194.986302 63.9187258,193.386302 L63.9187258,193.386302 Z" id="Path" fill="#161616"></path>
                    <path d="M46.3187258,183.386302 C47.9187258,186.786302 44.6187258,190.186302 41.1187258,188.986302 C38.2187258,187.986302 36.9187258,184.686302 36.4187258,181.886302 C36.1187258,179.986302 33.2187258,180.786302 33.5187258,182.686302 C34.4187258,187.686302 38.0187258,192.886302 43.7187258,192.186302 C48.6187258,191.586302 50.8187258,186.086302 48.9187258,181.886302 C48.1187258,180.086302 45.5187258,181.586302 46.3187258,183.386302 L46.3187258,183.386302 Z" id="Path" fill="#161616"></path>
                    <path d="M66.0187258,217.686302 C56.8187258,219.686302 47.8187258,224.586302 38.2187258,223.086302 C29.1187258,221.686302 21.5187258,215.886302 16.9187258,208.186302 C15.9187258,206.486302 13.3187258,208.086302 14.3187258,209.686302 C19.0187258,217.586302 26.4187258,223.586302 35.5187258,225.686302 C46.5187258,228.186302 56.3187258,222.886302 66.8187258,220.586302 C68.7187258,220.186302 67.9187258,217.286302 66.0187258,217.686302 L66.0187258,217.686302 Z" id="Path" fill="#161616"></path>
                    <path d="M39.6187258,191.686302 C40.3187258,192.186302 40.4187258,193.186302 40.1187258,193.886302 C39.5187258,195.886302 37.3187258,196.086302 35.5187258,196.286302 C33.6187258,196.386302 31.7187258,196.086302 29.7187258,196.286302 C26.3187258,196.686302 23.2187258,197.886302 20.3187258,199.686302 C18.7187258,200.686302 20.2187258,203.286302 21.8187258,202.286302 C25.5187258,199.986302 29.2187258,199.086302 33.6187258,199.186302 C36.2187258,199.286302 38.9187258,199.486302 41.0187258,197.686302 C43.7187258,195.486302 44.0187258,190.986302 41.0187258,189.086302 C39.5187258,188.086302 38.0187258,190.686302 39.6187258,191.686302 L39.6187258,191.686302 Z" id="Path" fill="#161616"></path>
                    <path d="M40.7187258,187.886302 C32.8187258,182.786302 22.8187258,184.186302 16.2187258,190.886302 C14.8187258,192.286302 17.0187258,194.386302 18.3187258,192.986302 C24.0187258,187.286302 32.3187258,186.086302 39.2187258,190.486302 C40.8187258,191.486302 42.3187258,188.886302 40.7187258,187.886302 L40.7187258,187.886302 Z" id="Path" fill="#161616"></path>
                    <path d="M35.1187258,175.886302 C31.0187258,172.586302 27.0187258,169.086302 22.7187258,166.086302 C20.1187258,164.286302 16.8187258,162.486302 13.6187258,163.686302 C7.31872582,165.986302 8.61872582,174.386302 14.1187258,176.486302 C15.9187258,177.186302 16.7187258,174.286302 14.9187258,173.586302 C11.2187258,169.186302 11.5187258,167.186302 15.8187258,167.586302 C17.4187258,166.786302 18.8187258,166.886302 20.0187258,167.886302 C21.7187258,168.686302 23.3187258,170.386302 24.8187258,171.486302 C27.5187258,173.686302 30.3187258,175.886302 33.0187258,178.086302 C34.4187258,179.186302 36.6187258,177.086302 35.1187258,175.886302 L35.1187258,175.886302 Z" id="Path" fill="#161616"></path>
                    <path d="M28.9187258,183.686302 C24.6187258,180.686302 20.3187258,177.586302 16.0187258,174.686302 C13.2187258,172.786302 10.1187258,170.986302 6.71872582,171.286302 C1.31872582,171.786302 -1.98127418,177.686302 1.31872582,182.286302 C2.41872582,183.786302 5.01872582,182.286302 3.91872582,180.786302 C1.71872582,176.786302 3.51872582,174.686302 9.11872582,174.486302 C10.4187258,174.886302 11.6187258,175.386302 12.7187258,176.086302 C14.1187258,176.886302 15.4187258,177.886302 16.7187258,178.786302 C20.3187258,181.286302 23.9187258,183.786302 27.5187258,186.286302 C29.0187258,187.386302 30.5187258,184.786302 28.9187258,183.686302 L28.9187258,183.686302 Z" id="Path" fill="#161616"></path>
                    <path d="M18.2187258,188.386302 C15.5187258,186.686302 12.7187258,185.086302 9.81872582,183.686302 C7.91872582,182.686302 5.31872582,180.886302 3.01872582,181.686302 C-0.581274185,182.986302 0.818725815,187.786302 2.21872582,190.186302 C3.11872582,191.886302 5.71872582,190.386302 4.81872582,188.686302 C4.51872582,188.086302 3.41872582,186.286302 3.71872582,185.586302 C4.11872582,184.586302 5.71872582,185.186302 6.41872582,185.386302 C7.21872582,185.586302 8.01872582,186.186302 8.81872582,186.586302 C11.5187258,187.986302 14.1187258,189.486302 16.7187258,191.086302 C18.3187258,191.986302 19.9187258,189.386302 18.2187258,188.386302 L18.2187258,188.386302 Z" id="Path" fill="#161616"></path>
                    <path d="M19.2187258,187.686302 C10.8187258,192.886302 9.71872582,203.986302 16.0187258,211.286302 C17.3187258,212.786302 19.4187258,210.586302 18.1187258,209.186302 C13.1187258,203.386302 14.0187258,194.386302 20.7187258,190.286302 C22.3187258,189.286302 20.8187258,186.686302 19.2187258,187.686302 L19.2187258,187.686302 Z" id="Path" fill="#161616"></path>
                    <path d="M1.61872582,190.986302 C4.61872582,195.186302 8.11872582,198.986302 12.2187258,202.286302 C13.7187258,203.486302 15.8187258,201.386302 14.3187258,200.186302 C10.4187258,197.086302 7.11872582,193.586302 4.21872582,189.486302 C3.01872582,187.886302 0.418725815,189.386302 1.61872582,190.986302 L1.61872582,190.986302 Z" id="Path" fill="#161616"></path>
                    <path d="M48.1187258,197.886302 C41.8187258,198.486302 35.9187258,200.586302 30.7187258,204.286302 C29.1187258,205.386302 30.6187258,207.986302 32.2187258,206.886302 C37.0187258,203.486302 42.2187258,201.386302 48.1187258,200.886302 C50.1187258,200.686302 50.1187258,197.686302 48.1187258,197.886302 L48.1187258,197.886302 Z" id="Path" fill="#161616"></path>
                    <path d="M207.818726,39.9863019 C195.318726,70.3863019 185.718726,94.8863019 179.618726,110.886302 C165.318726,148.086302 161.318726,161.086302 147.818726,178.186302 C136.318726,192.686302 122.718726,210.786302 99.7187258,214.286302 C85.3187258,216.486302 73.1187258,212.086302 66.0187258,208.886302 C64.2187258,210.286302 50.5187258,220.086302 37.2187258,214.886302 C29.8187258,211.986302 22.5187258,204.486302 24.0187258,199.886302 C25.5187258,195.186302 35.5187258,195.486302 35.4187258,193.286302 C35.3187258,191.486302 28.4187258,188.986302 22.2187258,190.886302 C21.3187258,191.186302 15.2187258,193.186302 13.2187258,198.686302 C10.6187258,205.986302 17.4187258,213.486302 19.2187258,215.486302 C28.4187258,225.686302 42.5187258,225.186302 45.0187258,225.086302 C55.1187258,224.786302 62.5187258,220.286302 66.0187258,217.886302 C70.5187258,221.686302 78.4187258,227.286302 89.4187258,229.286302 C109.718726,233.086302 126.118726,221.686302 135.118726,216.086302 C160.818726,199.786302 170.518726,173.786302 178.418726,154.186302 C182.218726,144.686302 183.918726,138.486302 193.218726,100.586302 C199.018726,76.5863019 204.018726,55.9863019 207.818726,39.9863019 Z" id="Path" fill="#3D3D3D" opacity="0.17"></path>
                    <path d="M5.91872582,173.386302 C9.31872582,172.786302 13.7187258,181.786302 16.7187258,188.986302 C15.2187258,196.686302 13.3187258,198.386302 11.9187258,198.586302 C7.91872582,199.286302 1.11872582,189.486302 2.31872582,180.586302 C2.41872582,179.886302 3.21872582,173.886302 5.91872582,173.386302 Z" id="Path" fill="#3D3D3D" opacity="0.17"></path>
                </g>
                <g id="torso" transform="translate(203.7785, 157.0511)">
                    <path d="M19.4007293,32.3650477 C0.500729257,54.0650477 0.100729257,80.8650477 0,127.865048 C-0.0992707427,184.765048 10.1007293,232.665048 21.0007293,268.365048 C37.4007293,273.265048 61.2007293,278.465048 90.1007293,278.465048 C118.600729,278.465048 142.100729,273.265048 158.400729,268.365048 C162.100729,253.065048 167.000729,230.565048 170.800729,203.165048 C183.900729,110.265048 192.500729,49.1650477 158.400729,19.1650477 C124.000729,-11.0349523 51.7007293,-4.73495231 19.4007293,32.3650477 Z" id="Path" stroke="#161616" stroke-width="3" fill="#FFFFFF"></path>
                    <path d="M113.100729,1.86504769 C117.400729,10.6650477 123.100729,24.2650477 126.700729,41.5650477 C130.000729,57.3650477 135.100729,92.4650477 106.200729,179.865048 C98.0007293,204.765048 85.6007293,238.165048 67.1007293,276.565048 C75.0007293,277.365048 83.5007293,277.865048 92.5007293,277.765048 C118.200729,277.665048 140.500729,273.465048 158.200729,268.465048 C165.800729,231.265048 171.200729,199.565048 174.900729,175.465048 C179.500729,145.865048 182.700729,120.865048 181.700729,89.2650477 C180.500729,49.2650477 173.700729,37.6650477 169.900729,32.2650477 C153.600729,8.46504769 124.200729,3.26504769 113.100729,1.86504769 Z" id="Path" fill="#3D3D3D" opacity="0.1"></path>
                    <path d="M180.100729,61.3650477 C175.600729,74.9650477 169.100729,95.9650477 162.700729,122.165048 C154.700729,154.865048 153.500729,168.565048 149.100729,186.065048 C143.200729,208.865048 130.900729,241.065048 102.000729,277.865048 C111.500729,278.165048 124.200729,277.465048 138.600729,273.565048 C146.200729,271.465048 152.900729,268.765048 158.400729,266.165048 C163.500729,238.365048 168.000729,212.265048 172.000729,188.065048 C179.100729,145.665048 181.600729,128.165048 181.900729,104.965048 C182.200729,86.6650477 181.100729,71.6650477 180.100729,61.3650477 Z" id="Path" fill="#3D3D3D" opacity="0.13"></path>
                </g>
                <g id="head" transform="translate(188.2882, -0)">
                    <path d="M84.1910531,135.31614 C80.8910531,139.81614 82.4910531,143.91614 81.7910531,160.71614 C81.2910531,171.71614 80.1910531,180.51614 79.3910531,186.11614 C82.7910531,188.51614 92.3910531,194.61614 105.991053,194.61614 C121.991053,194.61614 132.691053,186.21614 135.591053,183.71614 C134.291053,180.11614 132.691053,174.71614 131.391053,168.01614 C127.691053,148.91614 131.491053,143.01614 127.191053,136.51614 C119.491053,125.01614 92.0910531,124.51614 84.1910531,135.31614 Z" id="Path" stroke="#161616" stroke-width="3" fill="#FFFFFF"></path>
                    <path d="M43.6910531,81.4161399 C43.2910531,95.6161399 46.4910531,106.21614 49.0910531,114.71614 C52.9910531,127.21614 57.2910531,141.21614 69.6910531,154.01614 C80.4910531,165.21614 93.0910531,171.01614 102.991053,174.01614 C110.591053,170.91614 123.091053,164.61614 134.491053,152.21614 C146.891053,138.71614 151.591053,125.01614 155.091053,114.71614 C158.091053,105.81614 163.191053,89.7161399 161.091053,68.7161399 C159.591053,54.0161399 157.991053,38.1161399 145.391053,25.8161399 C126.791053,7.71613986 99.5910531,12.4161399 95.7910531,13.1161399 C69.3910531,18.0161399 56.0910531,38.9161399 52.8910531,44.6161399 C44.2910531,59.2161399 43.8910531,73.5161399 43.6910531,81.4161399 Z" id="Path" stroke="#161616" stroke-width="3" fill="#FFFFFF"></path>
                    <path d="M96.1910531,92.3161399 C95.5910531,105.11614 96.7910531,117.81614 99.8910531,130.21614 C100.191053,131.21614 101.691053,131.71614 102.391053,130.91614 C104.691053,128.21614 106.191053,125.31614 106.891053,121.81614 C107.291053,119.91614 104.391053,119.11614 103.991053,121.01614 C103.391053,124.11614 102.291053,126.41614 100.291053,128.81614 C101.091053,129.01614 101.991053,129.21614 102.791053,129.51614 C99.7910531,117.31614 98.6910531,104.91614 99.1910531,92.4161399 C99.1910531,90.4161399 96.1910531,90.4161399 96.1910531,92.3161399 L96.1910531,92.3161399 Z" id="Path" fill="#161616"></path>
                    <path d="M117.191053,96.7161399 C124.291053,104.21614 138.591053,106.31614 142.391053,94.2161399 C142.991053,92.4161399 140.091053,91.6161399 139.491053,93.4161399 C136.391053,103.31614 124.791053,100.21614 119.391053,94.5161399 C117.891053,93.2161399 115.791053,95.3161399 117.191053,96.7161399 L117.191053,96.7161399 Z" id="Path" fill="#161616"></path>
                    <path d="M67.0910531,116.11614 C67.0910531,115.81614 66.9910531,116.21614 66.8910531,116.21614 C66.7910531,116.31614 66.5910531,116.31614 66.3910531,116.31614 C66.0910531,115.71614 65.6910531,115.11614 65.3910531,114.51614 C65.4910531,114.41614 65.4910531,114.31614 65.5910531,114.21614 C64.7910531,114.41614 64.2910531,115.21614 64.5910531,116.01614 C64.7910531,116.81614 65.6910531,117.31614 66.3910531,117.01614 C67.2910531,116.71614 67.8910531,116.11614 68.2910531,115.21614 C68.5910531,114.51614 67.9910531,113.51614 67.2910531,113.41614 C65.9910531,113.11614 64.4910531,113.81614 64.1910531,115.21614 C64.0910531,116.01614 64.3910531,116.91614 65.1910531,117.01614 C65.9910531,117.41614 66.9910531,117.01614 67.0910531,116.11614 L67.0910531,116.11614 Z" id="Path" fill="#161616"></path>
                    <path d="M81.8910531,112.21614 C81.6910531,113.71614 81.2910531,113.81614 80.6910531,112.51614 C79.5910531,111.61614 79.7910531,111.21614 81.2910531,111.41614 C80.5910531,111.01614 79.6910531,111.21614 79.1910531,111.91614 C78.7910531,112.61614 78.9910531,113.61614 79.6910531,114.01614 C81.3910531,115.01614 83.4910531,112.81614 82.1910531,111.21614 C80.8910531,109.61614 78.2910531,111.01614 78.7910531,112.91614 C78.9910531,113.71614 79.8910531,114.21614 80.5910531,113.91614 C81.6910531,113.91614 82.0910531,113.01614 81.8910531,112.21614 L81.8910531,112.21614 Z" id="Path" fill="#161616"></path>
                    <path d="M76.4910531,122.61614 C76.4910531,122.81614 76.3910531,123.01614 76.1910531,123.21614 C76.3910531,123.01614 75.9910531,123.31614 76.0910531,123.21614 C76.1910531,123.11614 75.7910531,123.31614 76.0910531,123.21614 C75.8910531,123.21614 75.7910531,123.21614 75.8910531,123.21614 C75.9910531,123.21614 75.9910531,123.21614 75.6910531,123.21614 C75.5910531,123.21614 75.5910531,123.11614 75.4910531,123.11614 C75.5910531,123.21614 75.5910531,123.11614 75.3910531,123.01614 C74.9910531,122.61614 74.9910531,122.01614 75.2910531,121.61614 C75.6910531,121.21614 76.3910531,121.41614 76.5910531,121.81614 C76.1910531,121.11614 75.2910531,120.91614 74.4910531,121.31614 C73.7910531,121.71614 73.4910531,122.71614 73.9910531,123.41614 C74.5910531,124.41614 75.8910531,124.71614 76.8910531,124.11614 C77.8910531,123.61614 78.2910531,122.31614 77.6910531,121.31614 C76.4910531,119.41614 73.2910531,120.51614 73.2910531,122.61614 C73.2910531,123.41614 73.9910531,124.11614 74.7910531,124.11614 C75.7910531,124.11614 76.4910531,123.51614 76.4910531,122.61614 L76.4910531,122.61614 Z" id="Path" fill="#161616"></path>
                    <path d="M127.391053,109.91614 C128.091053,110.01614 128.491053,110.41614 128.591053,110.91614 C128.691053,111.51614 128.291053,111.91614 127.391053,112.21614 C127.091053,112.11614 126.891053,112.11614 126.591053,112.01614 C126.091053,111.71614 125.991053,111.31614 126.291053,110.81614 C126.791053,110.01614 128.291053,110.31614 127.991053,111.41614 C128.191053,110.61614 127.791053,109.71614 126.991053,109.61614 C126.191053,109.41614 125.391053,109.81614 125.191053,110.61614 C124.791053,112.01614 125.991053,113.51614 127.491053,113.31614 C128.791053,113.11614 129.591053,111.81614 129.191053,110.51614 C128.991053,109.81614 128.291053,109.21614 127.491053,109.21614 C126.891053,109.21614 126.291053,109.61614 125.991053,110.11614 C125.391053,111.21614 126.191053,113.01614 127.591053,112.91614 C128.391053,112.81614 129.091053,112.31614 129.091053,111.41614 C128.891053,110.71614 128.291053,109.81614 127.391053,109.91614 L127.391053,109.91614 Z" id="Path" fill="#161616"></path>
                    <path d="M138.691053,111.01614 C138.791053,111.01614 138.791053,110.91614 138.691053,111.01614 C138.591053,111.11614 138.391053,111.31614 138.191053,111.51614 C137.591053,111.31614 137.091053,111.11614 136.491053,110.81614 C136.491053,110.51614 136.491053,110.31614 136.491053,110.01614 C136.491053,109.91614 136.591053,109.91614 136.591053,109.81614 C136.791053,109.61614 136.991053,109.41614 137.091053,109.31614 C137.691053,109.51614 138.191053,109.71614 138.791053,110.01614 C138.791053,110.31614 138.791053,110.51614 138.791053,110.81614 C138.791053,110.81614 138.791053,110.71614 138.791053,110.71614 C138.991053,109.91614 138.591053,109.01614 137.791053,108.91614 C136.991053,108.71614 136.191053,109.11614 135.991053,109.91614 C135.491053,111.91614 138.491053,113.11614 139.391053,111.11614 C139.791053,110.31614 139.391053,109.31614 138.591053,108.91614 C137.691053,108.41614 136.691053,108.71614 136.191053,109.51614 C135.691053,110.21614 136.091053,111.21614 136.691053,111.61614 C137.391053,112.01614 138.291053,111.61614 138.691053,111.01614 L138.691053,111.01614 Z" id="Path" fill="#161616"></path>
                    <path d="M133.191053,120.91614 C133.091053,120.61614 133.191053,120.91614 133.091053,121.01614 C133.091053,121.11614 132.791053,121.31614 133.091053,121.11614 C132.291053,121.01614 131.491053,120.91614 130.691053,120.81614 C130.091053,119.91614 131.191053,119.11614 131.991053,119.51614 C131.291053,119.11614 130.391053,119.31614 129.891053,120.01614 C129.491053,120.71614 129.691053,121.71614 130.391053,122.11614 C131.191053,122.51614 132.191053,122.41614 132.791053,121.71614 C133.391053,121.11614 133.591053,120.01614 133.091053,119.21614 C132.591053,118.41614 131.391053,118.21614 130.691053,118.91614 C129.991053,119.61614 129.691053,120.71614 129.991053,121.61614 C130.291053,122.41614 130.991053,122.91614 131.791053,122.61614 C132.891053,122.61614 133.491053,121.71614 133.191053,120.91614 L133.191053,120.91614 Z" id="Path" fill="#161616"></path>
                    <path d="M89.5910531,138.51614 C96.6910531,145.91614 107.991053,145.71614 114.691053,137.81614 C115.891053,136.31614 113.791053,134.21614 112.591053,135.71614 C106.991053,142.31614 97.7910531,142.71614 91.6910531,136.41614 C90.3910531,135.01614 88.2910531,137.11614 89.5910531,138.51614 L89.5910531,138.51614 Z" id="Path" fill="#161616"></path>
                    <path d="M71.1910531,77.9161399 C74.1910531,74.6161399 78.3910531,73.2161399 82.7910531,74.1161399 C84.6910531,74.5161399 85.4910531,71.6161399 83.5910531,71.2161399 C78.1910531,70.1161399 72.7910531,71.7161399 69.0910531,75.8161399 C67.7910531,77.2161399 69.8910531,79.3161399 71.1910531,77.9161399 L71.1910531,77.9161399 Z" id="Path" fill="#161616"></path>
                    <path d="M118.191053,71.8161399 C122.791053,71.3161399 126.991053,72.4161399 130.691053,75.1161399 C132.291053,76.2161399 133.791053,73.6161399 132.191053,72.5161399 C128.091053,69.5161399 123.191053,68.2161399 118.191053,68.8161399 C116.291053,69.0161399 116.291053,72.0161399 118.191053,71.8161399 L118.191053,71.8161399 Z" id="Path" fill="#161616"></path>
                    <path d="M65.7910531,97.6161399 C72.8910531,105.11614 87.1910531,107.21614 90.9910531,95.1161399 C91.5910531,93.3161399 88.6910531,92.5161399 88.0910531,94.3161399 C84.9910531,104.21614 73.3910531,101.11614 67.9910531,95.4161399 C66.5910531,94.0161399 64.3910531,96.2161399 65.7910531,97.6161399 L65.7910531,97.6161399 Z" id="Path" fill="#161616"></path>
                    <path d="M98.7910531,34.8161399 C105.291053,42.6161399 113.091053,51.0161399 122.491053,59.5161399 C135.291053,71.1161399 147.791053,80.1161399 158.691053,86.9161399 C158.091053,95.9161399 156.191053,109.71614 149.391053,125.21614 C142.691053,140.61614 133.791053,151.31614 127.691053,157.81614 C127.091053,162.61614 126.891053,170.81614 130.791053,179.01614 C139.891053,198.11614 166.091053,206.71614 186.191053,200.21614 C188.591053,199.41614 205.491053,193.71614 210.991053,178.51614 C212.491053,174.31614 213.291053,169.21614 210.991053,155.71614 C207.691053,136.21614 201.891053,121.91614 200.191053,117.51614 C195.391053,105.31614 189.191053,87.7161399 183.591053,64.7161399 C181.791053,56.7161399 174.391053,28.0161399 148.391053,11.4161399 C141.591053,7.01613986 126.991053,-2.28386014 108.591053,0.516139858 C100.591053,1.71613986 94.3910531,4.81613986 90.4910531,7.21613986 C82.0910531,7.91613986 67.0910531,10.3161399 52.6910531,20.7161399 C20.0910531,44.1161399 20.9910531,86.3161399 21.0910531,90.6161399 C20.0910531,95.9161399 18.3910531,103.91614 15.3910531,113.41614 C7.99105311,136.61614 1.79105311,139.51614 0.39105311,153.81614 C-0.00894689048,157.41614 -1.80894689,175.61614 10.1910531,190.51614 C12.6910531,193.61614 20.3910531,202.91614 33.4910531,205.51614 C50.8910531,209.01614 69.5910531,199.21614 77.2910531,183.81614 C81.5910531,175.21614 81.4910531,166.91614 81.0910531,162.51614 C78.1910531,159.91614 51.4910531,135.71614 54.6910531,98.0161399 C58.2910531,55.1161399 96.9910531,35.7161399 98.7910531,34.8161399 Z" id="Path" fill="#F24088"></path>
                    <path d="M135.791053,71.1161399 C137.591053,77.9161399 139.591053,88.2161399 138.491053,100.61614 C137.091053,116.41614 131.491053,127.51614 125.691053,138.91614 C121.091053,147.91614 113.891053,160.21614 102.491053,173.11614 C104.291053,172.81614 106.391053,172.21614 108.491053,171.41614 C113.391053,169.61614 117.091053,167.11614 119.591053,165.01614 C118.791053,174.41614 117.991053,183.81614 117.291053,193.21614 C122.991053,190.71614 128.691053,188.31614 134.391053,185.81614 C133.191053,175.81614 131.891053,165.91614 130.691053,155.91614 C133.091053,152.91614 136.491053,148.51614 140.091053,142.81614 C145.091053,134.91614 152.191053,123.51614 155.891053,107.61614 C157.091053,102.51614 158.291053,95.0161399 158.191053,85.8161399 C150.791053,81.0161399 143.291053,76.0161399 135.791053,71.1161399 Z" id="Path" fill="#3D3D3D" opacity="0.11"></path>
                    <path d="M158.291053,87.6161399 C157.491053,87.4161399 155.291053,97.7161399 148.591053,113.11614 C148.591053,113.11614 143.591053,124.51614 137.891053,134.21614 C132.591053,143.21614 122.091053,158.31614 102.291053,174.11614 C104.491053,175.11614 106.791053,176.11614 108.991053,177.11614 C115.491053,176.41614 121.991053,175.81614 128.491053,175.11614 C128.191053,169.61614 127.791053,164.11614 127.491053,158.71614 C135.291053,150.71614 145.991053,137.61614 152.691053,118.81614 C158.091053,103.11614 159.291053,87.8161399 158.291053,87.6161399 Z" id="Path" fill="#3D3D3D" opacity="0.16"></path>
                    <path d="M8.59105311,131.91614 C8.39105311,135.21614 8.59105311,140.91614 11.2910531,147.01614 C15.1910531,155.71614 24.2910531,165.21614 34.0910531,165.11614 C45.9910531,165.01614 59.1910531,150.61614 58.5910531,130.21614 C60.4910531,135.01614 63.3910531,140.81614 67.6910531,147.01614 C72.5910531,154.11614 77.8910531,159.41614 82.0910531,163.11614 C82.1910531,166.41614 81.8910531,171.51614 80.0910531,177.21614 C79.0910531,180.41614 76.5910531,186.91614 70.9910531,193.01614 C68.5910531,195.61614 60.7910531,204.01614 48.1910531,206.11614 C29.8910531,209.11614 16.0910531,196.41614 13.5910531,194.01614 C-2.80894689,178.31614 -0.00894689048,156.11614 0.49105311,152.71614 C1.89105311,143.01614 5.89105311,135.91614 8.59105311,131.91614 Z" id="Path" fill="#3D3D3D" opacity="0.29"></path>
                    <path d="M158.991053,87.2161399 C159.791053,92.1161399 160.891053,99.9161399 161.691053,109.71614 C163.391053,130.71614 161.691053,136.31614 165.091053,147.01614 C165.591053,148.71614 173.291053,172.31614 184.591053,172.51614 C193.391053,172.71614 203.191053,158.91614 207.091053,138.61614 C210.191053,148.71614 211.491053,157.31614 212.091053,163.41614 C213.091053,173.31614 212.191053,176.61614 211.791053,178.21614 C208.991053,187.31614 201.591053,192.31614 197.691053,195.01614 C183.891053,204.41614 168.991053,203.01614 166.791053,202.71614 C163.291053,202.31614 147.091053,200.21614 136.291053,186.61614 C134.591053,184.51614 129.191053,177.41614 127.591053,166.81614 C127.091053,163.31614 127.091053,160.21614 127.291053,158.11614 C133.391053,152.11614 141.491053,142.61614 148.091053,129.21614 C156.291053,112.21614 158.391053,96.7161399 158.991053,87.2161399 Z" id="Path" fill="#3D3D3D" opacity="0.12"></path>
                </g>
            </g>
        </g>
    </g>
</svg>