<?xml version="1.0" encoding="UTF-8"?>
<svg width="233px" height="64px" viewBox="0 0 233 64" version="1.1" xmlns="http://www.w3.org/2000/svg" xmlns:xlink="http://www.w3.org/1999/xlink">
    <g id="logo-hugo-serif" fill-rule="nonzero">
        <path id="Hugo" fill="#2F2F41" d="M36.816,52 L36.816,51.04 C35.792,50.976 35.024,50.848 34.512,50.656 C34,50.464 33.656,50.08 33.48,49.504 C33.304,48.928 33.216,48.064 33.216,46.912 L33.216,46.912 L33.216,23.104 C33.216,21.92 33.296,21.048 33.456,20.488 C33.616,19.928 33.96,19.544 34.488,19.336 C35.016,19.128 35.792,19.008 36.816,18.976 L36.816,18.976 L36.816,18.016 C36.016,18.048 34.968,18.08 33.672,18.112 C32.376,18.144 30.992,18.16 29.52,18.16 C28.144,18.16 26.76,18.144 25.368,18.112 C23.976,18.08 22.848,18.048 21.984,18.016 L21.984,18.016 L21.984,18.976 C22.976,19.008 23.736,19.128 24.264,19.336 C24.792,19.544 25.144,19.928 25.32,20.488 C25.496,21.048 25.584,21.92 25.584,23.104 L25.584,23.104 L25.584,34.432 L12.864,34.432 L12.864,23.104 C12.864,22.0276364 12.9301157,21.209124 13.0623471,20.6484628 L13.104,20.488 C13.264,19.928 13.608,19.544 14.136,19.336 C14.664,19.128 15.44,19.008 16.464,18.976 L16.464,18.976 L16.464,18.016 C15.6,18.048 14.512,18.08 13.2,18.112 C11.888,18.144 10.56,18.16 9.216,18.16 C7.648,18.16 6.2,18.144 4.872,18.112 C3.544,18.08 2.464,18.048 1.632,18.016 L1.632,18.016 L1.632,18.976 C2.624,19.008 3.384,19.128 3.912,19.336 C4.44,19.544 4.792,19.928 4.968,20.488 C5.144,21.048 5.232,21.92 5.232,23.104 L5.232,23.104 L5.232,46.912 C5.232,48.064 5.144,48.928 4.968,49.504 C4.792,50.08 4.448,50.464 3.936,50.656 C3.424,50.848 2.656,50.976 1.632,51.04 L1.632,51.04 L1.632,52 C2.464,51.936 3.544,51.896 4.872,51.88 C6.2,51.864 7.648,51.856 9.216,51.856 C10.56,51.856 11.888,51.864 13.2,51.88 C14.512,51.896 15.6,51.936 16.464,52 L16.464,52 L16.464,51.04 C15.44,50.976 14.672,50.848 14.16,50.656 C13.648,50.464 13.304,50.08 13.128,49.504 C12.952,48.928 12.864,48.064 12.864,46.912 L12.864,46.912 L12.864,35.392 L25.584,35.392 L25.584,46.912 C25.584,47.9592727 25.5112727,48.7685289 25.3658182,49.3397686 L25.32,49.504 C25.144,50.08 24.8,50.464 24.288,50.656 C23.776,50.848 23.008,50.976 21.984,51.04 L21.984,51.04 L21.984,52 C22.848,51.936 23.976,51.896 25.368,51.88 C26.76,51.864 28.144,51.856 29.52,51.856 C30.992,51.856 32.376,51.864 33.672,51.88 C34.968,51.896 36.016,51.936 36.816,52 L36.816,52 Z M48.8255156,52.672 C50.4895156,52.672 52.0015156,52.328 53.3615156,51.64 C54.7215156,50.952 55.7855156,49.808 56.5535156,48.208 L56.5535156,48.208 L56.5535156,52.528 C57.5775156,52.272 58.6655156,52.096 59.8175156,52 C60.9695156,51.904 62.2175156,51.856 63.5615156,51.856 C64.5535156,51.856 65.5455156,51.904 66.5375156,52 L66.5375156,52 L66.5375156,50.992 C65.3855156,50.992 64.5855156,50.648 64.1375156,49.96 C63.6895156,49.272 63.4655156,48.208 63.4655156,46.768 L63.4655156,46.768 L63.4655156,26.656 C62.4735156,26.88 61.3935156,27.048 60.2255156,27.16 C59.0575156,27.272 57.8015156,27.328 56.4575156,27.328 C55.4975156,27.328 54.5055156,27.28 53.4815156,27.184 L53.4815156,27.184 L53.4815156,28.192 C54.6655156,28.192 55.4735156,28.536 55.9055156,29.224 C56.3375156,29.912 56.5535156,30.976 56.5535156,32.416 L56.5535156,32.416 L56.5535156,44.992 C56.5535156,46.56 56.0975156,47.88 55.1855156,48.952 C54.2735156,50.024 53.1775156,50.56 51.8975156,50.56 C51.0975156,50.56 50.4895156,50.392 50.0735156,50.056 C49.6575156,49.72 49.3775156,49.248 49.2335156,48.64 C49.0895156,48.032 49.0175156,47.328 49.0175156,46.528 L49.0175156,46.528 L49.0175156,26.656 C48.0255156,26.88 46.9455156,27.048 45.7775156,27.16 C44.6095156,27.272 43.3535156,27.328 42.0095156,27.328 C41.0495156,27.328 40.0575156,27.28 39.0335156,27.184 L39.0335156,27.184 L39.0335156,28.192 C40.2175156,28.192 41.0255156,28.536 41.4575156,29.224 C41.8895156,29.912 42.1055156,30.976 42.1055156,32.416 L42.1055156,32.416 L42.1055156,44.56 C42.1055156,46.128 42.2175156,47.408 42.4415156,48.4 C42.6655156,49.392 43.0495156,50.192 43.5935156,50.8 C44.0735156,51.344 44.7295156,51.792 45.5615156,52.144 C46.3935156,52.496 47.4815156,52.672 48.8255156,52.672 Z M77.9422676,61.024 C81.1422676,61.024 83.7822676,60.616 85.8622676,59.8 C87.9422676,58.984 89.4862676,57.904 90.4942676,56.56 C91.5022676,55.216 92.0062676,53.76 92.0062676,52.192 C92.0062676,49.92 91.1262676,48.296 89.3662676,47.32 C87.6062676,46.344 85.3982676,45.856 82.7422676,45.856 L82.7422676,45.856 L77.5102676,45.856 C76.2302676,45.856 75.5902676,45.344 75.5902676,44.32 C75.5902676,43.648 75.8542676,43.096 76.3822676,42.664 C76.6462676,42.448 76.9202676,42.238 77.2042676,42.034 L77.603,41.757 L77.9730824,41.7702963 L77.9730824,41.7702963 L78.4222676,41.776 C81.1742676,41.776 83.4542676,41.16 85.2622676,39.928 C87.0702676,38.696 87.9742676,36.768 87.9742676,34.144 C87.9742676,32.23168 87.505634,30.692608 86.5683668,29.526784 L86.528,29.48 L86.5550083,29.4358519 C86.7857244,29.0739753 87.0322429,28.7516049 87.2945639,28.4687407 L87.4942676,28.264 C87.9917221,27.7796364 88.6926808,27.3434711 89.5971436,26.9555041 L89.657,26.931 L89.6375102,26.9755266 C89.2493445,27.8806154 89.0599954,28.648426 89.0694628,29.2789586 L89.0782676,29.464 C89.1422676,30.248 89.4062676,30.832 89.8702676,31.216 C90.3342676,31.6 90.8382676,31.792 91.3822676,31.792 C92.0222676,31.792 92.5982676,31.56 93.1102676,31.096 C93.6222676,30.632 93.8782676,29.92 93.8782676,28.96 C93.8782676,28.064 93.6142676,27.336 93.0862676,26.776 C92.5582676,26.216 91.7822676,25.936 90.7582676,25.936 C89.5102676,25.936 88.3502676,26.352 87.2782676,27.184 C86.7422676,27.6 86.2802676,28.068 85.8922676,28.588 L85.788,28.734 L85.6788308,28.641664 C85.6122964,28.588416 85.5443156,28.53632 85.4748884,28.485376 L85.2622676,28.336 C83.4542676,27.12 81.1742676,26.512 78.4222676,26.512 C75.7022676,26.512 73.4302676,27.12 71.6062676,28.336 C69.7822676,29.552 68.8702676,31.488 68.8702676,34.144 C68.8702676,36.768 69.7822676,38.696 71.6062676,39.928 C72.9236009,40.8177778 74.4746133,41.3862469 76.2593046,41.6334074 L76.336,41.643 L76.0514942,41.7864533 C74.846872,42.4065422 73.8698054,43.0550756 73.1202942,43.7320533 L72.9022676,43.936 C71.8462676,44.96 71.3182676,46.144 71.3182676,47.488 C71.3182676,48.448 71.5902676,49.24 72.1342676,49.864 C72.6782676,50.488 73.4382676,50.944 74.4142676,51.232 C75.3902676,51.52 76.5342676,51.664 77.8462676,51.664 L77.8462676,51.664 L80.8222676,51.664 C82.9342676,51.664 84.3422676,51.992 85.0462676,52.648 C85.7502676,53.304 86.1022676,54.112 86.1022676,55.072 C86.1022676,56.192 85.7742676,57.136 85.1182676,57.904 C84.4622676,58.672 83.5662676,59.248 82.4302676,59.632 C81.2942676,60.016 80.0062676,60.208 78.5662676,60.208 C76.4542676,60.208 74.7822676,59.848 73.5502676,59.128 C72.3182676,58.408 71.7022676,57.376 71.7022676,56.032 C71.7022676,55.424 71.8382676,54.84 72.1102676,54.28 C72.3822676,53.72 72.8222676,53.2 73.4302676,52.72 L73.4302676,52.72 L72.9982676,51.952 C71.2382676,52.4 69.9102676,53.016 69.0142676,53.8 C68.1182676,54.584 67.6702676,55.472 67.6702676,56.464 C67.6702676,57.456 68.1102676,58.296 68.9902676,58.984 C69.8702676,59.672 71.0862676,60.184 72.6382676,60.52 C74.1902676,60.856 75.9582676,61.024 77.9422676,61.024 Z M78.4222676,40.912 C77.5902676,40.912 76.9262676,40.424 76.4302676,39.448 C75.9342676,38.472 75.6862676,36.704 75.6862676,34.144 C75.6862676,31.584 75.9342676,29.816 76.4302676,28.84 C76.9262676,27.864 77.5902676,27.376 78.4222676,27.376 C79.2862676,27.376 79.9582676,27.864 80.4382676,28.84 C80.9182676,29.816 81.1582676,31.584 81.1582676,34.144 C81.1582676,36.704 80.9182676,38.472 80.4382676,39.448 C79.9582676,40.424 79.2862676,40.912 78.4222676,40.912 Z M107.567818,52.672 C109.903818,52.672 111.951818,52.24 113.711818,51.376 C115.471818,50.512 116.847818,49.128 117.839818,47.224 C118.831818,45.32 119.327818,42.784 119.327818,39.616 C119.327818,36.448 118.831818,33.904 117.839818,31.984 C116.847818,30.064 115.471818,28.672 113.711818,27.808 C111.951818,26.944 109.903818,26.512 107.567818,26.512 C105.295818,26.512 103.271818,26.944 101.495818,27.808 C99.7198184,28.672 98.3278184,30.064 97.3198184,31.984 C96.3118184,33.904 95.8078184,36.448 95.8078184,39.616 C95.8078184,42.784 96.3118184,45.32 97.3198184,47.224 C98.3278184,49.128 99.7198184,50.512 101.495818,51.376 C103.271818,52.24 105.295818,52.672 107.567818,52.672 Z M107.567818,51.712 C106.287818,51.712 105.215818,50.768 104.351818,48.88 C103.487818,46.992 103.055818,43.904 103.055818,39.616 C103.055818,35.328 103.487818,32.232 104.351818,30.328 C105.215818,28.424 106.287818,27.472 107.567818,27.472 C108.879818,27.472 109.959818,28.424 110.807818,30.328 C111.655818,32.232 112.079818,35.328 112.079818,39.616 C112.079818,43.904 111.655818,46.992 110.807818,48.88 C109.959818,50.768 108.879818,51.712 107.567818,51.712 Z"></path>
        <path id="Serif" fill="#f24088" d="M136.16,52.672 C138.304,52.672 140.272,52.328 142.064,51.64 C143.856,50.952 145.304,49.92 146.408,48.544 C147.512,47.168 148.064,45.424 148.064,43.312 C148.064,41.584 147.696,40.096 146.96,38.848 C146.224,37.6 145.248,36.48 144.032,35.488 C142.816,34.496 141.44,33.504 139.904,32.512 C138.144,31.296 136.648,30.256 135.416,29.392 C134.184,28.528 133.248,27.64 132.608,26.728 C131.968,25.816 131.648,24.72 131.648,23.44 C131.648,21.904 132.144,20.704 133.136,19.84 C134.128,18.976 135.392,18.544 136.928,18.544 C138.624,18.544 140.056,19.048 141.224,20.056 C142.392,21.064 143.296,22.352 143.936,23.92 C144.576,25.488 144.96,27.104 145.088,28.768 L145.088,28.768 L146.192,28.768 C146.192,26.528 146.2,24.72 146.216,23.344 C146.232,21.968 146.264,20.856 146.312,20.008 C146.36,19.16 146.4,18.432 146.432,17.824 L146.432,17.824 L145.328,17.824 C145.136,19.232 144.784,19.936 144.272,19.936 C144.048,19.936 143.816,19.88 143.576,19.768 C143.336,19.656 143.024,19.488 142.64,19.264 C141.904,18.816 141.024,18.392 140,17.992 C138.976,17.592 137.52,17.392 135.632,17.392 C133.776,17.392 132.024,17.704 130.376,18.328 C128.728,18.952 127.4,19.912 126.392,21.208 C125.384,22.504 124.88,24.16 124.88,26.176 C124.88,27.936 125.272,29.456 126.056,30.736 C126.84,32.016 127.888,33.152 129.2,34.144 C130.512,35.136 131.92,36.128 133.424,37.12 C135.536,38.496 137.264,39.832 138.608,41.128 C139.952,42.424 140.624,44.064 140.624,46.048 C140.624,47.84 140.048,49.184 138.896,50.08 C137.744,50.976 136.336,51.424 134.672,51.424 C132.624,51.424 130.984,50.864 129.752,49.744 C128.52,48.624 127.608,47.144 127.016,45.304 C126.424,43.464 126.064,41.488 125.936,39.376 L125.936,39.376 L124.832,39.376 C124.832,41.904 124.824,43.992 124.808,45.64 C124.792,47.288 124.776,48.624 124.76,49.648 C124.744,50.672 124.704,51.568 124.64,52.336 L124.64,52.336 L125.744,52.336 C125.936,50.928 126.288,50.224 126.8,50.224 C127.184,50.224 127.728,50.448 128.432,50.896 C129.232,51.312 130.224,51.712 131.408,52.096 C132.592,52.48 134.176,52.672 136.16,52.672 Z M162.886314,52.672 C164.678314,52.672 166.214314,52.304 167.494314,51.568 C168.774314,50.832 169.830314,49.888 170.662314,48.736 C171.494314,47.584 172.102314,46.4 172.486314,45.184 L172.486314,45.184 L171.622314,44.896 C170.630314,46.496 169.566314,47.536 168.430314,48.016 C167.294314,48.496 166.246314,48.736 165.286314,48.736 C164.294314,48.736 163.318314,48.424 162.358314,47.8 C161.398314,47.176 160.606314,46.176 159.982314,44.8 C159.358314,43.424 159.046314,41.632 159.046314,39.424 C159.046314,38.976 159.054314,38.544 159.070314,38.128 C159.086314,37.712 159.110314,37.312 159.142314,36.928 L159.124,37.168 L172.582314,37.168 C172.582314,33.5318519 171.840476,30.87493 170.3568,29.1972346 L170.182314,29.008 C168.582314,27.344 166.374314,26.512 163.558314,26.512 C161.286314,26.512 159.262314,27 157.486314,27.976 C155.710314,28.952 154.318314,30.432 153.310314,32.416 C152.302314,34.4 151.798314,36.88 151.798314,39.856 C151.798314,42.768 152.270314,45.168 153.214314,47.056 C154.158314,48.944 155.462314,50.352 157.126314,51.28 C158.790314,52.208 160.710314,52.672 162.886314,52.672 Z M159.020953,36.2195236 C159.199948,33.1746238 159.664401,30.9787826 160.414314,29.632 C161.198314,28.224 162.150314,27.52 163.270314,27.52 C164.070314,27.52 164.710314,27.92 165.190314,28.72 C165.670314,29.52 166.022314,30.584 166.246314,31.912 C166.470314,33.24 166.566314,34.688 166.534314,36.256 L166.534314,36.256 L159.018,36.256 L159.020953,36.2195236 Z M189.871918,52 L189.871918,50.992 C188.367918,50.992 187.239918,50.72 186.487918,50.176 C185.735918,49.632 185.359918,48.592 185.359918,47.056 L185.359918,47.056 L185.359918,34.336 C185.359918,33.472 185.551918,32.592 185.935918,31.696 C186.319918,30.8 186.839918,30.024 187.495918,29.368 C188.151918,28.712 188.895918,28.32 189.727918,28.192 C190.175918,28.032 190.623918,28.016 191.071918,28.144 C190.463918,28.56 189.959918,29.064 189.559918,29.656 C189.159918,30.248 188.959918,30.992 188.959918,31.888 C188.959918,32.816 189.271918,33.56 189.895918,34.12 C190.519918,34.68 191.391918,34.96 192.511918,34.96 C193.631918,34.96 194.535918,34.584 195.223918,33.832 C195.911918,33.08 196.255918,32.112 196.255918,30.928 C196.255918,30.192 196.103918,29.488 195.799918,28.816 C195.495918,28.144 195.023918,27.592 194.383918,27.16 C193.743918,26.728 192.911918,26.512 191.887918,26.512 C190.863918,26.512 189.935918,26.712 189.103918,27.112 C188.271918,27.512 187.535918,28.064 186.895918,28.768 C186.255918,29.472 185.743918,30.256 185.359918,31.12 L185.359918,31.12 L185.359918,26.656 C184.367918,26.88 183.287918,27.048 182.119918,27.16 C180.951918,27.272 179.695918,27.328 178.351918,27.328 C177.391918,27.328 176.399918,27.28 175.375918,27.184 L175.375918,27.184 L175.375918,28.192 C176.559918,28.192 177.367918,28.536 177.799918,29.224 C178.231918,29.912 178.447918,30.976 178.447918,32.416 L178.447918,32.416 L178.447918,47.536 C178.447918,48.88 178.215918,49.792 177.751918,50.272 C177.287918,50.752 176.495918,50.992 175.375918,50.992 L175.375918,50.992 L175.375918,52 C176.047918,51.968 177.039918,51.928 178.351918,51.88 C179.663918,51.832 180.959918,51.808 182.239918,51.808 C183.775918,51.808 185.247918,51.832 186.655918,51.88 C188.063918,51.928 189.135918,51.968 189.871918,52 L189.871918,52 Z M204.012676,22.192 C205.356676,22.192 206.420676,21.864 207.204676,21.208 C207.988676,20.552 208.380676,19.648 208.380676,18.496 C208.380676,17.344 207.988676,16.44 207.204676,15.784 C206.420676,15.128 205.356676,14.8 204.012676,14.8 C202.668676,14.8 201.604676,15.128 200.820676,15.784 C200.036676,16.44 199.644676,17.344 199.644676,18.496 C199.644676,19.648 200.036676,20.552 200.820676,21.208 C201.604676,21.864 202.668676,22.192 204.012676,22.192 Z M210.828676,52 L210.828676,50.992 C209.708676,50.992 208.916676,50.752 208.452676,50.272 C207.988676,49.792 207.756676,48.88 207.756676,47.536 L207.756676,47.536 L207.756676,26.656 C206.764676,26.88 205.684676,27.048 204.516676,27.16 C203.348676,27.272 202.092676,27.328 200.748676,27.328 C199.788676,27.328 198.796676,27.28 197.772676,27.184 L197.772676,27.184 L197.772676,28.192 C198.956676,28.192 199.764676,28.536 200.196676,29.224 C200.628676,29.912 200.844676,30.976 200.844676,32.416 L200.844676,32.416 L200.844676,47.536 C200.844676,48.88 200.612676,49.792 200.148676,50.272 C199.684676,50.752 198.892676,50.992 197.772676,50.992 L197.772676,50.992 L197.772676,52 C198.412676,51.968 199.372676,51.928 200.652676,51.88 C201.932676,51.832 203.196676,51.808 204.444676,51.808 C205.692676,51.808 206.924676,51.832 208.140676,51.88 C209.356676,51.928 210.252676,51.968 210.828676,52 L210.828676,52 Z M227.398232,52 L227.398232,50.992 C225.990232,50.992 224.886232,50.728 224.086232,50.2 C223.286232,49.672 222.886232,48.624 222.886232,47.056 L222.886232,47.056 L222.886232,28.192 L228.022232,28.192 L228.022232,27.232 L222.886232,27.232 L222.886232,22.864 C222.886232,20.976 222.950232,19.576 223.078232,18.664 C223.206232,17.752 223.446232,17.056 223.798232,16.576 C224.054232,16.192 224.390232,15.888 224.806232,15.664 C225.222232,15.44 225.750232,15.328 226.390232,15.328 C226.870232,15.328 227.254232,15.392 227.542232,15.52 C227.830232,15.648 228.022232,15.808 228.118232,16 C227.190232,16.256 226.486232,16.704 226.006232,17.344 C225.526232,17.984 225.286232,18.72 225.286232,19.552 C225.286232,20.608 225.630232,21.44 226.318232,22.048 C227.006232,22.656 227.878232,22.96 228.934232,22.96 C229.958232,22.96 230.782232,22.624 231.406232,21.952 C232.030232,21.28 232.342232,20.512 232.342232,19.648 C232.342232,18.848 232.182232,18.136 231.862232,17.512 C231.542232,16.888 231.158232,16.4 230.710232,16.048 C230.070232,15.568 229.334232,15.184 228.502232,14.896 C227.670232,14.608 226.694232,14.464 225.574232,14.464 C224.230232,14.464 222.974232,14.696 221.806232,15.16 C220.638232,15.624 219.702232,16.192 218.998232,16.864 C217.878232,17.952 217.094232,19.24 216.646232,20.728 C216.198232,22.216 215.974232,24.384 215.974232,27.232 L215.974232,27.232 L212.710232,27.232 L212.710232,28.192 L215.974232,28.192 L215.974232,47.536 C215.974232,48.88 215.742232,49.792 215.278232,50.272 C214.814232,50.752 214.022232,50.992 212.902232,50.992 L212.902232,50.992 L212.902232,52 C213.510232,51.968 214.398232,51.928 215.566232,51.88 C216.734232,51.832 217.926232,51.808 219.142232,51.808 C220.806232,51.808 222.390232,51.832 223.894232,51.88 C225.398232,51.928 226.566232,51.968 227.398232,52 L227.398232,52 Z"></path>
    </g>
</svg>
